<svg width="20" height="20" viewBox="0 0 20 20" fill="none" xmlns="http://www.w3.org/2000/svg">
<path d="M2.76716 17.7141C2.16091 17.3563 1.3531 16.6906 1.37654 15.5719C1.39685 14.6219 2.7406 13.1109 6.18591 12.5328C9.63122 11.9547 11.5328 12.2297 13.0765 12.3953C14.6203 12.5609 15.5843 13.0563 15.5843 13.0563L14.1781 15.8953L2.76716 17.7141Z" fill="#04C1EA"/>
<path d="M8.87812 15.1187L5.71094 15.9593L3.17344 17.0796C3.17344 17.0796 2.85781 17.7453 3.01562 17.9203C3.17344 18.0953 5.50156 19.4265 9.62969 19.4421C14.1984 19.4593 16.6281 18.2703 17.4687 17.6578C18.3094 17.0453 15.8062 13.5281 15.8062 13.5281L13.7172 12.6687L11.3437 12.8984L9.94375 13.5984L8.87812 15.1187Z" fill="#F5C876"/>
<path d="M10.9391 14.8328L14.4781 14.6453C14.4781 14.6453 14.0156 13.7578 13.8453 13.3593C13.6516 12.9062 13.6156 12.6453 13.6156 12.6453C13.6156 12.6453 14.0312 12.5296 14.7406 12.7093C15.45 12.889 17.9719 13.6984 18.5891 15.2578C19.1266 16.6171 17.4578 17.6687 17.4578 17.6687C17.4578 17.6687 16.3328 16.9015 15.9125 16.4999C15.2547 15.8718 14.8984 15.3453 14.8984 15.3453L10.9016 15.4859L10.6641 15.3281L10.9391 14.8328Z" fill="#F2A159"/>
<path d="M3.33284 15.3984C2.88596 15.8453 3.40315 16.3953 3.40315 16.3953C3.40315 16.3953 2.38909 16.6234 2.42346 17.2172C2.44065 17.5141 2.84377 17.8641 3.01877 17.9172C3.19377 17.9703 3.1594 17.6297 3.40315 17.3922C4.03284 16.7797 5.97502 16.6391 7.3219 16.5C8.66877 16.3609 9.2219 15.8953 9.47346 15.7297C10.1391 15.2922 9.89377 14.0531 10.6188 13.5016C11.7844 12.6141 14.45 12.7359 14.4313 12.6375C14.4125 12.5391 12.2219 12.0469 10.2141 12.8594C8.8719 13.4031 8.8969 14.5391 7.95315 14.8547C7.0094 15.1703 4.05002 14.6813 3.33284 15.3984Z" fill="#DCECF6"/>
<path d="M5.21718 15.8203C4.93437 15.9234 5.20156 16.2218 5.33281 16.2968C5.59531 16.4468 5.95 16.6047 5.95 16.6047C5.95 16.6047 5.20468 17.1703 5.41093 17.4656C5.5625 17.6828 6.96562 17.1437 6.96562 17.1437C6.97968 17.1437 7.83124 17.839 8.19374 17.8406C8.46406 17.8422 8.28125 16.8328 8.28125 16.8328C8.28125 16.8328 9.42031 16.5906 9.42031 16.2437C9.42031 15.9734 8.85468 16.0515 8.85468 16.0515C8.85468 16.0515 5.49999 15.7172 5.21718 15.8203Z" fill="#EE594A"/>
<path d="M7.63123 15.1266C7.33592 15.1 6.79217 15.711 6.79217 15.711C6.79217 15.711 5.19061 15.6016 5.16404 15.8719C5.13748 16.1422 6.01248 16.2578 6.01248 16.4109C6.01248 16.5641 5.30623 17.1297 5.37029 17.3094C5.43436 17.4891 6.8328 16.6797 6.93748 16.7188C7.04217 16.7578 8.10154 17.7813 8.29061 17.6063C8.45311 17.4563 8.28592 16.5766 8.28592 16.5766C8.28592 16.5766 9.36561 16.3203 9.35154 16.1266C9.33904 15.9344 7.99061 15.7922 7.99061 15.7922C7.99061 15.7922 7.91404 15.1516 7.63123 15.1266Z" fill="#F79228"/>
<path d="M9.62657 2.78591L8.88751 2.73279L9.64064 8.24216C9.64064 8.24216 10.3953 14.45 10.4469 14.8219C10.5125 15.2969 10.6297 15.55 11.0484 15.4859C11.4672 15.4219 11.425 15.0109 11.3984 14.6906C11.3719 14.3703 10.7016 8.54529 10.7016 8.54529L9.62657 2.78591Z" fill="#4EA4B0"/>
<path d="M9.02189 1.84998C9.02189 1.84998 5.4547 2.2406 3.15783 4.7906C1.3047 6.84842 1.00314 8.69685 1.13439 8.71717C1.3547 8.75154 1.91564 8.56404 2.52814 8.81873C3.14064 9.07342 3.49689 9.59998 3.70158 9.59998C3.90627 9.59998 4.65314 9.0906 5.70783 9.24373C6.76095 9.39685 7.47502 10.025 7.69689 10.025C7.91877 10.025 8.80158 9.36248 10.161 9.29373C11.4016 9.23123 12.2344 9.53123 12.4047 9.51404C12.575 9.49685 12.9063 8.44529 14.2156 8.05467C15.525 7.66404 15.9578 7.98435 16.1453 7.98435C16.3328 7.98435 16.4344 7.06717 17.3688 6.70935C18.3031 6.3531 18.661 6.50467 18.8641 6.47185C19.0672 6.43904 18.1156 4.16248 14.7422 2.62029C11.9531 1.34685 9.02189 1.84998 9.02189 1.84998Z" fill="#EE5948"/>
<path d="M9.18596 2.10779C9.18596 2.10779 6.86409 2.8031 5.24846 5.33591C3.92659 7.40779 3.90627 8.93904 3.99065 9.02341C4.07502 9.10779 4.85784 8.71716 5.8094 8.8031C6.76096 8.88748 7.56409 9.59529 7.61096 9.43279C7.67034 9.22654 7.65159 7.39841 7.86721 5.85935C8.26877 2.97966 9.20627 2.3531 9.20627 2.3531C9.20627 2.3531 10.4563 3.1906 11.4047 5.55466C12 7.03748 12.2953 8.56091 12.4188 8.75466C12.4735 8.8406 12.9875 8.0531 14.0563 7.70623C15.0453 7.38435 15.9094 7.63279 16.0281 7.5656C16.1469 7.49685 15.0375 5.0906 13.186 3.70623C11.0953 2.13904 9.18596 2.10779 9.18596 2.10779Z" fill="#FEFEFE"/>
<path d="M8.97498 0.610972C8.51873 0.673472 8.66404 1.34066 8.69842 1.73285C8.71404 1.90628 8.75154 2.57191 9.20935 2.53597C9.5906 2.50628 9.53748 1.99847 9.5031 1.62503C9.47029 1.25003 9.45467 0.545347 8.97498 0.610972Z" fill="#4EA4B0"/>
</svg>
