<svg width="20" height="20" viewBox="0 0 20 20" fill="none" xmlns="http://www.w3.org/2000/svg">
<g clip-path="url(#clip0_14_4714)">
<path d="M1.06539 15.5425H0.791763L0.183594 14.138L0.776517 13.8795L1.06539 15.5425Z" fill="#302F2A"/>
<path opacity="0.41" d="M0.776691 13.8804C0.775824 13.8804 0.774884 13.8805 0.774017 13.8805L0.213247 14.125C0.20436 14.1337 0.197351 14.1425 0.189331 14.1513L0.34215 14.5042C0.437454 14.5005 0.549305 14.4729 0.661661 14.4185C0.733699 14.3836 0.7962 14.3416 0.84909 14.2973L0.776691 13.8804Z" fill="#302F2A"/>
<path d="M0.909937 13.7858C0.849501 13.6611 0.599901 13.6573 0.35244 13.7772C0.104979 13.8972 -0.046635 14.0955 0.013801 14.2202C0.074237 14.3448 0.323837 14.3487 0.571298 14.2287C0.818759 14.1088 0.970373 13.9105 0.909937 13.7858Z" fill="#302F2A"/>
<path d="M4.04822 15.5425H16.0029L10.0257 4.64001L4.04822 15.5425Z" fill="#302F2A"/>
<path d="M16.5967 12.9949C14.9516 11.3488 13.4552 9.56074 12.1245 7.65148L10.0256 4.63989L7.92508 7.65314C6.59501 9.56124 5.09883 11.348 3.45416 12.9927L4.04817 15.5424H8.89726L10.0261 9.69737L11.1545 15.5424H16.0028L16.5967 12.9949Z" fill="#9EA647"/>
<path opacity="0.41" d="M10.0261 9.69739C10.0261 9.69739 9.19958 13.1192 6.85809 14.67L8.89727 15.5424" fill="#302F2A"/>
<path opacity="0.41" d="M10.0261 9.69739C10.0261 9.69739 10.8526 13.1192 13.1941 14.67L11.1549 15.5424" fill="#302F2A"/>
<path d="M0.40097 14.8514C0.325319 14.8514 0.281388 14.8439 0.268382 14.8411C0.169682 14.8208 0.10617 14.7243 0.126546 14.6256C0.146633 14.5279 0.241576 14.4649 0.339047 14.4831C0.358917 14.486 1.09794 14.5812 2.6244 13.4248C4.04897 12.3456 6.46272 9.92848 9.87156 4.54232C9.92553 4.4572 10.0381 4.43177 10.1233 4.48574C10.2084 4.53964 10.2338 4.65236 10.1799 4.73748C4.14702 14.2698 1.06246 14.8514 0.40097 14.8514Z" fill="#E0B75A"/>
<path d="M18.9341 15.5424H19.2078L19.816 14.1378L19.223 13.8794L18.9341 15.5424Z" fill="#302F2A"/>
<path opacity="0.41" d="M19.2229 13.8804C19.2237 13.8804 19.2246 13.8805 19.2255 13.8805L19.7862 14.125C19.7951 14.1337 19.8021 14.1425 19.8101 14.1513L19.6573 14.5042C19.562 14.5005 19.4501 14.4729 19.3378 14.4185C19.2659 14.3836 19.2034 14.3416 19.1504 14.2973L19.2229 13.8804Z" fill="#302F2A"/>
<path d="M19.0889 13.785C19.0285 13.9097 19.1801 14.108 19.4276 14.228C19.675 14.3479 19.9246 14.3441 19.9851 14.2194C20.0455 14.0947 19.8939 13.8964 19.6464 13.7765C19.399 13.6565 19.1494 13.6604 19.0889 13.785Z" fill="#302F2A"/>
<path d="M19.5986 14.8515C18.9374 14.8515 15.8529 14.2704 9.81963 4.73751C9.76573 4.65232 9.79109 4.53967 9.87621 4.48577C9.96132 4.43173 10.074 4.45723 10.1279 4.54235C13.5909 10.014 16.0305 12.4303 17.4674 13.4939C18.949 14.5906 19.6508 14.4851 19.6575 14.4838C19.7561 14.463 19.8527 14.527 19.873 14.6257C19.8933 14.7244 19.8298 14.8208 19.7311 14.8411C19.7182 14.8439 19.6742 14.8515 19.5986 14.8515Z" fill="#E0B75A"/>
<path opacity="0.41" d="M19.6479 13.7769C19.4005 13.657 19.1509 13.6608 19.0904 13.7854C19.0535 13.8616 19.0964 13.9652 19.1914 14.0617L19.1505 14.2973L19.1328 14.3992C18.0226 14.0602 15.1336 12.4197 10.206 4.6647C10.2154 4.59613 10.1856 4.52517 10.1232 4.48572C10.085 4.46152 10.0414 4.45415 9.9999 4.46007C9.9913 4.45884 9.98256 4.45856 9.97382 4.45848V15.5424H11.1545H16.0028L16.5448 13.2177C17.7143 14.2236 18.548 14.617 19.0692 14.7656L18.9342 15.5424H19.2079L19.5086 14.848C19.5422 14.8503 19.5726 14.8514 19.5987 14.8514C19.6743 14.8514 19.7183 14.8439 19.7313 14.8411C19.8287 14.8211 19.8904 14.7271 19.8721 14.6293C19.8542 14.5334 19.7627 14.4699 19.6668 14.4828L19.74 14.3137C19.8589 14.3201 19.9529 14.2896 19.9867 14.2198C20.047 14.0952 19.8954 13.8968 19.6479 13.7769Z" fill="#302F2A"/>
</g>
<defs>
<clipPath id="clip0_14_4714">
<rect width="20" height="20" fill="white"/>
</clipPath>
</defs>
</svg>
