<svg width="20" height="20" viewBox="0 0 20 20" fill="none" xmlns="http://www.w3.org/2000/svg">
<g clip-path="url(#clip0_14_4968)">
<path d="M12.5368 10.5522L10 5.11853L7.46318 10.5522L7.43697 10.6084L6.15436 13.3555C6.18987 13.3577 6.226 13.3591 6.2635 13.3591C7.61209 13.3591 7.61209 11.95 8.96072 11.95C10.3093 11.95 10.3094 13.3591 11.658 13.3591C12.5586 13.3591 12.8582 12.7311 13.3592 12.3135L12.5631 10.6084L12.5368 10.5522Z" fill="#FFF5C6"/>
<path d="M8.98209 7.29864L9.99998 5.11845L11.0179 7.29864C11.8378 6.91517 12.406 6.08337 12.406 5.11845C12.406 3.78967 11.3288 2.7124 9.99998 2.7124C8.67112 2.7124 7.59393 3.78959 7.59393 5.11845C7.59397 6.08341 8.16221 6.91517 8.98209 7.29864Z" fill="#FF932A"/>
<path d="M16.5918 19.2374L13.3592 12.3135C12.8581 12.731 12.5586 13.3591 11.658 13.3591C10.3093 13.3591 10.3093 11.95 8.96065 11.95C7.61206 11.95 7.61206 13.3591 6.26343 13.3591C6.22593 13.3591 6.1898 13.3576 6.15429 13.3555L3.4082 19.2374H16.5918Z" fill="#37B3CC"/>
<path d="M12.6723 14.3582L14.4532 18.1731L14.9922 17.9215L13.2113 14.1066L12.6723 14.3582Z" fill="white"/>
<path d="M3.85772 11.9751L0.467102 19.2374H3.40815L6.15428 13.3555C5.01373 13.2873 4.89014 12.1563 3.85772 11.9751Z" fill="#02DEAE"/>
<path d="M7.46311 10.5522L5.99257 7.40247L3.85773 11.9752C4.89019 12.1564 5.01374 13.2874 6.15436 13.3555L7.43698 10.6084L7.46311 10.5522Z" fill="#FFF5C6"/>
<path d="M13.3592 12.3135C13.6084 12.1058 13.9073 11.95 14.3554 11.95C15.6053 11.95 15.6976 13.1596 16.778 13.3368L14.0074 7.40247L12.5369 10.5522L12.5631 10.6084L13.3592 12.3135Z" fill="#FFF5C6"/>
<path d="M14.3553 11.95C13.9073 11.95 13.6084 12.1058 13.3591 12.3135L16.5918 19.2374H19.5328L16.778 13.3368C15.6976 13.1596 15.6053 11.95 14.3553 11.95Z" fill="#02DEAE"/>
<path d="M17.2859 13.7215L14.0074 6.69937L12.5369 9.84909L11.4061 7.42718C12.2027 6.94038 12.7035 6.06359 12.7035 5.11855C12.7035 3.62785 11.4907 2.41504 9.99998 2.41504C8.50928 2.41504 7.29647 3.62785 7.29647 5.11855C7.29647 6.06359 7.79725 6.94038 8.59385 7.42718L7.46311 9.84909L5.99257 6.69937L3.42394 12.2011L0 19.5349H2.94105H3.59757H6.25874V18.94H3.87534L5.40026 15.6738L6.34268 13.6552C6.34448 13.6551 6.34608 13.6549 6.34788 13.6549C6.39268 13.6531 6.43636 13.6502 6.47866 13.6459C6.47913 13.6458 6.47956 13.6458 6.4801 13.6457C6.52245 13.6413 6.56354 13.6356 6.60354 13.6287C6.6053 13.6284 6.6071 13.6282 6.60889 13.6279C6.64784 13.6211 6.68561 13.613 6.72241 13.6041C6.72522 13.6034 6.72811 13.6028 6.73092 13.6021C6.76671 13.5932 6.80135 13.5832 6.83522 13.5724C6.8387 13.5713 6.84229 13.5703 6.84577 13.5692C6.87882 13.5584 6.91085 13.5467 6.94217 13.5343C6.94608 13.5328 6.94999 13.5313 6.95378 13.5297C6.98448 13.5173 7.01424 13.5041 7.04342 13.4903C7.04749 13.4883 7.05155 13.4865 7.05561 13.4845C7.08424 13.4706 7.11213 13.456 7.13936 13.4408C7.14342 13.4385 7.14749 13.4363 7.15155 13.434C7.17842 13.4188 7.20463 13.4029 7.23026 13.3867C7.23424 13.3841 7.23819 13.3816 7.24217 13.379C7.26756 13.3626 7.29233 13.3457 7.31659 13.3284C7.32034 13.3257 7.32413 13.323 7.32788 13.3203C7.35198 13.3028 7.37557 13.2849 7.39862 13.2667C7.40213 13.264 7.40565 13.2612 7.40913 13.2584C7.43217 13.2399 7.45483 13.2212 7.47694 13.2022C7.4801 13.1995 7.48319 13.1968 7.48639 13.194C7.50866 13.1748 7.53049 13.1553 7.5519 13.1355C7.55471 13.1329 7.55745 13.1304 7.56022 13.1278C7.58178 13.1078 7.60311 13.0876 7.62397 13.0673C7.62627 13.0651 7.62854 13.0628 7.63085 13.0606C7.65202 13.0399 7.67291 13.0191 7.6935 12.9983C7.69538 12.9964 7.69717 12.9945 7.69905 12.9927C7.71999 12.9715 7.74069 12.9502 7.76112 12.929C7.76249 12.9276 7.76381 12.9262 7.76518 12.9248C7.786 12.9032 7.80663 12.8816 7.82709 12.8603C8.15471 12.5179 8.41354 12.2475 8.96076 12.2475C9.50807 12.2475 9.76686 12.5179 10.0946 12.8603C10.4518 13.2336 10.8567 13.6567 11.6581 13.6567C11.8584 13.6567 12.034 13.6302 12.1903 13.5847C12.6592 13.4482 12.9541 13.1403 13.2222 12.8603C13.2258 12.8566 13.2293 12.8529 13.2329 12.8491C13.2438 12.8378 13.2545 12.8267 13.2652 12.8154L16.1247 18.9401H7.05198V19.535H16.4024H17.059H20L17.2859 13.7215ZM16.138 12.6692C16.1361 12.6674 16.1343 12.6657 16.1325 12.6639C16.0993 12.6324 16.0665 12.5999 16.0334 12.5663C16.0307 12.5635 16.028 12.5608 16.0252 12.5579C15.9902 12.5222 15.9551 12.4856 15.9193 12.4483C15.5618 12.0753 15.1567 11.6525 14.3554 11.6525C14.3192 11.6525 14.2836 11.6537 14.2484 11.6554C14.2388 11.6559 14.2293 11.6565 14.2198 11.6571C14.1906 11.659 14.1617 11.6614 14.133 11.6645C14.1268 11.6652 14.1204 11.6656 14.1142 11.6664C14.0804 11.6705 14.047 11.6754 14.0141 11.6812C14.006 11.6826 13.998 11.6842 13.99 11.6857C13.9634 11.6907 13.9371 11.6963 13.9111 11.7025C13.9031 11.7044 13.895 11.7062 13.887 11.7082C13.8551 11.7163 13.8233 11.7252 13.792 11.7351C13.7866 11.7368 13.7813 11.7387 13.776 11.7405C13.7494 11.7492 13.7231 11.7586 13.697 11.7687C13.6886 11.7719 13.6801 11.7751 13.6718 11.7785C13.6418 11.7906 13.612 11.8033 13.5827 11.8171C13.5819 11.8175 13.5811 11.8178 13.5803 11.8182C13.5502 11.8324 13.5204 11.848 13.4909 11.8642C13.4874 11.8661 13.4838 11.8676 13.4803 11.8696L13.4654 11.8378L12.8652 10.5521L14.0076 8.10554L16.138 12.6692ZM7.89139 5.11855C7.89139 3.9559 8.83733 3.00996 9.99998 3.00996C11.1626 3.00996 12.1086 3.9559 12.1086 5.11855C12.1086 5.83327 11.7413 6.49796 11.1524 6.8839L9.99998 4.41543L8.84752 6.8839C8.25862 6.49796 7.89139 5.83327 7.89139 5.11855ZM5.99261 8.10557L7.13491 10.5522L6.57249 11.7568L5.97729 13.0316C5.96468 13.0288 5.95218 13.026 5.93991 13.0228C5.93194 13.0208 5.92378 13.019 5.91597 13.0168C5.89218 13.0102 5.86886 13.003 5.8462 12.9951C5.84585 12.9949 5.8455 12.9948 5.84515 12.9947C5.82276 12.9868 5.801 12.9781 5.77964 12.969C5.77241 12.966 5.76546 12.9626 5.75835 12.9594C5.74397 12.9528 5.72972 12.9463 5.71581 12.9392C5.70784 12.9352 5.70003 12.931 5.69218 12.9268C5.6794 12.92 5.66675 12.9131 5.65429 12.9058C5.6464 12.9012 5.63858 12.8965 5.63081 12.8919C5.61854 12.8844 5.60647 12.8766 5.59444 12.8687C5.5871 12.8639 5.57972 12.8591 5.57253 12.8542C5.55979 12.8454 5.54722 12.8363 5.53476 12.8272C5.5287 12.8228 5.52253 12.8185 5.51651 12.8139C5.4987 12.8004 5.48112 12.7865 5.46378 12.7723C5.46265 12.7714 5.46151 12.7704 5.46042 12.7695C5.44319 12.7553 5.42624 12.7407 5.40936 12.7258C5.40319 12.7204 5.39706 12.7147 5.39093 12.7092C5.37956 12.6989 5.36815 12.6886 5.35686 12.678C5.34987 12.6715 5.34296 12.6649 5.33601 12.6583C5.32554 12.6483 5.31507 12.6382 5.30464 12.628C5.29749 12.621 5.29042 12.614 5.28327 12.6069C5.27284 12.5966 5.26241 12.5861 5.25198 12.5756C5.24511 12.5686 5.23831 12.5618 5.23144 12.5547C5.22007 12.5431 5.20862 12.5314 5.19722 12.5196C5.19132 12.5135 5.18542 12.5074 5.17952 12.5013C5.16288 12.484 5.1462 12.4667 5.12936 12.4491C5.11315 12.4322 5.09679 12.4151 5.0803 12.398C5.07495 12.3925 5.06956 12.3869 5.06417 12.3813C5.05183 12.3686 5.03937 12.3558 5.02687 12.343C5.02073 12.3367 5.0146 12.3305 5.00843 12.3242C4.99448 12.3101 4.98038 12.296 4.96616 12.2818C4.96198 12.2777 4.95796 12.2736 4.95378 12.2694C4.93581 12.2517 4.91757 12.234 4.89909 12.2165C4.89398 12.2117 4.88878 12.2069 4.88362 12.202C4.86983 12.189 4.85585 12.1761 4.84171 12.1633C4.83503 12.1572 4.82835 12.1512 4.82163 12.1452C4.80769 12.1328 4.79351 12.1204 4.77921 12.1082C4.77312 12.103 4.76706 12.0978 4.76093 12.0926C4.74085 12.0757 4.72046 12.059 4.69964 12.0427C4.69569 12.0397 4.69167 12.0367 4.68773 12.0336C4.67042 12.0203 4.65296 12.0071 4.63511 11.9941C4.6278 11.9888 4.62034 11.9835 4.61292 11.9783C4.59741 11.9674 4.58171 11.9566 4.56573 11.946C4.55816 11.941 4.55062 11.936 4.54292 11.931C4.52249 11.9178 4.50167 11.905 4.48046 11.8925C4.47749 11.8907 4.47464 11.8889 4.47163 11.8871C4.44769 11.8732 4.42308 11.8599 4.39808 11.8469C4.39026 11.8428 4.38226 11.839 4.37437 11.8351C4.35616 11.826 4.33773 11.8172 4.31894 11.8087C4.30987 11.8045 4.30073 11.8005 4.29148 11.7964C4.28542 11.7938 4.27956 11.791 4.27343 11.7884L5.99261 8.10557ZM0.934256 18.94L4.02101 12.3285C4.02394 12.3296 4.02679 12.3309 4.02972 12.3321C4.05706 12.3431 4.08359 12.3551 4.10945 12.368C4.11421 12.3704 4.11905 12.3726 4.12378 12.3751C4.15124 12.3892 4.17788 12.4045 4.20394 12.4206C4.20944 12.424 4.21487 12.4276 4.2203 12.4311C4.24593 12.4475 4.27116 12.4646 4.29573 12.4827C4.29644 12.4832 4.29722 12.4837 4.29796 12.4842C4.32331 12.503 4.34796 12.5228 4.37249 12.5432C4.37769 12.5476 4.38292 12.5519 4.38808 12.5563C4.41167 12.5763 4.43503 12.597 4.45816 12.6183C4.46206 12.6219 4.46593 12.6257 4.46984 12.6293C4.49112 12.6492 4.5123 12.6696 4.53347 12.6904C4.5373 12.6942 4.54116 12.6979 4.54499 12.7017C4.56816 12.7248 4.59136 12.7483 4.61464 12.7723C4.6205 12.7783 4.6264 12.7844 4.63226 12.7904C4.65464 12.8136 4.67706 12.8369 4.69987 12.8607C4.71862 12.8803 4.73761 12.9 4.75667 12.9198C4.76179 12.9251 4.76698 12.9304 4.77214 12.9358C4.7871 12.9512 4.80218 12.9666 4.81737 12.9821C4.82366 12.9885 4.82999 12.9949 4.83636 13.0013C4.85194 13.017 4.86776 13.0327 4.8837 13.0484C4.88894 13.0535 4.89405 13.0587 4.89933 13.0638C4.92042 13.0843 4.94179 13.1047 4.96362 13.1249C4.96651 13.1276 4.96948 13.1302 4.97237 13.1329C4.99101 13.1501 5.00991 13.167 5.02917 13.1839C5.03601 13.1899 5.04292 13.1958 5.04983 13.2017C5.06605 13.2155 5.08253 13.2293 5.09921 13.2429C5.10667 13.2489 5.11409 13.255 5.12163 13.261C5.14069 13.2761 5.16015 13.291 5.17987 13.3056C5.18479 13.3092 5.1896 13.313 5.19456 13.3166C5.21921 13.3345 5.24444 13.352 5.27026 13.369C5.27659 13.3732 5.28319 13.3771 5.2896 13.3813C5.3094 13.394 5.32948 13.4064 5.35007 13.4185C5.35909 13.4238 5.36827 13.429 5.37749 13.4342C5.3969 13.4451 5.41671 13.4557 5.43686 13.466C5.44597 13.4707 5.45491 13.4754 5.46413 13.4799C5.49077 13.493 5.51804 13.5056 5.546 13.5175C5.54858 13.5186 5.55104 13.5198 5.55362 13.5209C5.58405 13.5336 5.61546 13.5454 5.64749 13.5567C5.6571 13.5601 5.66706 13.5631 5.67683 13.5663C5.69151 13.5712 5.70581 13.5763 5.72085 13.5808L5.69936 13.6268L3.21878 18.94H0.934256ZM11.6579 13.0617C11.1107 13.0617 10.8519 12.7913 10.5242 12.4489C10.1669 12.0756 9.76201 11.6525 8.96065 11.6525C8.73526 11.6525 8.54123 11.686 8.37084 11.7424C7.93534 11.8866 7.65393 12.1806 7.39717 12.4489C7.38749 12.459 7.37799 12.4689 7.36842 12.4789C7.36186 12.4858 7.3553 12.4926 7.34881 12.4994C7.34147 12.507 7.33421 12.5145 7.32694 12.522C7.31409 12.5354 7.30131 12.5485 7.28854 12.5615C7.28327 12.5669 7.27799 12.5723 7.27272 12.5776C7.25483 12.5958 7.23698 12.6137 7.21917 12.6312C7.21713 12.6332 7.21506 12.6351 7.21307 12.6371C7.19737 12.6524 7.18167 12.6674 7.16596 12.6822C7.16108 12.6868 7.1562 12.6913 7.15131 12.6958C7.13682 12.7091 7.12233 12.7222 7.10772 12.7351C7.10393 12.7384 7.10014 12.7419 7.09635 12.7451C7.07827 12.7608 7.06003 12.7761 7.04159 12.7909C7.03811 12.7937 7.03452 12.7963 7.031 12.7991C7.01592 12.811 7.00073 12.8226 6.98534 12.8338C6.97995 12.8377 6.97456 12.8416 6.96913 12.8455C6.95303 12.8569 6.93674 12.8679 6.92018 12.8786C6.91702 12.8807 6.91393 12.8829 6.91069 12.8848C6.89112 12.8972 6.8712 12.9089 6.85089 12.9201C6.84585 12.9229 6.84065 12.9255 6.83557 12.9283C6.81964 12.9367 6.80346 12.9449 6.78694 12.9527C6.78085 12.9556 6.77471 12.9585 6.76854 12.9612C6.74811 12.9704 6.72733 12.9792 6.70596 12.9872C6.70475 12.9876 6.70358 12.9882 6.70241 12.9887C6.68385 12.9956 6.66448 13.0015 6.64514 13.0076L7.79155 10.5523L7.79151 10.5522L9.12584 7.69425L10.0001 5.82163L10.8744 7.69425L12.2086 10.5522L12.2086 10.5523L12.9969 12.2406C12.9925 12.2449 12.9883 12.2492 12.9839 12.2535C12.9604 12.2765 12.9375 12.2996 12.9147 12.3228C12.905 12.3326 12.8951 12.3423 12.8856 12.3521C12.8542 12.3844 12.8231 12.4168 12.7924 12.4488C12.4645 12.7912 12.2055 13.0617 11.6579 13.0617ZM16.7812 18.94L15.3214 15.8134L13.7327 12.4106C13.7331 12.4104 13.7334 12.4102 13.7337 12.41C13.7545 12.3975 13.7755 12.386 13.7965 12.3751C13.8016 12.3724 13.8067 12.3698 13.8118 12.3673C13.832 12.3571 13.8524 12.3475 13.8729 12.3387C13.8741 12.3382 13.8752 12.3376 13.8763 12.3371C13.8979 12.3279 13.9198 12.3198 13.9418 12.3121C13.9471 12.3103 13.9524 12.3085 13.9577 12.3067C13.9792 12.2996 14.0009 12.293 14.0229 12.2872C14.0237 12.287 14.0245 12.2867 14.0253 12.2865C14.0481 12.2806 14.0713 12.2756 14.0948 12.271C14.1004 12.2699 14.1061 12.2689 14.1118 12.2679C14.135 12.2637 14.1584 12.2601 14.1824 12.2572C14.1829 12.2571 14.1834 12.2571 14.184 12.257C14.2083 12.2542 14.2333 12.2522 14.2586 12.2506C14.2649 12.2502 14.2712 12.2499 14.2775 12.2496C14.303 12.2483 14.3288 12.2475 14.3553 12.2475C14.9027 12.2475 15.1618 12.5178 15.4897 12.86C15.5075 12.8786 15.5256 12.8974 15.5437 12.9162C15.549 12.9217 15.5543 12.9272 15.5596 12.9326C15.5728 12.9463 15.5861 12.96 15.5995 12.9737C15.6065 12.9809 15.6136 12.988 15.6208 12.9951C15.6327 13.0072 15.6446 13.0192 15.6568 13.0312C15.6647 13.0391 15.6728 13.0469 15.6808 13.0548C15.6924 13.0662 15.7041 13.0775 15.7159 13.0887C15.7244 13.0969 15.7331 13.1049 15.7417 13.113C15.7534 13.1239 15.7652 13.1348 15.7771 13.1456C15.786 13.1538 15.7951 13.1619 15.8041 13.1699C15.8162 13.1806 15.8283 13.1912 15.8406 13.2017C15.85 13.2096 15.8593 13.2176 15.8688 13.2255C15.8813 13.2359 15.8941 13.2462 15.907 13.2564C15.9166 13.264 15.9261 13.2717 15.9359 13.2793C15.9494 13.2897 15.9633 13.2999 15.9772 13.3101C15.9867 13.317 15.9961 13.3241 16.0058 13.331C16.0214 13.342 16.0375 13.3528 16.0538 13.3635C16.0621 13.3691 16.0702 13.3748 16.0787 13.3803C16.1034 13.3961 16.1286 13.4115 16.1545 13.4264C16.1591 13.429 16.1638 13.4314 16.1684 13.4339C16.19 13.4461 16.212 13.4581 16.2345 13.4695C16.2444 13.4745 16.2548 13.4792 16.2649 13.4841C16.2825 13.4926 16.3002 13.5011 16.3184 13.5091C16.3302 13.5143 16.3424 13.5191 16.3545 13.5241C16.3717 13.5312 16.389 13.5383 16.4068 13.5449C16.4198 13.5497 16.4331 13.5542 16.4463 13.5588C16.4639 13.5648 16.4816 13.5708 16.4998 13.5763C16.5137 13.5806 16.5279 13.5847 16.5421 13.5886C16.5518 13.5913 16.5612 13.5945 16.5711 13.597L19.0656 18.9402H16.7812V18.94Z" fill="#002770"/>
<path d="M10.2973 0.465088H9.70239V1.82028H10.2973V0.465088Z" fill="#002770"/>
<path d="M7.94461 0.933204L8.46326 2.1853L9.01287 1.95764L8.49422 0.705543L7.94461 0.933204Z" fill="#002770"/>
<path d="M6.49941 2.03823L7.45764 2.99646L7.87828 2.57582L6.92005 1.61759L6.49941 2.03823Z" fill="#002770"/>
<path d="M5.58659 3.6127L6.83868 4.13135L7.06635 3.58174L5.81425 3.06309L5.58659 3.6127Z" fill="#002770"/>
<path d="M6.70175 4.82104H5.34656V5.41593H6.70175V4.82104Z" fill="#002770"/>
<path d="M14.6536 4.82104H13.2984V5.41593H14.6536V4.82104Z" fill="#002770"/>
<path d="M14.1854 3.06328L12.9333 3.58191L13.1609 4.13152L14.413 3.61289L14.1854 3.06328Z" fill="#002770"/>
<path d="M12.1223 2.57576L12.543 2.99634L13.5011 2.03797L13.0804 1.61739L12.1223 2.57576Z" fill="#002770"/>
<path d="M10.9874 1.95752L11.537 2.18518L12.0557 0.933082L11.5061 0.705421L10.9874 1.95752Z" fill="#002770"/>
</g>
<defs>
<clipPath id="clip0_14_4968">
<rect width="20" height="20" fill="white"/>
</clipPath>
</defs>
</svg>
