<svg width="88" height="89" viewBox="0 0 88 89" fill="none" xmlns="http://www.w3.org/2000/svg">
<path d="M74.5596 44.4484H28.394C36.0596 40.7188 47.0424 35.3734 54.6737 31.6609C55.6018 32.2797 56.2206 33.5 57.1831 33.6547C58.833 33.4828 57.9049 31.1797 57.8706 30.0969L69.2659 24.5625C70.9846 23.7375 71.6893 21.6578 70.8643 19.9391L67.7018 13.425C66.9284 11.7406 64.7284 10.9672 63.0784 11.8266L59.0737 13.7688C60.0534 10.7094 60.1049 9.1797 59.8987 8.42345C58.2143 6.51563 55.3784 4.6422 51.219 3.74845C48.0737 3.23282 44.1377 3.06095 41.9034 5.7422C38.6205 9.50626 35.6127 13.5453 32.8971 17.7391C29.9752 17.2578 26.933 18.7188 25.5237 21.3313C22.7565 21.0906 19.9721 20.9188 17.2049 20.8844C13.5784 21.1078 9.21274 20.0422 6.35961 22.8438C2.62992 26.1094 0.79086 32.8297 1.40961 36.4906C1.4268 36.7313 1.5643 36.9547 1.75336 37.1266V37.1438C1.89086 37.2469 3.60961 38.6047 6.22211 39.4813L2.2518 41.4063C0.533047 42.2484 -0.188828 44.3281 0.636172 46.0469L3.79867 52.5609C4.5893 54.2453 6.7893 55.0016 8.4393 54.1422L14.0424 51.4094V83.1719C14.0424 86.0766 16.3971 88.4484 19.3018 88.4484H70.2456C73.1502 88.4484 75.5221 86.0938 75.5221 83.1719V45.4109C75.5221 44.8781 75.1096 44.4484 74.5596 44.4484ZM28.9612 42.0594L25.6955 35.3563C26.5377 33.7406 27.6034 32.2453 28.8409 30.9047C29.133 30.9563 29.408 30.9734 29.7002 30.9563C32.8455 30.6813 35.7502 29.3063 37.8815 26.9516C37.8987 26.9516 37.8987 26.9344 37.8987 26.9344C38.0877 26.7281 38.2252 26.5047 38.3627 26.2641C40.1846 26.0922 42.0065 26.2125 43.8112 26.5219L47.0768 33.225L28.9612 42.0594ZM27.2424 42.8844L23.0487 44.9297C23.169 42.4031 23.6846 39.9109 24.6471 37.5563L27.2424 42.8844ZM48.7955 32.4L46.2174 27.0891C48.6237 27.7422 51.1159 29.0141 52.9893 30.3547L48.7955 32.4ZM54.9487 27.0031C55.3955 28.0516 55.7049 29.1344 55.9455 30.2516C51.2018 26.1609 44.9112 23.9266 38.6549 24.3219C38.6205 24.1672 38.5862 24.0125 38.5346 23.875C39.6174 22.5688 40.7518 21.2969 41.9893 20.1453C48.4346 18.6672 55.344 20.2828 60.569 24.1844C59.0221 24.8719 57.3034 25.3875 55.6705 25.6797C55.3784 25.7141 55.1549 25.9203 54.983 26.1609C54.8627 26.4359 54.8456 26.7281 54.9487 27.0031ZM63.9034 13.5453C64.6424 13.15 65.6221 13.5109 65.983 14.25L69.1455 20.7641C69.5237 21.5375 69.1971 22.4656 68.4237 22.8438L57.4237 28.1891C57.3377 27.8969 57.2346 27.6219 57.1315 27.3125C59.0909 26.8656 61.033 26.1438 62.8034 25.2328C63.3877 24.9406 63.4909 24.0641 62.9752 23.6516C60.7924 21.8125 58.1799 20.2656 55.4471 19.2344C56.3237 18.4266 57.0971 17.5156 57.7159 16.5531C57.733 16.5531 63.9034 13.5453 63.9034 13.5453ZM55.9799 15.6938C55.258 16.8109 54.3299 17.8078 53.2127 18.5469C50.4627 17.7563 47.4549 17.55 44.6018 17.825C48.5034 14.6453 52.9721 12.1016 57.9565 10.2453C57.7674 11.5859 57.2862 13.7172 55.9799 15.6938ZM39.2049 12.0844C40.5284 10.3484 41.9205 8.64688 43.3471 6.99688C44.0518 6.17188 45.0659 5.63907 46.1659 5.50157C49.844 4.84845 54.7424 6.41251 57.1831 8.47501C49.3456 11.4141 42.7799 15.9344 37.5205 22.1219C36.6612 20.8672 35.6987 19.6984 34.633 18.5984C36.0596 16.3813 37.5893 14.1813 39.2049 12.0844ZM27.208 22.225C28.2737 20.3516 30.4221 19.3203 32.5534 19.6297C33.533 19.8359 34.0487 20.9531 34.719 21.6063C35.4237 22.6375 36.5065 23.6172 36.7815 24.8375C36.7815 25.6109 36.0424 26.075 35.544 26.5563C33.7909 28.0172 31.3159 29.2031 29.0127 28.9797C28.7034 28.8594 28.4284 28.6016 28.308 28.2578C27.9471 27.2438 27.6549 26.1953 27.4143 25.1641C27.294 24.1844 26.7612 23.1359 27.208 22.225ZM26.8471 29.5469C26.933 29.6844 27.0362 29.8047 27.1393 29.925C25.7815 31.4031 24.6987 33.1219 23.7534 34.875C21.8112 38.6391 20.969 42.9531 21.1237 47.1813C20.3846 46.3047 19.7315 45.3938 19.1815 44.3969C19.1815 44.3969 19.1815 44.3969 19.1815 44.3797C18.8721 43.8813 18.1502 43.7094 17.7034 44.1391C16.4315 45.2563 15.0049 46.2875 13.5096 47.0781C13.6643 40.5125 16.6549 34.1359 21.8112 29.9594C23.4612 29.6844 25.1455 29.5984 26.8471 29.5469ZM4.89867 27.9828C6.13617 25.8172 7.83774 23.05 10.6049 22.9125C15.4346 22.6719 20.2987 22.775 25.1112 23.2219C25.3174 24.7344 25.644 26.1953 26.0909 27.6563C17.9955 27.9656 10.3815 30.3719 3.23148 34.7031C3.26586 32.8125 3.64398 30.4406 4.89867 27.9828ZM4.14242 36.4219C8.67992 33.6547 13.4409 31.6953 18.3565 30.5953C16.3627 32.675 14.7127 35.1844 13.5955 37.8141C10.708 38.9656 6.11899 37.7453 4.14242 36.4219ZM7.63148 52.4235C6.87524 52.8016 5.89555 52.4922 5.53461 51.7188L2.37211 45.2047C1.99398 44.4313 2.32055 43.5031 3.11117 43.125L9.2643 40.1344C10.433 40.2547 11.6362 40.2031 12.7877 39.9969C11.808 43.1938 11.533 45.7547 11.619 48.6594C11.619 49.3125 12.3752 49.7938 12.9596 49.4844C14.7815 48.6766 16.5518 47.5594 18.0987 46.3219C18.2705 46.5797 18.4424 46.8203 18.6143 47.0781L7.63148 52.4235ZM37.9159 86.5235H19.319C17.4799 86.5235 15.9674 85.0281 15.9674 83.1719V50.4984L19.8346 48.625C20.5221 49.2953 21.1409 50.1203 22.0002 50.5844C22.258 50.6703 22.533 50.6359 22.7737 50.5156C23.1174 50.3266 23.3065 49.9484 23.2549 49.5531C23.1346 48.7109 23.0659 47.8859 23.0315 47.0609L24.458 46.3563H37.9159V86.5235ZM49.7409 86.5235H39.8237V46.3734H49.7409V86.5235ZM73.6143 83.1719C73.6143 85.0281 72.119 86.5235 70.2627 86.5235H51.6487V46.3734H73.5971V83.1719H73.6143Z" fill="#3870FF" fill-opacity="0.45"/>
<path d="M18.5966 47.0782L7.61381 52.4235C7.23569 52.6125 6.806 52.6297 6.41069 52.4922C6.01537 52.3547 5.706 52.0797 5.51694 51.7016L2.35444 45.1875C1.97631 44.4141 2.30287 43.486 3.0935 43.1079L9.24662 40.1172C10.4154 40.2375 11.6185 40.186 12.7701 39.9797C11.7904 43.1766 11.5154 45.7375 11.6013 48.6422C11.6013 49.2954 12.3576 49.7766 12.9419 49.4672C14.7638 48.6594 16.5341 47.5422 18.081 46.3047C18.2701 46.5797 18.4419 46.8204 18.5966 47.0782Z" fill="#3770FF" fill-opacity="0.16"/>
<path d="M27.2426 42.8844L23.0488 44.9297C23.1691 42.4031 23.6848 39.911 24.6473 37.5563L27.2426 42.8844Z" fill="#3770FF" fill-opacity="0.16"/>
<path d="M52.9725 30.3547L48.7959 32.4001L46.2178 27.0891C48.624 27.7422 51.099 29.0141 52.9725 30.3547Z" fill="#3770FF" fill-opacity="0.16"/>
<path d="M68.4238 22.8437L57.4238 28.1891C57.3379 27.8969 57.2348 27.6219 57.1316 27.3125C59.091 26.8656 61.0332 26.1437 62.8035 25.2328C63.3879 24.9406 63.491 24.0641 62.9754 23.6516C60.7926 21.8125 58.1801 20.2656 55.4473 19.2344C56.3238 18.4266 57.0973 17.5156 57.716 16.5531L63.8863 13.5453C64.6254 13.15 65.6051 13.5109 65.966 14.25L69.1285 20.7641C69.5238 21.5375 69.1973 22.4828 68.4238 22.8437Z" fill="#3770FF" fill-opacity="0.16"/>
<path d="M37.9162 46.3734V86.5406H19.3193C17.4803 86.5406 15.9678 85.0453 15.9678 83.189V50.4984L19.835 48.625C20.5225 49.2953 21.1412 50.1203 22.0006 50.5843C22.2584 50.6703 22.5334 50.6359 22.774 50.5156C23.1178 50.3265 23.3068 49.9484 23.2553 49.5531C23.135 48.7109 23.0662 47.8859 23.0318 47.0609L24.4584 46.3562H37.9162V46.3734Z" fill="#3770FF" fill-opacity="0.16"/>
<path d="M73.6141 46.3735V83.172C73.6141 85.0282 72.1187 86.5235 70.2625 86.5235H51.6484V46.3735H73.6141Z" fill="#3770FF" fill-opacity="0.16"/>
<path d="M83.4283 14.2845C83.7892 16.0892 86.1783 27.347 78.2377 27.4673C72.1533 27.8454 67.8908 32.6751 67.0658 39.6188C66.8939 40.8563 68.7674 41.1485 68.9564 39.8938C69.5408 35.872 71.0017 32.9501 73.3049 31.2142C76.8799 28.3782 80.7986 30.5095 83.8924 26.9345C87.3471 22.7063 85.3533 14.2157 85.2674 13.8548C84.9924 12.6345 83.1533 13.0642 83.4283 14.2845Z" fill="#3870FF" fill-opacity="0.45"/>
<path d="M86.7631 40.4782C84.7693 40.4782 83.1365 38.8454 83.1365 36.8517C83.1365 35.597 81.2287 35.597 81.2287 36.8517C81.2287 38.8454 79.5959 40.4782 77.6021 40.4782C76.3475 40.4782 76.3475 42.386 77.6021 42.386C79.5959 42.386 81.2287 44.0188 81.2287 46.0126C81.2287 47.2673 83.1365 47.2673 83.1365 46.0126C83.1365 44.0188 84.7693 42.386 86.7631 42.386C88.0178 42.386 88.0178 40.4782 86.7631 40.4782ZM82.1912 42.9017C81.7959 42.3173 81.2975 41.8188 80.7131 41.4235C81.2975 41.0282 81.7959 40.5298 82.1912 39.9454C82.5865 40.5298 83.085 41.0282 83.6693 41.4235C83.085 41.8188 82.5865 42.3173 82.1912 42.9017Z" fill="#3870FF" fill-opacity="0.45"/>
<path d="M73.5623 10.6579C73.5623 8.66411 75.1951 7.0313 77.1889 7.0313C78.4436 7.0313 78.4436 5.12349 77.1889 5.12349C75.1951 5.12349 73.5623 3.49067 73.5623 1.49692C73.5623 0.242236 71.6545 0.242236 71.6545 1.49692C71.6545 3.49067 70.0217 5.12349 68.0279 5.12349C66.7732 5.12349 66.7732 7.0313 68.0279 7.0313C70.0217 7.0313 71.6545 8.66411 71.6545 10.6579C71.6545 11.9125 73.5623 11.9125 73.5623 10.6579ZM71.1389 6.08599C71.7232 5.69067 72.2217 5.19224 72.617 4.60786C73.0123 5.19224 73.5107 5.69067 74.0951 6.08599C73.5107 6.4813 73.0123 6.97974 72.617 7.56411C72.2217 6.97974 71.7232 6.4813 71.1389 6.08599Z" fill="#3870FF" fill-opacity="0.45"/>
</svg>
