<svg width="222" height="222" viewBox="0 0 222 222" fill="none" xmlns="http://www.w3.org/2000/svg">
<path d="M8.44096 0.848022H0.848633V8.44035H8.44096V0.848022Z" fill="black"/>
<path d="M16.0333 0.848022H8.44096V8.44035H16.0333V0.848022Z" fill="black"/>
<path d="M23.6256 0.848022H16.0333V8.44035H23.6256V0.848022Z" fill="black"/>
<path d="M31.218 0.848022H23.6256V8.44035H31.218V0.848022Z" fill="black"/>
<path d="M38.8103 0.848022H31.218V8.44035H38.8103V0.848022Z" fill="black"/>
<path d="M46.4026 0.848022H38.8103V8.44035H46.4026V0.848022Z" fill="black"/>
<path d="M53.995 0.848022H46.4026V8.44035H53.995V0.848022Z" fill="black"/>
<path d="M69.1796 0.848022H61.5873V8.44035H69.1796V0.848022Z" fill="black"/>
<path d="M84.3643 0.848022H76.772V8.44035H84.3643V0.848022Z" fill="black"/>
<path d="M122.326 0.848022H114.734V8.44035H122.326V0.848022Z" fill="black"/>
<path d="M129.918 0.848022H122.326V8.44035H129.918V0.848022Z" fill="black"/>
<path d="M145.103 0.848022H137.511V8.44035H145.103V0.848022Z" fill="black"/>
<path d="M160.288 0.848022H152.695V8.44035H160.288V0.848022Z" fill="black"/>
<path d="M175.472 0.848022H167.88V8.44035H175.472V0.848022Z" fill="black"/>
<path d="M183.065 0.848022H175.472V8.44035H183.065V0.848022Z" fill="black"/>
<path d="M190.657 0.848022H183.065V8.44035H190.657V0.848022Z" fill="black"/>
<path d="M198.249 0.848022H190.657V8.44035H198.249V0.848022Z" fill="black"/>
<path d="M205.842 0.848022H198.249V8.44035H205.842V0.848022Z" fill="black"/>
<path d="M213.434 0.848022H205.842V8.44035H213.434V0.848022Z" fill="black"/>
<path d="M221.026 0.848022H213.434V8.44035H221.026V0.848022Z" fill="black"/>
<path d="M8.44096 8.44035H0.848633V16.0327H8.44096V8.44035Z" fill="black"/>
<path d="M53.995 8.44035H46.4026V16.0327H53.995V8.44035Z" fill="black"/>
<path d="M76.772 8.44035H69.1796V16.0327H76.772V8.44035Z" fill="black"/>
<path d="M84.3643 8.44035H76.772V16.0327H84.3643V8.44035Z" fill="black"/>
<path d="M91.9566 8.44035H84.3643V16.0327H91.9566V8.44035Z" fill="black"/>
<path d="M99.549 8.44035H91.9566V16.0327H99.549V8.44035Z" fill="black"/>
<path d="M114.734 8.44035H107.141V16.0327H114.734V8.44035Z" fill="black"/>
<path d="M122.326 8.44035H114.734V16.0327H122.326V8.44035Z" fill="black"/>
<path d="M175.472 8.44035H167.88V16.0327H175.472V8.44035Z" fill="black"/>
<path d="M221.026 8.44035H213.434V16.0327H221.026V8.44035Z" fill="black"/>
<path d="M8.44096 16.0327H0.848633V23.625H8.44096V16.0327Z" fill="black"/>
<path d="M23.6256 16.0327H16.0333V23.625H23.6256V16.0327Z" fill="black"/>
<path d="M31.218 16.0327H23.6256V23.625H31.218V16.0327Z" fill="black"/>
<path d="M38.8103 16.0327H31.218V23.625H38.8103V16.0327Z" fill="black"/>
<path d="M53.995 16.0327H46.4026V23.625H53.995V16.0327Z" fill="black"/>
<path d="M84.3643 16.0327H76.772V23.625H84.3643V16.0327Z" fill="black"/>
<path d="M91.9566 16.0327H84.3643V23.625H91.9566V16.0327Z" fill="black"/>
<path d="M99.549 16.0327H91.9566V23.625H99.549V16.0327Z" fill="black"/>
<path d="M107.141 16.0327H99.549V23.625H107.141V16.0327Z" fill="black"/>
<path d="M122.326 16.0327H114.734V23.625H122.326V16.0327Z" fill="black"/>
<path d="M129.918 16.0327H122.326V23.625H129.918V16.0327Z" fill="black"/>
<path d="M152.695 16.0327H145.103V23.625H152.695V16.0327Z" fill="black"/>
<path d="M160.288 16.0327H152.695V23.625H160.288V16.0327Z" fill="black"/>
<path d="M175.472 16.0327H167.88V23.625H175.472V16.0327Z" fill="black"/>
<path d="M190.657 16.0327H183.065V23.625H190.657V16.0327Z" fill="black"/>
<path d="M198.249 16.0327H190.657V23.625H198.249V16.0327Z" fill="black"/>
<path d="M205.842 16.0327H198.249V23.625H205.842V16.0327Z" fill="black"/>
<path d="M221.026 16.0327H213.434V23.625H221.026V16.0327Z" fill="black"/>
<path d="M8.44096 23.625H0.848633V31.2174H8.44096V23.625Z" fill="black"/>
<path d="M23.6256 23.625H16.0333V31.2174H23.6256V23.625Z" fill="black"/>
<path d="M31.218 23.625H23.6256V31.2174H31.218V23.625Z" fill="black"/>
<path d="M38.8103 23.625H31.218V31.2174H38.8103V23.625Z" fill="black"/>
<path d="M53.995 23.625H46.4026V31.2174H53.995V23.625Z" fill="black"/>
<path d="M69.1796 23.625H61.5873V31.2174H69.1796V23.625Z" fill="black"/>
<path d="M76.772 23.625H69.1796V31.2174H76.772V23.625Z" fill="black"/>
<path d="M84.3643 23.625H76.772V31.2174H84.3643V23.625Z" fill="black"/>
<path d="M91.9566 23.625H84.3643V31.2174H91.9566V23.625Z" fill="black"/>
<path d="M107.141 23.625H99.549V31.2174H107.141V23.625Z" fill="black"/>
<path d="M129.918 23.625H122.326V31.2174H129.918V23.625Z" fill="black"/>
<path d="M152.695 23.625H145.103V31.2174H152.695V23.625Z" fill="black"/>
<path d="M175.472 23.625H167.88V31.2174H175.472V23.625Z" fill="black"/>
<path d="M190.657 23.625H183.065V31.2174H190.657V23.625Z" fill="black"/>
<path d="M198.249 23.625H190.657V31.2174H198.249V23.625Z" fill="black"/>
<path d="M205.842 23.625H198.249V31.2174H205.842V23.625Z" fill="black"/>
<path d="M221.026 23.625H213.434V31.2174H221.026V23.625Z" fill="black"/>
<path d="M8.44096 31.2174H0.848633V38.8097H8.44096V31.2174Z" fill="black"/>
<path d="M23.6256 31.2174H16.0333V38.8097H23.6256V31.2174Z" fill="black"/>
<path d="M31.218 31.2174H23.6256V38.8097H31.218V31.2174Z" fill="black"/>
<path d="M38.8103 31.2174H31.218V38.8097H38.8103V31.2174Z" fill="black"/>
<path d="M53.995 31.2174H46.4026V38.8097H53.995V31.2174Z" fill="black"/>
<path d="M107.141 31.2174H99.549V38.8097H107.141V31.2174Z" fill="black"/>
<path d="M114.734 31.2174H107.141V38.8097H114.734V31.2174Z" fill="black"/>
<path d="M122.326 31.2174H114.734V38.8097H122.326V31.2174Z" fill="black"/>
<path d="M137.511 31.2174H129.918V38.8097H137.511V31.2174Z" fill="black"/>
<path d="M175.472 31.2174H167.88V38.8097H175.472V31.2174Z" fill="black"/>
<path d="M190.657 31.2174H183.065V38.8097H190.657V31.2174Z" fill="black"/>
<path d="M198.249 31.2174H190.657V38.8097H198.249V31.2174Z" fill="black"/>
<path d="M205.842 31.2174H198.249V38.8097H205.842V31.2174Z" fill="black"/>
<path d="M221.026 31.2174H213.434V38.8097H221.026V31.2174Z" fill="black"/>
<path d="M8.44096 38.8097H0.848633V46.402H8.44096V38.8097Z" fill="black"/>
<path d="M53.995 38.8097H46.4026V46.402H53.995V38.8097Z" fill="black"/>
<path d="M69.1796 38.8097H61.5873V46.402H69.1796V38.8097Z" fill="black"/>
<path d="M76.772 38.8097H69.1796V46.402H76.772V38.8097Z" fill="black"/>
<path d="M84.3643 38.8097H76.772V46.402H84.3643V38.8097Z" fill="black"/>
<path d="M91.9566 38.8097H84.3643V46.402H91.9566V38.8097Z" fill="black"/>
<path d="M99.549 38.8097H91.9566V46.402H99.549V38.8097Z" fill="black"/>
<path d="M107.141 38.8097H99.549V46.402H107.141V38.8097Z" fill="black"/>
<path d="M122.326 38.8097H114.734V46.402H122.326V38.8097Z" fill="black"/>
<path d="M129.918 38.8097H122.326V46.402H129.918V38.8097Z" fill="black"/>
<path d="M175.472 38.8097H167.88V46.402H175.472V38.8097Z" fill="black"/>
<path d="M221.026 38.8097H213.434V46.402H221.026V38.8097Z" fill="black"/>
<path d="M8.44096 46.402H0.848633V53.9943H8.44096V46.402Z" fill="black"/>
<path d="M16.0333 46.402H8.44096V53.9943H16.0333V46.402Z" fill="black"/>
<path d="M23.6256 46.402H16.0333V53.9943H23.6256V46.402Z" fill="black"/>
<path d="M31.218 46.402H23.6256V53.9943H31.218V46.402Z" fill="black"/>
<path d="M38.8103 46.402H31.218V53.9943H38.8103V46.402Z" fill="black"/>
<path d="M46.4026 46.402H38.8103V53.9943H46.4026V46.402Z" fill="black"/>
<path d="M53.995 46.402H46.4026V53.9943H53.995V46.402Z" fill="black"/>
<path d="M69.1796 46.402H61.5873V53.9943H69.1796V46.402Z" fill="black"/>
<path d="M84.3643 46.402H76.772V53.9943H84.3643V46.402Z" fill="black"/>
<path d="M99.549 46.402H91.9566V53.9943H99.549V46.402Z" fill="black"/>
<path d="M114.734 46.402H107.141V53.9943H114.734V46.402Z" fill="black"/>
<path d="M129.918 46.402H122.326V53.9943H129.918V46.402Z" fill="black"/>
<path d="M145.103 46.402H137.511V53.9943H145.103V46.402Z" fill="black"/>
<path d="M160.288 46.402H152.695V53.9943H160.288V46.402Z" fill="black"/>
<path d="M175.472 46.402H167.88V53.9943H175.472V46.402Z" fill="black"/>
<path d="M183.065 46.402H175.472V53.9943H183.065V46.402Z" fill="black"/>
<path d="M190.657 46.402H183.065V53.9943H190.657V46.402Z" fill="black"/>
<path d="M198.249 46.402H190.657V53.9943H198.249V46.402Z" fill="black"/>
<path d="M205.842 46.402H198.249V53.9943H205.842V46.402Z" fill="black"/>
<path d="M213.434 46.402H205.842V53.9943H213.434V46.402Z" fill="black"/>
<path d="M221.026 46.402H213.434V53.9943H221.026V46.402Z" fill="black"/>
<path d="M76.772 53.9943H69.1796V61.5867H76.772V53.9943Z" fill="black"/>
<path d="M114.734 53.9943H107.141V61.5867H114.734V53.9943Z" fill="black"/>
<path d="M137.511 53.9943H129.918V61.5867H137.511V53.9943Z" fill="black"/>
<path d="M145.103 53.9943H137.511V61.5867H145.103V53.9943Z" fill="black"/>
<path d="M152.695 53.9943H145.103V61.5867H152.695V53.9943Z" fill="black"/>
<path d="M160.288 53.9943H152.695V61.5867H160.288V53.9943Z" fill="black"/>
<path d="M46.4026 61.5867H38.8103V69.179H46.4026V61.5867Z" fill="black"/>
<path d="M53.995 61.5867H46.4026V69.179H53.995V61.5867Z" fill="black"/>
<path d="M69.1796 61.5867H61.5873V69.179H69.1796V61.5867Z" fill="black"/>
<path d="M76.772 61.5867H69.1796V69.179H76.772V61.5867Z" fill="black"/>
<path d="M91.9566 61.5867H84.3643V69.179H91.9566V61.5867Z" fill="black"/>
<path d="M99.549 61.5867H91.9566V69.179H99.549V61.5867Z" fill="black"/>
<path d="M114.734 61.5867H107.141V69.179H114.734V61.5867Z" fill="black"/>
<path d="M122.326 61.5867H114.734V69.179H122.326V61.5867Z" fill="black"/>
<path d="M129.918 61.5867H122.326V69.179H129.918V61.5867Z" fill="black"/>
<path d="M137.511 61.5867H129.918V69.179H137.511V61.5867Z" fill="black"/>
<path d="M167.88 61.5867H160.288V69.179H167.88V61.5867Z" fill="black"/>
<path d="M183.065 61.5867H175.472V69.179H183.065V61.5867Z" fill="black"/>
<path d="M198.249 61.5867H190.657V69.179H198.249V61.5867Z" fill="black"/>
<path d="M221.026 61.5867H213.434V69.179H221.026V61.5867Z" fill="black"/>
<path d="M8.44096 69.179H0.848633V76.7713H8.44096V69.179Z" fill="black"/>
<path d="M31.218 69.179H23.6256V76.7713H31.218V69.179Z" fill="black"/>
<path d="M61.5873 69.179H53.995V76.7713H61.5873V69.179Z" fill="black"/>
<path d="M69.1796 69.179H61.5873V76.7713H69.1796V69.179Z" fill="black"/>
<path d="M76.772 69.179H69.1796V76.7713H76.772V69.179Z" fill="black"/>
<path d="M122.326 69.179H114.734V76.7713H122.326V69.179Z" fill="black"/>
<path d="M137.511 69.179H129.918V76.7713H137.511V69.179Z" fill="black"/>
<path d="M152.695 69.179H145.103V76.7713H152.695V69.179Z" fill="black"/>
<path d="M167.88 69.179H160.288V76.7713H167.88V69.179Z" fill="black"/>
<path d="M8.44096 76.7713H0.848633V84.3637H8.44096V76.7713Z" fill="black"/>
<path d="M31.218 76.7713H23.6256V84.3637H31.218V76.7713Z" fill="black"/>
<path d="M38.8103 76.7713H31.218V84.3637H38.8103V76.7713Z" fill="black"/>
<path d="M53.995 76.7713H46.4026V84.3637H53.995V76.7713Z" fill="black"/>
<path d="M61.5873 76.7713H53.995V84.3637H61.5873V76.7713Z" fill="black"/>
<path d="M69.1796 76.7713H61.5873V84.3637H69.1796V76.7713Z" fill="black"/>
<path d="M84.3643 76.7713H76.772V84.3637H84.3643V76.7713Z" fill="black"/>
<path d="M99.549 76.7713H91.9566V84.3637H99.549V76.7713Z" fill="black"/>
<path d="M122.326 76.7713H114.734V84.3637H122.326V76.7713Z" fill="black"/>
<path d="M145.103 76.7713H137.511V84.3637H145.103V76.7713Z" fill="black"/>
<path d="M160.288 76.7713H152.695V84.3637H160.288V76.7713Z" fill="black"/>
<path d="M175.472 76.7713H167.88V84.3637H175.472V76.7713Z" fill="black"/>
<path d="M190.657 76.7713H183.065V84.3637H190.657V76.7713Z" fill="black"/>
<path d="M205.842 76.7713H198.249V84.3637H205.842V76.7713Z" fill="black"/>
<path d="M221.026 76.7713H213.434V84.3637H221.026V76.7713Z" fill="black"/>
<path d="M46.4026 84.3637H38.8103V91.956H46.4026V84.3637Z" fill="black"/>
<path d="M84.3643 84.3637H76.772V91.956H84.3643V84.3637Z" fill="black"/>
<path d="M107.141 84.3637H99.549V91.956H107.141V84.3637Z" fill="black"/>
<path d="M114.734 84.3637H107.141V91.956H114.734V84.3637Z" fill="black"/>
<path d="M129.918 84.3637H122.326V91.956H129.918V84.3637Z" fill="black"/>
<path d="M145.103 84.3637H137.511V91.956H145.103V84.3637Z" fill="black"/>
<path d="M152.695 84.3637H145.103V91.956H152.695V84.3637Z" fill="black"/>
<path d="M160.288 84.3637H152.695V91.956H160.288V84.3637Z" fill="black"/>
<path d="M167.88 84.3637H160.288V91.956H167.88V84.3637Z" fill="black"/>
<path d="M183.065 84.3637H175.472V91.956H183.065V84.3637Z" fill="black"/>
<path d="M190.657 84.3637H183.065V91.956H190.657V84.3637Z" fill="black"/>
<path d="M23.6256 91.956H16.0333V99.5483H23.6256V91.956Z" fill="black"/>
<path d="M53.995 91.956H46.4026V99.5483H53.995V91.956Z" fill="black"/>
<path d="M69.1796 91.956H61.5873V99.5483H69.1796V91.956Z" fill="black"/>
<path d="M76.772 91.956H69.1796V99.5483H76.772V91.956Z" fill="black"/>
<path d="M84.3643 91.956H76.772V99.5483H84.3643V91.956Z" fill="black"/>
<path d="M91.9566 91.956H84.3643V99.5483H91.9566V91.956Z" fill="black"/>
<path d="M99.549 91.956H91.9566V99.5483H99.549V91.956Z" fill="black"/>
<path d="M114.734 91.956H107.141V99.5483H114.734V91.956Z" fill="black"/>
<path d="M122.326 91.956H114.734V99.5483H122.326V91.956Z" fill="black"/>
<path d="M145.103 91.956H137.511V99.5483H145.103V91.956Z" fill="black"/>
<path d="M152.695 91.956H145.103V99.5483H152.695V91.956Z" fill="black"/>
<path d="M175.472 91.956H167.88V99.5483H175.472V91.956Z" fill="black"/>
<path d="M190.657 91.956H183.065V99.5483H190.657V91.956Z" fill="black"/>
<path d="M205.842 91.956H198.249V99.5483H205.842V91.956Z" fill="black"/>
<path d="M221.026 91.956H213.434V99.5483H221.026V91.956Z" fill="black"/>
<path d="M8.44096 99.5483H0.848633V107.141H8.44096V99.5483Z" fill="black"/>
<path d="M16.0333 99.5483H8.44096V107.141H16.0333V99.5483Z" fill="black"/>
<path d="M23.6256 99.5483H16.0333V107.141H23.6256V99.5483Z" fill="black"/>
<path d="M31.218 99.5483H23.6256V107.141H31.218V99.5483Z" fill="black"/>
<path d="M38.8103 99.5483H31.218V107.141H38.8103V99.5483Z" fill="black"/>
<path d="M46.4026 99.5483H38.8103V107.141H46.4026V99.5483Z" fill="black"/>
<path d="M122.326 99.5483H114.734V107.141H122.326V99.5483Z" fill="black"/>
<path d="M129.918 99.5483H122.326V107.141H129.918V99.5483Z" fill="black"/>
<path d="M145.103 99.5483H137.511V107.141H145.103V99.5483Z" fill="black"/>
<path d="M152.695 99.5483H145.103V107.141H152.695V99.5483Z" fill="black"/>
<path d="M167.88 99.5483H160.288V107.141H167.88V99.5483Z" fill="black"/>
<path d="M175.472 99.5483H167.88V107.141H175.472V99.5483Z" fill="black"/>
<path d="M183.065 99.5483H175.472V107.141H183.065V99.5483Z" fill="black"/>
<path d="M213.434 99.5483H205.842V107.141H213.434V99.5483Z" fill="black"/>
<path d="M221.026 99.5483H213.434V107.141H221.026V99.5483Z" fill="black"/>
<path d="M16.0333 107.141H8.44096V114.733H16.0333V107.141Z" fill="black"/>
<path d="M31.218 107.141H23.6256V114.733H31.218V107.141Z" fill="black"/>
<path d="M38.8103 107.141H31.218V114.733H38.8103V107.141Z" fill="black"/>
<path d="M46.4026 107.141H38.8103V114.733H46.4026V107.141Z" fill="black"/>
<path d="M53.995 107.141H46.4026V114.733H53.995V107.141Z" fill="black"/>
<path d="M61.5873 107.141H53.995V114.733H61.5873V107.141Z" fill="black"/>
<path d="M76.772 107.141H69.1796V114.733H76.772V107.141Z" fill="black"/>
<path d="M91.9566 107.141H84.3643V114.733H91.9566V107.141Z" fill="black"/>
<path d="M122.326 107.141H114.734V114.733H122.326V107.141Z" fill="black"/>
<path d="M129.918 107.141H122.326V114.733H129.918V107.141Z" fill="black"/>
<path d="M160.288 107.141H152.695V114.733H160.288V107.141Z" fill="black"/>
<path d="M175.472 107.141H167.88V114.733H175.472V107.141Z" fill="black"/>
<path d="M190.657 107.141H183.065V114.733H190.657V107.141Z" fill="black"/>
<path d="M198.249 107.141H190.657V114.733H198.249V107.141Z" fill="black"/>
<path d="M221.026 107.141H213.434V114.733H221.026V107.141Z" fill="black"/>
<path d="M16.0333 114.733H8.44096V122.325H16.0333V114.733Z" fill="black"/>
<path d="M31.218 114.733H23.6256V122.325H31.218V114.733Z" fill="black"/>
<path d="M69.1796 114.733H61.5873V122.325H69.1796V114.733Z" fill="black"/>
<path d="M76.772 114.733H69.1796V122.325H76.772V114.733Z" fill="black"/>
<path d="M91.9566 114.733H84.3643V122.325H91.9566V114.733Z" fill="black"/>
<path d="M107.141 114.733H99.549V122.325H107.141V114.733Z" fill="black"/>
<path d="M114.734 114.733H107.141V122.325H114.734V114.733Z" fill="black"/>
<path d="M129.918 114.733H122.326V122.325H129.918V114.733Z" fill="black"/>
<path d="M137.511 114.733H129.918V122.325H137.511V114.733Z" fill="black"/>
<path d="M152.695 114.733H145.103V122.325H152.695V114.733Z" fill="black"/>
<path d="M167.88 114.733H160.288V122.325H167.88V114.733Z" fill="black"/>
<path d="M175.472 114.733H167.88V122.325H175.472V114.733Z" fill="black"/>
<path d="M190.657 114.733H183.065V122.325H190.657V114.733Z" fill="black"/>
<path d="M198.249 114.733H190.657V122.325H198.249V114.733Z" fill="black"/>
<path d="M213.434 114.733H205.842V122.325H213.434V114.733Z" fill="black"/>
<path d="M8.44096 122.325H0.848633V129.918H8.44096V122.325Z" fill="black"/>
<path d="M23.6256 122.325H16.0333V129.918H23.6256V122.325Z" fill="black"/>
<path d="M38.8103 122.325H31.218V129.918H38.8103V122.325Z" fill="black"/>
<path d="M53.995 122.325H46.4026V129.918H53.995V122.325Z" fill="black"/>
<path d="M84.3643 122.325H76.772V129.918H84.3643V122.325Z" fill="black"/>
<path d="M99.549 122.325H91.9566V129.918H99.549V122.325Z" fill="black"/>
<path d="M114.734 122.325H107.141V129.918H114.734V122.325Z" fill="black"/>
<path d="M122.326 122.325H114.734V129.918H122.326V122.325Z" fill="black"/>
<path d="M129.918 122.325H122.326V129.918H129.918V122.325Z" fill="black"/>
<path d="M152.695 122.325H145.103V129.918H152.695V122.325Z" fill="black"/>
<path d="M160.288 122.325H152.695V129.918H160.288V122.325Z" fill="black"/>
<path d="M167.88 122.325H160.288V129.918H167.88V122.325Z" fill="black"/>
<path d="M183.065 122.325H175.472V129.918H183.065V122.325Z" fill="black"/>
<path d="M198.249 122.325H190.657V129.918H198.249V122.325Z" fill="black"/>
<path d="M16.0333 129.918H8.44096V137.51H16.0333V129.918Z" fill="black"/>
<path d="M23.6256 129.918H16.0333V137.51H23.6256V129.918Z" fill="black"/>
<path d="M61.5873 129.918H53.995V137.51H61.5873V129.918Z" fill="black"/>
<path d="M84.3643 129.918H76.772V137.51H84.3643V129.918Z" fill="black"/>
<path d="M99.549 129.918H91.9566V137.51H99.549V129.918Z" fill="black"/>
<path d="M107.141 129.918H99.549V137.51H107.141V129.918Z" fill="black"/>
<path d="M122.326 129.918H114.734V137.51H122.326V129.918Z" fill="black"/>
<path d="M129.918 129.918H122.326V137.51H129.918V129.918Z" fill="black"/>
<path d="M145.103 129.918H137.511V137.51H145.103V129.918Z" fill="black"/>
<path d="M152.695 129.918H145.103V137.51H152.695V129.918Z" fill="black"/>
<path d="M175.472 129.918H167.88V137.51H175.472V129.918Z" fill="black"/>
<path d="M8.44096 137.51H0.848633V145.102H8.44096V137.51Z" fill="black"/>
<path d="M16.0333 137.51H8.44096V145.102H16.0333V137.51Z" fill="black"/>
<path d="M23.6256 137.51H16.0333V145.102H23.6256V137.51Z" fill="black"/>
<path d="M31.218 137.51H23.6256V145.102H31.218V137.51Z" fill="black"/>
<path d="M38.8103 137.51H31.218V145.102H38.8103V137.51Z" fill="black"/>
<path d="M53.995 137.51H46.4026V145.102H53.995V137.51Z" fill="black"/>
<path d="M61.5873 137.51H53.995V145.102H61.5873V137.51Z" fill="black"/>
<path d="M69.1796 137.51H61.5873V145.102H69.1796V137.51Z" fill="black"/>
<path d="M107.141 137.51H99.549V145.102H107.141V137.51Z" fill="black"/>
<path d="M122.326 137.51H114.734V145.102H122.326V137.51Z" fill="black"/>
<path d="M137.511 137.51H129.918V145.102H137.511V137.51Z" fill="black"/>
<path d="M145.103 137.51H137.511V145.102H145.103V137.51Z" fill="black"/>
<path d="M152.695 137.51H145.103V145.102H152.695V137.51Z" fill="black"/>
<path d="M160.288 137.51H152.695V145.102H160.288V137.51Z" fill="black"/>
<path d="M183.065 137.51H175.472V145.102H183.065V137.51Z" fill="black"/>
<path d="M190.657 137.51H183.065V145.102H190.657V137.51Z" fill="black"/>
<path d="M8.44096 145.102H0.848633V152.695H8.44096V145.102Z" fill="black"/>
<path d="M46.4026 145.102H38.8103V152.695H46.4026V145.102Z" fill="black"/>
<path d="M69.1796 145.102H61.5873V152.695H69.1796V145.102Z" fill="black"/>
<path d="M84.3643 145.102H76.772V152.695H84.3643V145.102Z" fill="black"/>
<path d="M91.9566 145.102H84.3643V152.695H91.9566V145.102Z" fill="black"/>
<path d="M107.141 145.102H99.549V152.695H107.141V145.102Z" fill="black"/>
<path d="M152.695 145.102H145.103V152.695H152.695V145.102Z" fill="black"/>
<path d="M198.249 145.102H190.657V152.695H198.249V145.102Z" fill="black"/>
<path d="M205.842 145.102H198.249V152.695H205.842V145.102Z" fill="black"/>
<path d="M213.434 145.102H205.842V152.695H213.434V145.102Z" fill="black"/>
<path d="M23.6256 152.695H16.0333V160.287H23.6256V152.695Z" fill="black"/>
<path d="M53.995 152.695H46.4026V160.287H53.995V152.695Z" fill="black"/>
<path d="M76.772 152.695H69.1796V160.287H76.772V152.695Z" fill="black"/>
<path d="M84.3643 152.695H76.772V160.287H84.3643V152.695Z" fill="black"/>
<path d="M107.141 152.695H99.549V160.287H107.141V152.695Z" fill="black"/>
<path d="M122.326 152.695H114.734V160.287H122.326V152.695Z" fill="black"/>
<path d="M129.918 152.695H122.326V160.287H129.918V152.695Z" fill="black"/>
<path d="M137.511 152.695H129.918V160.287H137.511V152.695Z" fill="black"/>
<path d="M160.288 152.695H152.695V160.287H160.288V152.695Z" fill="black"/>
<path d="M167.88 152.695H160.288V160.287H167.88V152.695Z" fill="black"/>
<path d="M175.472 152.695H167.88V160.287H175.472V152.695Z" fill="black"/>
<path d="M183.065 152.695H175.472V160.287H183.065V152.695Z" fill="black"/>
<path d="M190.657 152.695H183.065V160.287H190.657V152.695Z" fill="black"/>
<path d="M213.434 152.695H205.842V160.287H213.434V152.695Z" fill="black"/>
<path d="M221.026 152.695H213.434V160.287H221.026V152.695Z" fill="black"/>
<path d="M69.1796 160.287H61.5873V167.879H69.1796V160.287Z" fill="black"/>
<path d="M99.549 160.287H91.9566V167.879H99.549V160.287Z" fill="black"/>
<path d="M114.734 160.287H107.141V167.879H114.734V160.287Z" fill="black"/>
<path d="M122.326 160.287H114.734V167.879H122.326V160.287Z" fill="black"/>
<path d="M129.918 160.287H122.326V167.879H129.918V160.287Z" fill="black"/>
<path d="M137.511 160.287H129.918V167.879H137.511V160.287Z" fill="black"/>
<path d="M145.103 160.287H137.511V167.879H145.103V160.287Z" fill="black"/>
<path d="M160.288 160.287H152.695V167.879H160.288V160.287Z" fill="black"/>
<path d="M190.657 160.287H183.065V167.879H190.657V160.287Z" fill="black"/>
<path d="M205.842 160.287H198.249V167.879H205.842V160.287Z" fill="black"/>
<path d="M213.434 160.287H205.842V167.879H213.434V160.287Z" fill="black"/>
<path d="M8.44096 167.879H0.848633V175.472H8.44096V167.879Z" fill="black"/>
<path d="M16.0333 167.879H8.44096V175.472H16.0333V167.879Z" fill="black"/>
<path d="M23.6256 167.879H16.0333V175.472H23.6256V167.879Z" fill="black"/>
<path d="M31.218 167.879H23.6256V175.472H31.218V167.879Z" fill="black"/>
<path d="M38.8103 167.879H31.218V175.472H38.8103V167.879Z" fill="black"/>
<path d="M46.4026 167.879H38.8103V175.472H46.4026V167.879Z" fill="black"/>
<path d="M53.995 167.879H46.4026V175.472H53.995V167.879Z" fill="black"/>
<path d="M76.772 167.879H69.1796V175.472H76.772V167.879Z" fill="black"/>
<path d="M91.9566 167.879H84.3643V175.472H91.9566V167.879Z" fill="black"/>
<path d="M99.549 167.879H91.9566V175.472H99.549V167.879Z" fill="black"/>
<path d="M114.734 167.879H107.141V175.472H114.734V167.879Z" fill="black"/>
<path d="M137.511 167.879H129.918V175.472H137.511V167.879Z" fill="black"/>
<path d="M160.288 167.879H152.695V175.472H160.288V167.879Z" fill="black"/>
<path d="M175.472 167.879H167.88V175.472H175.472V167.879Z" fill="black"/>
<path d="M190.657 167.879H183.065V175.472H190.657V167.879Z" fill="black"/>
<path d="M198.249 167.879H190.657V175.472H198.249V167.879Z" fill="black"/>
<path d="M221.026 167.879H213.434V175.472H221.026V167.879Z" fill="black"/>
<path d="M8.44096 175.472H0.848633V183.064H8.44096V175.472Z" fill="black"/>
<path d="M53.995 175.472H46.4026V183.064H53.995V175.472Z" fill="black"/>
<path d="M69.1796 175.472H61.5873V183.064H69.1796V175.472Z" fill="black"/>
<path d="M84.3643 175.472H76.772V183.064H84.3643V175.472Z" fill="black"/>
<path d="M91.9566 175.472H84.3643V183.064H91.9566V175.472Z" fill="black"/>
<path d="M107.141 175.472H99.549V183.064H107.141V175.472Z" fill="black"/>
<path d="M137.511 175.472H129.918V183.064H137.511V175.472Z" fill="black"/>
<path d="M145.103 175.472H137.511V183.064H145.103V175.472Z" fill="black"/>
<path d="M152.695 175.472H145.103V183.064H152.695V175.472Z" fill="black"/>
<path d="M160.288 175.472H152.695V183.064H160.288V175.472Z" fill="black"/>
<path d="M190.657 175.472H183.065V183.064H190.657V175.472Z" fill="black"/>
<path d="M198.249 175.472H190.657V183.064H198.249V175.472Z" fill="black"/>
<path d="M213.434 175.472H205.842V183.064H213.434V175.472Z" fill="black"/>
<path d="M8.44096 183.064H0.848633V190.656H8.44096V183.064Z" fill="black"/>
<path d="M23.6256 183.064H16.0333V190.656H23.6256V183.064Z" fill="black"/>
<path d="M31.218 183.064H23.6256V190.656H31.218V183.064Z" fill="black"/>
<path d="M38.8103 183.064H31.218V190.656H38.8103V183.064Z" fill="black"/>
<path d="M53.995 183.064H46.4026V190.656H53.995V183.064Z" fill="black"/>
<path d="M84.3643 183.064H76.772V190.656H84.3643V183.064Z" fill="black"/>
<path d="M91.9566 183.064H84.3643V190.656H91.9566V183.064Z" fill="black"/>
<path d="M114.734 183.064H107.141V190.656H114.734V183.064Z" fill="black"/>
<path d="M122.326 183.064H114.734V190.656H122.326V183.064Z" fill="black"/>
<path d="M145.103 183.064H137.511V190.656H145.103V183.064Z" fill="black"/>
<path d="M152.695 183.064H145.103V190.656H152.695V183.064Z" fill="black"/>
<path d="M160.288 183.064H152.695V190.656H160.288V183.064Z" fill="black"/>
<path d="M167.88 183.064H160.288V190.656H167.88V183.064Z" fill="black"/>
<path d="M175.472 183.064H167.88V190.656H175.472V183.064Z" fill="black"/>
<path d="M183.065 183.064H175.472V190.656H183.065V183.064Z" fill="black"/>
<path d="M190.657 183.064H183.065V190.656H190.657V183.064Z" fill="black"/>
<path d="M198.249 183.064H190.657V190.656H198.249V183.064Z" fill="black"/>
<path d="M205.842 183.064H198.249V190.656H205.842V183.064Z" fill="black"/>
<path d="M213.434 183.064H205.842V190.656H213.434V183.064Z" fill="black"/>
<path d="M221.026 183.064H213.434V190.656H221.026V183.064Z" fill="black"/>
<path d="M8.44096 190.656H0.848633V198.249H8.44096V190.656Z" fill="black"/>
<path d="M23.6256 190.656H16.0333V198.249H23.6256V190.656Z" fill="black"/>
<path d="M31.218 190.656H23.6256V198.249H31.218V190.656Z" fill="black"/>
<path d="M38.8103 190.656H31.218V198.249H38.8103V190.656Z" fill="black"/>
<path d="M53.995 190.656H46.4026V198.249H53.995V190.656Z" fill="black"/>
<path d="M76.772 190.656H69.1796V198.249H76.772V190.656Z" fill="black"/>
<path d="M84.3643 190.656H76.772V198.249H84.3643V190.656Z" fill="black"/>
<path d="M91.9566 190.656H84.3643V198.249H91.9566V190.656Z" fill="black"/>
<path d="M99.549 190.656H91.9566V198.249H99.549V190.656Z" fill="black"/>
<path d="M122.326 190.656H114.734V198.249H122.326V190.656Z" fill="black"/>
<path d="M129.918 190.656H122.326V198.249H129.918V190.656Z" fill="black"/>
<path d="M145.103 190.656H137.511V198.249H145.103V190.656Z" fill="black"/>
<path d="M190.657 190.656H183.065V198.249H190.657V190.656Z" fill="black"/>
<path d="M198.249 190.656H190.657V198.249H198.249V190.656Z" fill="black"/>
<path d="M8.44096 198.249H0.848633V205.841H8.44096V198.249Z" fill="black"/>
<path d="M23.6256 198.249H16.0333V205.841H23.6256V198.249Z" fill="black"/>
<path d="M31.218 198.249H23.6256V205.841H31.218V198.249Z" fill="black"/>
<path d="M38.8103 198.249H31.218V205.841H38.8103V198.249Z" fill="black"/>
<path d="M53.995 198.249H46.4026V205.841H53.995V198.249Z" fill="black"/>
<path d="M84.3643 198.249H76.772V205.841H84.3643V198.249Z" fill="black"/>
<path d="M91.9566 198.249H84.3643V205.841H91.9566V198.249Z" fill="black"/>
<path d="M107.141 198.249H99.549V205.841H107.141V198.249Z" fill="black"/>
<path d="M114.734 198.249H107.141V205.841H114.734V198.249Z" fill="black"/>
<path d="M160.288 198.249H152.695V205.841H160.288V198.249Z" fill="black"/>
<path d="M167.88 198.249H160.288V205.841H167.88V198.249Z" fill="black"/>
<path d="M183.065 198.249H175.472V205.841H183.065V198.249Z" fill="black"/>
<path d="M8.44096 205.841H0.848633V213.433H8.44096V205.841Z" fill="black"/>
<path d="M53.995 205.841H46.4026V213.433H53.995V205.841Z" fill="black"/>
<path d="M84.3643 205.841H76.772V213.433H84.3643V205.841Z" fill="black"/>
<path d="M91.9566 205.841H84.3643V213.433H91.9566V205.841Z" fill="black"/>
<path d="M99.549 205.841H91.9566V213.433H99.549V205.841Z" fill="black"/>
<path d="M114.734 205.841H107.141V213.433H114.734V205.841Z" fill="black"/>
<path d="M122.326 205.841H114.734V213.433H122.326V205.841Z" fill="black"/>
<path d="M129.918 205.841H122.326V213.433H129.918V205.841Z" fill="black"/>
<path d="M145.103 205.841H137.511V213.433H145.103V205.841Z" fill="black"/>
<path d="M152.695 205.841H145.103V213.433H152.695V205.841Z" fill="black"/>
<path d="M167.88 205.841H160.288V213.433H167.88V205.841Z" fill="black"/>
<path d="M175.472 205.841H167.88V213.433H175.472V205.841Z" fill="black"/>
<path d="M183.065 205.841H175.472V213.433H183.065V205.841Z" fill="black"/>
<path d="M190.657 205.841H183.065V213.433H190.657V205.841Z" fill="black"/>
<path d="M213.434 205.841H205.842V213.433H213.434V205.841Z" fill="black"/>
<path d="M221.026 205.841H213.434V213.433H221.026V205.841Z" fill="black"/>
<path d="M8.44096 213.433H0.848633V221.026H8.44096V213.433Z" fill="black"/>
<path d="M16.0333 213.433H8.44096V221.026H16.0333V213.433Z" fill="black"/>
<path d="M23.6256 213.433H16.0333V221.026H23.6256V213.433Z" fill="black"/>
<path d="M31.218 213.433H23.6256V221.026H31.218V213.433Z" fill="black"/>
<path d="M38.8103 213.433H31.218V221.026H38.8103V213.433Z" fill="black"/>
<path d="M46.4026 213.433H38.8103V221.026H46.4026V213.433Z" fill="black"/>
<path d="M53.995 213.433H46.4026V221.026H53.995V213.433Z" fill="black"/>
<path d="M76.772 213.433H69.1796V221.026H76.772V213.433Z" fill="black"/>
<path d="M99.549 213.433H91.9566V221.026H99.549V213.433Z" fill="black"/>
<path d="M114.734 213.433H107.141V221.026H114.734V213.433Z" fill="black"/>
<path d="M137.511 213.433H129.918V221.026H137.511V213.433Z" fill="black"/>
<path d="M145.103 213.433H137.511V221.026H145.103V213.433Z" fill="black"/>
<path d="M152.695 213.433H145.103V221.026H152.695V213.433Z" fill="black"/>
<path d="M167.88 213.433H160.288V221.026H167.88V213.433Z" fill="black"/>
<path d="M198.249 213.433H190.657V221.026H198.249V213.433Z" fill="black"/>
<path d="M205.842 213.433H198.249V221.026H205.842V213.433Z" fill="black"/>
</svg>
