<svg width="27" height="26" viewBox="0 0 27 26" fill="none" xmlns="http://www.w3.org/2000/svg">
<g clip-path="url(#clip0_628_2805)">
<path d="M8.16853 25.5133C7.65592 25.1722 7.2016 24.7508 6.82303 24.2653C6.40661 23.7641 6.02079 23.2383 5.66766 22.6906C4.83897 21.4766 4.1891 20.1498 3.73797 18.7508C3.19603 17.1258 2.93359 15.5683 2.93359 14.0448C2.93359 12.3435 3.30166 10.8582 4.02153 9.61021C4.55516 8.63475 5.33974 7.8196 6.29409 7.24908C7.21897 6.67462 8.28166 6.36025 9.37022 6.33908C9.75128 6.33908 10.1616 6.39433 10.5971 6.49996C10.9099 6.58852 11.291 6.72827 11.7565 6.90215C12.3488 7.13046 12.6747 7.27021 12.7852 7.30433C13.1321 7.43108 13.4238 7.48633 13.6529 7.48633C13.8268 7.48633 14.0722 7.43108 14.3508 7.34658C14.5077 7.29133 14.8034 7.19383 15.2267 7.01265C15.646 6.8599 15.9758 6.72908 16.2383 6.63158C16.6405 6.51296 17.0297 6.40327 17.3766 6.34802C17.7879 6.28318 18.2053 6.266 18.6205 6.29683C19.3401 6.34386 20.0488 6.49635 20.7241 6.7494C21.8283 7.19383 22.7212 7.88771 23.3858 8.87408C23.1049 9.04722 22.8413 9.24693 22.5985 9.47046C22.0701 9.93893 21.62 10.4889 21.2652 11.0995C20.8015 11.934 20.5611 12.8741 20.5673 13.8287C20.5843 15.0011 20.885 16.0338 21.4773 16.9268C21.9127 17.5886 22.4787 18.1545 23.1405 18.59C23.4793 18.8183 23.771 18.9751 24.0505 19.0807C23.9197 19.487 23.7799 19.8802 23.615 20.2702C23.2409 21.1448 22.7875 21.9833 22.2605 22.7751C21.7909 23.4568 21.4228 23.9646 21.1433 24.3026C20.7078 24.8186 20.2886 25.2126 19.8653 25.4873C19.3997 25.796 18.8497 25.961 18.2907 25.961C17.9121 25.9755 17.5336 25.9297 17.1694 25.8253C16.8566 25.7196 16.547 25.6051 16.2423 25.4743C15.9256 25.3288 15.599 25.2058 15.2649 25.1062C14.4392 24.8941 13.5734 24.8927 12.747 25.1021C12.4082 25.1996 12.0823 25.3134 11.7606 25.4531C11.308 25.6433 11.0074 25.7708 10.8335 25.8253C10.4866 25.9268 10.1267 25.9902 9.76266 26.0113C9.19959 26.0113 8.67472 25.8505 8.15472 25.5246L8.16853 25.5133ZM15.5948 5.51358C14.8587 5.88165 14.1558 6.03846 13.4579 5.98727C13.3482 5.28446 13.4579 4.5654 13.7496 3.77808C13.9979 3.11107 14.3648 2.49448 14.8327 1.95808C15.3267 1.39341 15.9261 0.930576 16.5974 0.59552C17.3124 0.227458 17.9941 0.0283955 18.6457 -0.000854492C18.7302 0.735271 18.6457 1.45921 18.3752 2.24165C18.1248 2.93331 17.7585 3.57734 17.2921 4.14615C16.816 4.71159 16.2318 5.17622 15.5737 5.51277L15.5948 5.51358Z" fill="black"/>
</g>
<defs>
<clipPath id="clip0_628_2805">
<rect width="26" height="26" fill="white" transform="translate(0.5)"/>
</clipPath>
</defs>
</svg>
