<svg viewBox="0 0 22 24" fill="none" xmlns="http://www.w3.org/2000/svg">
<path d="M2.24216 22.6305L2.23261 22.6264L2.22297 22.6225C1.85839 22.4756 1.54663 22.222 1.32846 21.8951C1.11028 21.5681 0.995847 21.1829 1.00012 20.7899H1.00017V20.779V5.00063C1.00159 3.94004 1.42354 2.92329 2.1735 2.17333C2.92346 1.42336 3.94022 1.00142 5.00081 1H16.9995C18.0601 1.00142 19.0769 1.42336 19.8268 2.17333C20.5769 2.92342 20.9989 3.9404 21.0002 5.0012V20.779H21.0001L21.0002 20.7904C21.0047 21.1831 20.8907 21.5681 20.673 21.8951C20.4553 22.222 20.1441 22.4757 19.78 22.623L19.78 22.623L19.7687 22.6277C19.5203 22.7318 19.2538 22.7859 18.9845 22.787C18.7267 22.7862 18.4716 22.7345 18.2338 22.6347C17.9953 22.5346 17.779 22.3883 17.5974 22.204L17.5974 22.204L17.5904 22.197L11.7054 16.344L11.0002 15.6426L10.295 16.344L4.41 22.197L4.40996 22.1969L4.40254 22.2045C4.12698 22.4844 3.77345 22.6748 3.38807 22.7508C3.00269 22.8267 2.60336 22.7848 2.24216 22.6305Z" stroke="black" stroke-width="2"/>
</svg>
