<svg viewBox="0 0 25 24" fill="none" xmlns="http://www.w3.org/2000/svg">
<g clip-path="url(#clip0_169_6151)">
<path d="M19.5 4H18.992L16.808 1.168C16.5265 0.805806 16.1663 0.512417 15.7547 0.310054C15.343 0.107691 14.8907 0.00166304 14.432 0L10.568 0C10.1093 0.00166304 9.65699 0.107691 9.24533 0.310054C8.83368 0.512417 8.47347 0.805806 8.192 1.168L6.008 4H5.5C4.17441 4.00159 2.90356 4.52888 1.96622 5.46622C1.02888 6.40356 0.501588 7.67441 0.5 9L0.5 19C0.501588 20.3256 1.02888 21.5964 1.96622 22.5338C2.90356 23.4711 4.17441 23.9984 5.5 24H19.5C20.8256 23.9984 22.0964 23.4711 23.0338 22.5338C23.9711 21.5964 24.4984 20.3256 24.5 19V9C24.4984 7.67441 23.9711 6.40356 23.0338 5.46622C22.0964 4.52888 20.8256 4.00159 19.5 4ZM9.776 2.39C9.86967 2.26905 9.98969 2.17106 10.1269 2.10348C10.2642 2.0359 10.415 2.00051 10.568 2H14.432C14.585 2.00066 14.7357 2.03611 14.873 2.10368C15.0102 2.17125 15.1302 2.26916 15.224 2.39L16.466 4H8.534L9.776 2.39ZM22.5 19C22.5 19.7956 22.1839 20.5587 21.6213 21.1213C21.0587 21.6839 20.2956 22 19.5 22H5.5C4.70435 22 3.94129 21.6839 3.37868 21.1213C2.81607 20.5587 2.5 19.7956 2.5 19V9C2.5 8.20435 2.81607 7.44129 3.37868 6.87868C3.94129 6.31607 4.70435 6 5.5 6H19.5C20.2956 6 21.0587 6.31607 21.6213 6.87868C22.1839 7.44129 22.5 8.20435 22.5 9V19Z" fill="#3870FF"/>
<path d="M12.5 8C11.3133 8 10.1533 8.35189 9.16658 9.01118C8.17989 9.67047 7.41085 10.6075 6.95673 11.7039C6.5026 12.8003 6.38378 14.0067 6.61529 15.1705C6.8468 16.3344 7.41825 17.4035 8.25736 18.2426C9.09648 19.0818 10.1656 19.6532 11.3295 19.8847C12.4933 20.1162 13.6997 19.9974 14.7961 19.5433C15.8925 19.0892 16.8295 18.3201 17.4888 17.3334C18.1481 16.3467 18.5 15.1867 18.5 14C18.4984 12.4092 17.8658 10.884 16.7409 9.75911C15.616 8.63424 14.0908 8.00159 12.5 8ZM12.5 18C11.7089 18 10.9355 17.7654 10.2777 17.3259C9.61993 16.8864 9.10723 16.2616 8.80448 15.5307C8.50173 14.7998 8.42252 13.9956 8.57686 13.2196C8.7312 12.4437 9.11217 11.731 9.67158 11.1716C10.231 10.6122 10.9437 10.2312 11.7196 10.0769C12.4956 9.92252 13.2998 10.0017 14.0307 10.3045C14.7616 10.6072 15.3864 11.1199 15.8259 11.7777C16.2654 12.4355 16.5 13.2089 16.5 14C16.5 15.0609 16.0786 16.0783 15.3284 16.8284C14.5783 17.5786 13.5609 18 12.5 18Z" fill="#3870FF"/>
</g>
<defs>
<clipPath id="clip0_169_6151">
<rect width="24" height="24" fill="white" transform="translate(0.5)"/>
</clipPath>
</defs>
</svg>
