<svg width="20" height="20" viewBox="0 0 20 20" fill="none" xmlns="http://www.w3.org/2000/svg">
<path d="M4 13H3.4C2.07 13 1 11.93 1 10.6V3.4C1 2.07 2.07 1 3.4 1H10.6C11.93 1 13 2.07 13 3.4V4M9.4 7H16.6C17.2365 7 17.847 7.25286 18.2971 7.70294C18.7471 8.15303 19 8.76348 19 9.4V16.6C19 17.2365 18.7471 17.847 18.2971 18.2971C17.847 18.7471 17.2365 19 16.6 19H9.4C8.76348 19 8.15303 18.7471 7.70294 18.2971C7.25286 17.847 7 17.2365 7 16.6V9.4C7 9.08483 7.06208 8.77274 7.18269 8.48156C7.3033 8.19038 7.48008 7.9258 7.70294 7.70294C7.9258 7.48008 8.19038 7.3033 8.48156 7.18269C8.77274 7.06208 9.08483 7 9.4 7Z" stroke="black" stroke-width="1.5" stroke-miterlimit="10" stroke-linecap="round" stroke-linejoin="round"/>
</svg>
