<svg width="21" height="20" viewBox="0 0 21 20" fill="none" xmlns="http://www.w3.org/2000/svg">
<g clip-path="url(#clip0_586_5842)">
<path d="M20.4997 8.33337V11.6667C20.4997 12.1275 20.1272 12.5 19.6664 12.5C19.2056 12.5 18.8331 12.1275 18.8331 11.6667V9.5117L16.4764 11.8684C15.8464 12.4984 15.4997 13.3359 15.4997 14.2259V19.1667C15.4997 19.6275 15.1272 20 14.6664 20C14.2056 20 13.8331 19.6275 13.8331 19.1667V14.2259C13.8331 12.89 14.3531 11.635 15.2981 10.69L17.6547 8.33337H15.4997C15.0389 8.33337 14.6664 7.96087 14.6664 7.50004C14.6664 7.0392 15.0389 6.6667 15.4997 6.6667H18.8331C19.7522 6.6667 20.4997 7.4142 20.4997 8.33337ZM14.0056 2.84504L11.6489 0.488369C11.0189 -0.141631 9.92223 -0.141631 9.29139 0.488369L6.93389 2.84504C6.60806 3.17087 6.60806 3.69754 6.93389 4.02337C7.25973 4.3492 7.78639 4.3492 8.11223 4.02337L9.66556 2.47004V19.1667C9.66556 19.6275 10.0389 20 10.4989 20C10.9589 20 11.3322 19.6275 11.3322 19.1667V2.5292L12.8264 4.02337C13.1522 4.3492 13.6789 4.3492 14.0047 4.02337C14.3306 3.69754 14.3306 3.17087 14.0047 2.84504H14.0056ZM3.37723 8.33337H5.49973C5.95973 8.33337 6.33306 7.96087 6.33306 7.50004C6.33306 7.0392 5.95973 6.6667 5.49973 6.6667H2.19889C1.27973 6.6667 0.532227 7.4142 0.532227 8.33337V11.6667C0.532227 12.1275 0.90556 12.5 1.36556 12.5C1.82556 12.5 2.19889 12.1275 2.19889 11.6667V9.5117L4.55556 11.8684C5.18556 12.4984 5.53223 13.3359 5.53223 14.2259V19.1667C5.53223 19.6275 5.90556 20 6.36556 20C6.82556 20 7.19889 19.6275 7.19889 19.1667V14.2259C7.19889 12.8909 6.67889 11.6359 5.73473 10.69L3.37723 8.33337Z" fill="white"/>
</g>
<defs>
<clipPath id="clip0_586_5842">
<rect width="20" height="20" fill="white" transform="translate(0.5)"/>
</clipPath>
</defs>
</svg>
