<svg width="20" height="20" viewBox="0 0 20 20" fill="none" xmlns="http://www.w3.org/2000/svg">
<g clip-path="url(#clip0_569_3550)">
<path d="M19.0239 7.64331L15.7914 4.41081C15.6342 4.25901 15.4237 4.17501 15.2052 4.17691C14.9867 4.17881 14.7777 4.26645 14.6232 4.42096C14.4687 4.57546 14.3811 4.78447 14.3792 5.00297C14.3773 5.22147 14.4613 5.43197 14.6131 5.58914L17.8456 8.82164C17.9416 8.91958 18.0255 9.02869 18.0956 9.14664C18.0831 9.14664 18.0731 9.13997 18.0606 9.13997L4.99056 9.16664C4.76955 9.16664 4.55758 9.25444 4.4013 9.41072C4.24502 9.567 4.15723 9.77896 4.15723 9.99997C4.15723 10.221 4.24502 10.4329 4.4013 10.5892C4.55758 10.7455 4.76955 10.8333 4.99056 10.8333L18.0556 10.8066C18.0789 10.8066 18.0981 10.795 18.1206 10.7933C18.0466 10.9343 17.9529 11.0639 17.8422 11.1783L14.6097 14.4108C14.5301 14.4877 14.4667 14.5796 14.423 14.6813C14.3793 14.783 14.3563 14.8923 14.3554 15.003C14.3544 15.1136 14.3755 15.2234 14.4174 15.3258C14.4593 15.4282 14.5212 15.5212 14.5994 15.5995C14.6776 15.6777 14.7707 15.7396 14.8731 15.7815C14.9755 15.8234 15.0852 15.8445 15.1959 15.8435C15.3065 15.8426 15.4159 15.8196 15.5176 15.7759C15.6192 15.7322 15.7112 15.6687 15.7881 15.5891L19.0206 12.3566C19.6455 11.7315 19.9965 10.8839 19.9965 9.99997C19.9965 9.11609 19.6455 8.2684 19.0206 7.64331H19.0239Z" fill="#BA5353"/>
<path d="M5.83333 18.3333H4.16667C3.50363 18.3333 2.86774 18.0699 2.3989 17.6011C1.93006 17.1323 1.66667 16.4964 1.66667 15.8333V4.16667C1.66667 3.50363 1.93006 2.86774 2.3989 2.3989C2.86774 1.93006 3.50363 1.66667 4.16667 1.66667H5.83333C6.05435 1.66667 6.26631 1.57887 6.42259 1.42259C6.57887 1.26631 6.66667 1.05435 6.66667 0.833333C6.66667 0.61232 6.57887 0.400358 6.42259 0.244078C6.26631 0.0877974 6.05435 0 5.83333 0L4.16667 0C3.062 0.00132321 2.00296 0.440735 1.22185 1.22185C0.440735 2.00296 0.00132321 3.062 0 4.16667L0 15.8333C0.00132321 16.938 0.440735 17.997 1.22185 18.7782C2.00296 19.5593 3.062 19.9987 4.16667 20H5.83333C6.05435 20 6.26631 19.9122 6.42259 19.7559C6.57887 19.5996 6.66667 19.3877 6.66667 19.1667C6.66667 18.9457 6.57887 18.7337 6.42259 18.5774C6.26631 18.4211 6.05435 18.3333 5.83333 18.3333Z" fill="#BA5353"/>
</g>
<defs>
<clipPath id="clip0_569_3550">
<rect width="20" height="20" fill="white"/>
</clipPath>
</defs>
</svg>
