<svg width="25" height="25" viewBox="0 0 25 25" fill="none" xmlns="http://www.w3.org/2000/svg">
<g clip-path="url(#clip0_11_3768)">
<path d="M8.5 12.5H6.5C5.397 12.5 4.5 13.397 4.5 14.5V16.5C4.5 17.603 5.397 18.5 6.5 18.5H8.5C9.603 18.5 10.5 17.603 10.5 16.5V14.5C10.5 13.397 9.603 12.5 8.5 12.5ZM6.5 16.5V14.5H8.5V16.5H6.5ZM19.5 2.5H18.5V1.5C18.5 0.948 18.053 0.5 17.5 0.5C16.947 0.5 16.5 0.948 16.5 1.5V2.5H8.5V1.5C8.5 0.948 8.053 0.5 7.5 0.5C6.947 0.5 6.5 0.948 6.5 1.5V2.5H5.5C2.743 2.5 0.5 4.743 0.5 7.5V19.5C0.5 22.257 2.743 24.5 5.5 24.5H19.5C22.257 24.5 24.5 22.257 24.5 19.5V7.5C24.5 4.743 22.257 2.5 19.5 2.5ZM5.5 4.5H19.5C21.154 4.5 22.5 5.846 22.5 7.5V8.5H2.5V7.5C2.5 5.846 3.846 4.5 5.5 4.5ZM19.5 22.5H5.5C3.846 22.5 2.5 21.154 2.5 19.5V10.5H22.5V19.5C22.5 21.154 21.154 22.5 19.5 22.5Z" fill="#848282"/>
</g>
<defs>
<clipPath id="clip0_11_3768">
<rect width="24" height="24" fill="white" transform="translate(0.5 0.5)"/>
</clipPath>
</defs>
</svg>
