<svg width="25" height="24" viewBox="0 0 25 24" fill="none" xmlns="http://www.w3.org/2000/svg">
<path d="M5.91996 14.4656L5.09721 17.537L2.09008 17.6006C1.19139 15.9338 0.681641 14.0266 0.681641 12C0.681641 10.0403 1.15825 8.1922 2.00306 6.56494H2.00371L4.6809 7.05576L5.85366 9.71689C5.60821 10.4325 5.47442 11.2007 5.47442 12C5.47451 12.8675 5.63166 13.6987 5.91996 14.4656Z" fill="#FBBB00"/>
<path d="M24.1116 9.79211C24.2474 10.507 24.3181 11.2453 24.3181 11.9999C24.3181 12.846 24.2292 13.6713 24.0597 14.4675C23.4844 17.1765 21.9811 19.5421 19.8987 21.2161L19.898 21.2155L16.526 21.0434L16.0487 18.0642C17.4305 17.2538 18.5104 15.9856 19.0793 14.4675H12.7598V9.79211H19.1715H24.1116Z" fill="#518EF8"/>
<path d="M19.8976 21.2156L19.8983 21.2162C17.873 22.8441 15.3002 23.8181 12.4996 23.8181C7.99893 23.8181 4.08596 21.3026 2.08984 17.6006L5.91972 14.4656C6.91775 17.1292 9.48724 19.0253 12.4996 19.0253C13.7944 19.0253 15.0074 18.6753 16.0483 18.0643L19.8976 21.2156Z" fill="#28B446"/>
<path d="M20.0442 2.90253L16.2156 6.03693C15.1383 5.36357 13.8649 4.97459 12.5007 4.97459C9.42014 4.97459 6.8026 6.95769 5.85456 9.71682L2.00455 6.56487H2.00391C3.9708 2.77267 7.93313 0.181763 12.5007 0.181763C15.3682 0.181763 17.9974 1.2032 20.0442 2.90253Z" fill="#F14336"/>
</svg>
