<svg width="25" height="25" viewBox="0 0 25 25" fill="none" xmlns="http://www.w3.org/2000/svg">
<path d="M7.5 0.5H4.5C3.43913 0.5 2.42172 0.921427 1.67157 1.67157C0.921427 2.42172 0.5 3.43913 0.5 4.5L0.5 7.5C0.5 8.56087 0.921427 9.57828 1.67157 10.3284C2.42172 11.0786 3.43913 11.5 4.5 11.5H7.5C8.56087 11.5 9.57828 11.0786 10.3284 10.3284C11.0786 9.57828 11.5 8.56087 11.5 7.5V4.5C11.5 3.43913 11.0786 2.42172 10.3284 1.67157C9.57828 0.921427 8.56087 0.5 7.5 0.5ZM9.5 7.5C9.5 8.03043 9.28929 8.53914 8.91421 8.91421C8.53914 9.28929 8.03043 9.5 7.5 9.5H4.5C3.96957 9.5 3.46086 9.28929 3.08579 8.91421C2.71071 8.53914 2.5 8.03043 2.5 7.5V4.5C2.5 3.96957 2.71071 3.46086 3.08579 3.08579C3.46086 2.71071 3.96957 2.5 4.5 2.5H7.5C8.03043 2.5 8.53914 2.71071 8.91421 3.08579C9.28929 3.46086 9.5 3.96957 9.5 4.5V7.5Z" fill="#848282"/>
<path d="M20.5 0.5H17.5C16.4391 0.5 15.4217 0.921427 14.6716 1.67157C13.9214 2.42172 13.5 3.43913 13.5 4.5V7.5C13.5 8.56087 13.9214 9.57828 14.6716 10.3284C15.4217 11.0786 16.4391 11.5 17.5 11.5H20.5C21.5609 11.5 22.5783 11.0786 23.3284 10.3284C24.0786 9.57828 24.5 8.56087 24.5 7.5V4.5C24.5 3.43913 24.0786 2.42172 23.3284 1.67157C22.5783 0.921427 21.5609 0.5 20.5 0.5ZM22.5 7.5C22.5 8.03043 22.2893 8.53914 21.9142 8.91421C21.5391 9.28929 21.0304 9.5 20.5 9.5H17.5C16.9696 9.5 16.4609 9.28929 16.0858 8.91421C15.7107 8.53914 15.5 8.03043 15.5 7.5V4.5C15.5 3.96957 15.7107 3.46086 16.0858 3.08579C16.4609 2.71071 16.9696 2.5 17.5 2.5H20.5C21.0304 2.5 21.5391 2.71071 21.9142 3.08579C22.2893 3.46086 22.5 3.96957 22.5 4.5V7.5Z" fill="#848282"/>
<path d="M7.5 13.5H4.5C3.43913 13.5 2.42172 13.9214 1.67157 14.6716C0.921427 15.4217 0.5 16.4391 0.5 17.5L0.5 20.5C0.5 21.5609 0.921427 22.5783 1.67157 23.3284C2.42172 24.0786 3.43913 24.5 4.5 24.5H7.5C8.56087 24.5 9.57828 24.0786 10.3284 23.3284C11.0786 22.5783 11.5 21.5609 11.5 20.5V17.5C11.5 16.4391 11.0786 15.4217 10.3284 14.6716C9.57828 13.9214 8.56087 13.5 7.5 13.5ZM9.5 20.5C9.5 21.0304 9.28929 21.5391 8.91421 21.9142C8.53914 22.2893 8.03043 22.5 7.5 22.5H4.5C3.96957 22.5 3.46086 22.2893 3.08579 21.9142C2.71071 21.5391 2.5 21.0304 2.5 20.5V17.5C2.5 16.9696 2.71071 16.4609 3.08579 16.0858C3.46086 15.7107 3.96957 15.5 4.5 15.5H7.5C8.03043 15.5 8.53914 15.7107 8.91421 16.0858C9.28929 16.4609 9.5 16.9696 9.5 17.5V20.5Z" fill="#848282"/>
<path d="M20.5 13.5H17.5C16.4391 13.5 15.4217 13.9214 14.6716 14.6716C13.9214 15.4217 13.5 16.4391 13.5 17.5V20.5C13.5 21.5609 13.9214 22.5783 14.6716 23.3284C15.4217 24.0786 16.4391 24.5 17.5 24.5H20.5C21.5609 24.5 22.5783 24.0786 23.3284 23.3284C24.0786 22.5783 24.5 21.5609 24.5 20.5V17.5C24.5 16.4391 24.0786 15.4217 23.3284 14.6716C22.5783 13.9214 21.5609 13.5 20.5 13.5ZM22.5 20.5C22.5 21.0304 22.2893 21.5391 21.9142 21.9142C21.5391 22.2893 21.0304 22.5 20.5 22.5H17.5C16.9696 22.5 16.4609 22.2893 16.0858 21.9142C15.7107 21.5391 15.5 21.0304 15.5 20.5V17.5C15.5 16.9696 15.7107 16.4609 16.0858 16.0858C16.4609 15.7107 16.9696 15.5 17.5 15.5H20.5C21.0304 15.5 21.5391 15.7107 21.9142 16.0858C22.2893 16.4609 22.5 16.9696 22.5 17.5V20.5Z" fill="#848282"/>
</svg>
