<svg width="24" height="25" viewBox="0 0 24 25" fill="none" xmlns="http://www.w3.org/2000/svg">
<g clip-path="url(#clip0_49_1563)">
<path d="M14 10.5H10C8.897 10.5 8 11.397 8 12.5V16.5C8 17.603 8.897 18.5 10 18.5H14C15.103 18.5 16 17.603 16 16.5V12.5C16 11.397 15.103 10.5 14 10.5ZM10 16.5V12.5H14V16.5H10ZM22 6.22398V2.49998C22 1.94698 21.552 1.49998 21 1.49998C20.448 1.49998 20 1.94698 20 2.49998V4.86698L14.797 1.35498C13.098 0.208983 10.902 0.208983 9.203 1.35498L2.204 6.07898C0.824 7.00998 0 8.55798 0 10.224V19.5C0 22.257 2.243 24.5 5 24.5H19C21.757 24.5 24 22.257 24 19.5V10.224C24 8.64298 23.256 7.16498 22 6.22398ZM22 19.5C22 21.154 20.654 22.5 19 22.5H5C3.346 22.5 2 21.154 2 19.5V10.224C2 9.22499 2.494 8.29598 3.322 7.73798L10.322 3.01398C10.832 2.66898 11.416 2.49698 12 2.49698C12.584 2.49698 13.168 2.66898 13.678 3.01398L20.678 7.73798C21.506 8.29698 22 9.22499 22 10.224V19.5Z" fill="#848282"/>
</g>
<defs>
<clipPath id="clip0_49_1563">
<rect width="24" height="24" fill="white" transform="translate(0 0.5)"/>
</clipPath>
</defs>
</svg>
