<svg viewBox="0 0 11 13" fill="none" xmlns="http://www.w3.org/2000/svg">
<path fill-rule="evenodd" clip-rule="evenodd" d="M5.5 6.09375C4.82684 6.09375 4.28125 5.54816 4.28125 4.875C4.28125 4.20184 4.82684 3.65625 5.5 3.65625C6.17316 3.65625 6.71875 4.20184 6.71875 4.875C6.71875 5.54816 6.17316 6.09375 5.5 6.09375ZM5.5 2.84375C4.37834 2.84375 3.46875 3.75294 3.46875 4.875C3.46875 5.99706 4.37834 6.90625 5.5 6.90625C6.62166 6.90625 7.53125 5.99706 7.53125 4.875C7.53125 3.75294 6.62166 2.84375 5.5 2.84375ZM5.5 11.7812C4.82441 11.7849 1.4375 6.57353 1.4375 4.875C1.4375 2.63169 3.25628 0.8125 5.5 0.8125C7.74372 0.8125 9.5625 2.63169 9.5625 4.875C9.5625 6.55078 6.16503 11.7849 5.5 11.7812ZM5.5 0C2.80778 0 0.625 2.18278 0.625 4.875C0.625 6.91356 4.68953 13.0045 5.5 13C6.29787 13.0045 10.375 6.88594 10.375 4.875C10.375 2.18278 8.19222 0 5.5 0Z" fill="#CAC8C8"/>
</svg>
