<svg width="163" height="151" viewBox="0 0 163 151" fill="none" xmlns="http://www.w3.org/2000/svg">
<g opacity="0.25">
<path d="M162.919 135.432C162.919 139.572 160.903 143.314 157.646 146.027C154.386 148.739 149.882 150.415 144.912 150.415H18.0912C8.14508 150.415 0.0813817 143.706 0.0813817 135.435C0.0813817 131.298 2.09731 127.552 5.35405 124.84C8.61405 122.131 13.1181 120.452 18.0879 120.452H17.6027C22.5725 120.452 27.0765 118.773 30.3365 116.064C31.2517 115.305 32.0659 114.463 32.7661 113.557C33.1015 113.961 33.4956 114.3 33.9515 114.584C35.0751 115.272 36.2899 115.445 37.5991 115.089C38.9083 114.737 39.8755 113.981 40.5008 112.82C41.1294 111.657 41.2466 110.356 40.8591 108.915C40.4715 107.474 39.7159 106.411 38.5924 105.72C37.6577 105.146 36.6644 104.934 35.6027 105.078C35.5701 104.064 35.4203 103.08 35.1565 102.124C37.0096 101.192 38.055 99.0991 37.5893 96.9964L32.8019 75.5228C32.1115 72.4323 28.9915 70.5415 25.9334 71.363C23.4453 72.0345 21.8169 74.2872 21.8169 76.7322C21.8169 77.2864 21.9016 77.8504 22.0774 78.4079L26.5066 92.4356C23.8817 91.1903 20.8399 90.4829 17.6027 90.4829H18.0879C8.14182 90.4829 0.078125 83.7738 0.078125 75.4999C0.078125 71.363 2.09405 67.6172 5.35079 64.9082C8.61079 62.1959 13.1149 60.517 18.0847 60.517H36.7491C37.5176 80.6279 48.5254 104.768 46.9003 112.661C44.7672 123.001 36.0782 136.129 55.2636 142.861C69.1146 147.719 101.421 133.414 121.897 120.452H144.909C154.855 120.452 162.919 127.161 162.919 135.435V135.432Z" fill="#D9D9D9"/>
<path d="M144.909 150.496H18.0912C8.1158 150.496 0 143.738 0 135.435C0 131.409 1.8824 127.624 5.30198 124.778C8.60432 122.033 12.9553 120.478 17.6027 120.377V120.371C22.3934 120.371 26.8942 118.819 30.2845 116.002C31.1898 115.249 32.004 114.411 32.701 113.505L32.7628 113.427L32.828 113.505C33.1536 113.899 33.5445 114.239 33.9939 114.512C35.0947 115.187 36.2997 115.353 37.5796 115.008C38.8595 114.662 39.8202 113.913 40.4325 112.781C41.048 111.644 41.1652 110.353 40.7842 108.938C40.4032 107.523 39.6541 106.467 38.5566 105.795C37.6414 105.234 36.6546 105.026 35.619 105.166L35.5311 105.179V105.088C35.4952 104.09 35.3487 103.102 35.0849 102.154L35.0654 102.089L35.124 102.059C36.9836 101.127 37.9671 99.0535 37.5144 97.0225L32.727 75.5489C32.3981 74.0753 31.5057 72.8333 30.2161 72.0509C28.9264 71.2685 27.4153 71.0533 25.9595 71.4478C23.5723 72.09 21.9049 74.2677 21.9049 76.7388C21.9049 77.293 21.9928 77.8504 22.1589 78.3883L26.6434 92.5954L26.4741 92.5172C23.7905 91.2425 20.7227 90.5709 17.6092 90.5709V90.5644C7.85526 90.3493 0.00325674 83.676 0.00325674 75.5065C0.00325674 71.4804 1.88565 67.6955 5.30523 64.8495C8.7183 62.0068 13.2582 60.442 18.0912 60.442H36.8338V60.5203C37.2441 71.1511 40.5823 83.1577 43.2658 92.804C45.6758 101.466 47.7536 108.948 46.985 112.684C46.5975 114.551 46.0113 116.472 45.3892 118.506C44.0019 123.041 42.5689 127.732 43.4352 131.986C44.4155 136.801 48.2942 140.335 55.293 142.793C63.1938 145.564 76.3902 141.864 86.0692 138.268C97.6534 133.968 110.697 127.451 121.854 120.387L121.874 120.374H144.909C154.884 120.374 163 127.132 163 135.438C163 139.464 161.118 143.249 157.698 146.095C154.285 148.938 149.745 150.503 144.912 150.503L144.909 150.496ZM18.0912 120.524C13.3005 120.527 8.79972 122.079 5.40945 124.899C2.02895 127.715 0.166094 131.455 0.166094 135.432C0.166094 143.647 8.20699 150.33 18.0945 150.33H144.915C149.709 150.33 154.213 148.778 157.597 145.962C160.981 143.148 162.84 139.409 162.84 135.432C162.84 127.217 154.8 120.53 144.912 120.53H121.926C110.762 127.595 97.7153 134.112 86.1278 138.411C76.4227 142.014 63.1873 145.724 55.2409 142.936C48.1803 140.459 44.2689 136.886 43.2756 132.012C42.4028 127.715 43.8423 123.008 45.2362 118.45C45.8549 116.423 46.4412 114.506 46.8255 112.644C47.5875 108.948 45.513 101.482 43.1095 92.8399C40.4325 83.2066 37.1008 71.2294 36.6807 60.5985H18.0945C13.3005 60.5985 8.79646 62.1503 5.41271 64.9702C2.02569 67.7835 0.162837 71.5228 0.162837 75.5C0.162837 83.7152 8.20374 90.4014 18.0912 90.4014V90.4079C20.9995 90.4731 23.8491 91.1186 26.3731 92.2857L22.0026 78.434C21.8299 77.8798 21.7388 77.306 21.7388 76.7322C21.7388 74.1862 23.4583 71.9466 25.9139 71.2815C27.4153 70.8805 28.972 71.099 30.3007 71.9042C31.6262 72.7094 32.5479 73.9873 32.8866 75.5065L37.674 96.9801C38.1397 99.0632 37.1464 101.185 35.2608 102.167C35.5083 103.08 35.6516 104.031 35.6874 104.983C36.7263 104.86 37.7196 105.084 38.6413 105.645C39.7779 106.34 40.5497 107.432 40.9438 108.886C41.3346 110.34 41.2108 111.673 40.579 112.85C39.9472 114.027 38.9506 114.803 37.6252 115.158C36.2997 115.513 35.0523 115.344 33.9125 114.643C33.4793 114.375 33.095 114.053 32.7726 113.675C32.0822 114.558 31.2778 115.38 30.3919 116.116C27.0896 118.864 22.7386 120.416 18.0912 120.521V120.524Z" fill="#D9D9D9"/>
<path d="M162.919 75.5C162.919 79.6369 160.903 83.3826 157.646 86.095C154.386 88.8073 149.882 90.4829 144.912 90.4829H142.714C140.929 85.7885 136.278 82.0232 129.381 79.6662C125.538 78.3557 122.346 75.4739 119.408 71.6466H132.768C137.311 71.6466 140.151 66.7208 137.877 62.7827L135.663 58.9457C138.083 59.953 140.812 60.517 143.704 60.517H144.909C154.855 60.517 162.919 67.2261 162.919 75.5Z" fill="#D9D9D9"/>
<path d="M144.909 90.5644H142.652L142.632 90.5122C140.851 85.8309 136.259 82.1047 129.351 79.7444C125.811 78.535 122.63 75.9791 119.34 71.6955L119.239 71.5651H132.765C134.868 71.5651 136.751 70.4763 137.803 68.6507C138.858 66.8251 138.858 64.6474 137.803 62.8218L135.468 58.7761L135.689 58.8674C138.187 59.9073 140.88 60.4355 143.697 60.4355H144.902C154.878 60.4355 162.994 67.1934 162.994 75.4999C162.994 79.526 161.108 83.3109 157.688 86.1569C154.275 88.9996 149.735 90.5644 144.902 90.5644H144.909ZM142.766 90.4014H144.909C149.703 90.4014 154.207 88.8496 157.591 86.033C160.974 83.2163 162.834 79.4771 162.834 75.4999C162.834 67.2847 154.793 60.5985 144.906 60.5985H143.701C140.945 60.5985 138.304 60.0997 135.852 59.1119L137.946 62.7435C139.027 64.6213 139.027 66.8577 137.946 68.7354C136.865 70.6099 134.927 71.7314 132.765 71.7314H119.571C122.802 75.9074 125.932 78.4078 129.404 79.5945C136.334 81.9612 140.955 85.7005 142.766 90.4046V90.4014Z" fill="#D9D9D9"/>
<path d="M0.0812988 15.5649C0.0812988 11.428 2.09722 7.68223 5.35397 4.97317C8.61071 2.2641 13.118 0.585205 18.0878 0.585205H144.909C154.855 0.585205 162.918 7.29429 162.918 15.5649C162.918 19.7051 160.903 23.4508 157.646 26.1599C154.389 28.869 149.882 30.5479 144.912 30.5479H143.707C138.734 30.5479 134.23 32.2268 130.973 34.9391C128.57 36.9342 126.844 39.4933 126.104 42.3588L111.648 17.296C109.374 13.3579 103.695 13.3579 101.425 17.296L92.9278 32.0279C84.9227 24.6962 74.169 22.5641 64.1577 24.732C63.3696 20.6994 61.8194 14.3522 59.3377 10.4174C55.472 4.28857 46.073 6.03918 44.5424 12.243C43.409 16.8298 49.1051 25.5079 52.1436 29.7068C51.7202 29.9774 51.3066 30.2577 50.893 30.5511H18.0911C8.14499 30.5511 0.0812988 23.842 0.0812988 15.5649Z" fill="#D9D9D9"/>
<path d="M126.127 42.574L126.026 42.4012L111.57 17.3383C110.518 15.5127 108.632 14.4239 106.528 14.4239C104.424 14.4239 102.542 15.5127 101.487 17.3383L92.9409 32.1583L92.866 32.0898C85.2908 25.1525 74.8302 22.5021 64.1676 24.8135L64.0862 24.833L64.0699 24.7515C63.3632 21.146 61.8 14.4923 59.2597 10.463C57.4945 7.66262 54.3095 6.26082 50.9485 6.80524C47.7927 7.31706 45.3078 9.45888 44.6174 12.2625C43.5101 16.7417 48.8967 25.0873 52.2023 29.6611L52.2512 29.7296L52.1763 29.7785C51.7562 30.0458 51.3393 30.3294 50.9322 30.6163L50.9127 30.6326H18.0912C8.1158 30.6326 0 23.8746 0 15.5649C0 11.5388 1.8824 7.75716 5.30198 4.91118C8.7183 2.06846 13.2582 0.503662 18.088 0.503662H144.909C154.884 0.503662 163 7.26164 163 15.5649C163 19.5942 161.118 23.3791 157.698 26.2251C154.282 29.0678 149.742 30.6326 144.912 30.6326H143.707C138.913 30.6326 134.409 32.1843 131.025 35.0042C128.579 37.0352 126.906 39.5878 126.186 42.3784L126.134 42.5707L126.127 42.574ZM106.531 14.2641C108.694 14.2641 110.632 15.3856 111.713 17.2601L126.072 42.1502C126.827 39.3987 128.501 36.8885 130.918 34.8804C134.334 32.0376 138.874 30.4696 143.704 30.4696H144.909C149.699 30.4696 154.204 28.9178 157.591 26.1012C160.974 23.2878 162.834 19.5453 162.834 15.5681C162.834 7.35292 154.793 0.669922 144.906 0.669922H18.0912C13.2973 0.669922 8.79321 2.22168 5.40945 5.03832C2.02569 7.8517 0.162837 11.5942 0.162837 15.5649C0.162837 23.7801 8.20374 30.4663 18.0912 30.4663H50.8671C51.2449 30.199 51.6357 29.9349 52.0265 29.6839C48.6981 25.071 43.3505 16.7417 44.4643 12.2201C45.171 9.3513 47.708 7.16384 50.929 6.64224C54.3583 6.08804 57.6053 7.51592 59.4063 10.3717C61.8195 14.1989 63.3534 20.2234 64.223 24.6342C74.8725 22.3489 85.3202 24.9928 92.9084 31.8975L101.353 17.2535C102.434 15.379 104.369 14.2576 106.535 14.2576L106.531 14.2641Z" fill="#D9D9D9"/>
<path d="M41.8101 39.8649C41.0318 41.0385 40.3218 42.2708 39.6802 43.5585C37.9346 47.0695 37.0585 51.0989 36.798 55.4184C35.961 55.6531 35.0817 55.777 34.1698 55.777C28.7669 55.777 24.3833 51.3923 24.3833 45.9807C24.3833 40.5691 28.7636 36.1876 34.1698 36.1876C37.2605 36.1876 40.0157 37.622 41.8101 39.8616V39.8649Z" fill="#D9D9D9"/>
<path d="M34.1665 55.8584C28.7278 55.8584 24.2986 51.4281 24.2986 45.9806C24.2986 40.5332 28.7245 36.1061 34.1665 36.1061C37.179 36.1061 39.9863 37.4557 41.8687 39.8127L41.9078 39.8616L41.8752 39.9105C41.1001 41.0808 40.3869 42.3196 39.7518 43.5943C38.1202 46.8739 37.1529 50.8543 36.8794 55.4216V55.4803L36.8208 55.4966C35.961 55.7345 35.0719 55.8552 34.1698 55.8552L34.1665 55.8584ZM34.1665 36.2723C28.8157 36.2723 24.4614 40.6277 24.4614 45.9839C24.4614 51.3401 28.8124 55.6987 34.1665 55.6987C35.0328 55.6987 35.8926 55.5846 36.7198 55.3596C36.9999 50.7924 37.9736 46.8087 39.6053 43.5258C40.2338 42.261 40.9438 41.0352 41.7059 39.8746C39.856 37.5861 37.1106 36.2756 34.1665 36.2756V36.2723Z" fill="#D9D9D9"/>
</g>
<g opacity="0.5">
<path d="M129.377 79.6663C125.538 78.3558 122.346 75.4707 119.409 71.6434H80.3016C75.7551 71.6434 72.9153 66.7176 75.1885 62.7795L92.9247 32.0279C84.9196 24.6962 74.1659 22.5609 64.1546 24.732C59.9306 25.6448 55.8369 27.327 52.1405 29.7068C46.9818 33.0255 42.5917 37.7036 39.6802 43.5585C29.4736 64.077 49.0368 102.317 46.9037 112.658C44.7705 122.998 36.0848 136.126 55.267 142.858C74.4492 149.587 129.052 119.549 138.558 107.243C148.071 94.9329 143.316 84.4292 129.377 79.6696H129.374L129.377 79.6663ZM101.588 128.892C75.9994 140.661 52.2643 143.693 48.5809 135.66C45.4511 128.837 57.8007 116.221 77.2891 105.362C80.7314 103.441 84.3985 101.577 88.2382 99.8098C92.0844 98.0397 95.8818 96.4716 99.5815 95.1057C120.506 87.3795 138.119 86.2156 141.248 93.0388C144.935 101.068 127.179 117.124 101.588 128.892Z" fill="#D9D9D9"/>
</g>
<path d="M61.9139 144.319C59.2792 144.319 57.006 143.986 55.1073 143.321C38.9409 137.649 42.0771 127.386 44.8453 118.33C45.4641 116.312 46.0471 114.401 46.4281 112.563C47.1707 108.961 45.1059 101.541 42.7154 92.9507C40.5106 85.0256 38.0127 76.0411 36.8598 67.2977C35.518 57.1037 36.2964 49.2699 39.2405 43.3433C42.0706 37.6546 46.4379 32.7972 51.8734 29.2959C55.6154 26.89 59.7124 25.1916 64.0504 24.256C74.8953 21.9022 85.5383 24.608 93.2536 31.6692L93.5434 31.9365L75.6085 63.0304C74.6283 64.7256 74.6283 66.7501 75.6085 68.4485C76.5888 70.147 78.3409 71.1608 80.2982 71.1608H119.646L119.793 71.3532C123.014 75.5455 126.108 78.0394 129.534 79.2098C137.063 81.7819 141.883 85.9254 143.463 91.187C144.948 96.139 143.385 101.795 138.946 107.542C134.057 113.87 117.995 124.423 100.751 132.631C91.4721 137.049 82.6236 140.403 75.1591 142.336C70.0525 143.66 65.6266 144.322 61.9139 144.322H61.9107L61.9139 144.319ZM71.6711 24.4059C69.2351 24.4059 66.7535 24.67 64.2555 25.2111C60.0315 26.1239 56.042 27.7735 52.401 30.1174C47.1153 33.5209 42.8652 38.2446 40.1133 43.7736C37.2539 49.5177 36.5081 57.1689 37.8238 67.1641C38.9669 75.8389 41.4551 84.7877 43.6501 92.6801C46.1741 101.753 48.1672 108.918 47.3758 112.752C46.9883 114.639 46.3956 116.566 45.7735 118.61C43.0053 127.666 40.1393 137.029 55.4232 142.392C57.2112 143.018 59.3834 143.327 61.8944 143.327C70.9547 143.327 84.4376 139.308 100.327 131.745C117.174 123.725 133.442 113.058 138.171 106.939C142.411 101.45 143.915 96.0998 142.525 91.4641C141.04 86.5154 136.438 82.5969 129.218 80.1291C125.655 78.9131 122.457 76.3703 119.167 72.1323H80.3015C77.9892 72.1323 75.9179 70.9359 74.7618 68.931C73.6056 66.9261 73.6056 64.5365 74.7618 62.5349L92.3026 32.1256C86.6391 27.0693 79.3896 24.4027 71.6711 24.4027V24.4059Z" fill="#D9D9D9"/>
<path d="M101.591 128.892C75.9993 140.661 52.2674 143.693 48.5808 135.66C45.451 128.837 57.8006 116.221 77.2889 105.362C77.2824 105.547 77.2759 105.737 77.2759 105.929C77.2759 113.544 83.4409 119.715 91.0487 119.715C98.6564 119.715 104.821 113.544 104.821 105.929C104.821 101.541 102.773 97.6321 99.5846 95.1056C120.509 87.3794 138.118 86.2156 141.251 93.0388C144.938 101.068 127.182 117.124 101.591 128.892Z" fill="#D9D9D9"/>
<path d="M60.3376 140.24C54 140.24 49.8802 138.689 48.5092 135.699C45.412 128.951 57.2307 116.449 77.2532 105.293L77.3802 105.221L77.3737 105.368C77.3672 105.554 77.3606 105.743 77.3606 105.932C77.3606 113.489 83.5029 119.637 91.052 119.637C98.6011 119.637 104.743 113.489 104.743 105.932C104.743 101.71 102.845 97.7918 99.5358 95.1773L99.4218 95.086L99.5586 95.0371C121.056 87.099 138.232 86.2677 141.326 93.0094C143.124 96.9279 139.975 102.829 132.455 109.629C124.958 116.406 114.009 123.275 101.627 128.97C89.2412 134.666 76.9047 138.509 66.8837 139.787C64.4998 140.09 62.308 140.244 60.3376 140.244V140.24ZM77.2043 105.508C67.7435 110.789 59.6896 116.674 54.5113 122.085C49.2517 127.585 47.1706 132.393 48.6557 135.634C52.3163 143.611 76.0482 140.556 101.555 128.824C127.065 117.091 144.84 101.055 141.177 93.0779C139.691 89.8407 134.689 88.2889 127.091 88.7029C119.62 89.1104 109.912 91.3957 99.7442 95.1382C103.021 97.7853 104.9 101.71 104.9 105.932C104.9 113.577 98.6825 119.8 91.0455 119.8C83.4084 119.8 77.1913 113.58 77.1913 105.932C77.1913 105.789 77.1913 105.648 77.1978 105.508H77.2043Z" fill="#D9D9D9"/>
<path d="M60.3768 140.645C53.8438 140.645 49.5775 139.008 48.1347 135.869C46.5227 132.354 48.5842 127.451 54.0978 121.691C59.3347 116.217 67.4863 110.268 77.0514 104.938L77.8167 104.511L77.7776 105.388C77.7679 105.567 77.7646 105.75 77.7646 105.929C77.7646 113.261 83.7244 119.226 91.0489 119.226C98.3733 119.226 104.333 113.261 104.333 105.929C104.333 101.834 102.493 98.0299 99.2819 95.4903L98.598 94.9492L99.4154 94.646C109.684 90.8546 119.503 88.54 127.065 88.126C135.025 87.6924 140.086 89.3192 141.698 92.8334C143.577 96.928 140.392 102.998 132.729 109.926C125.202 116.729 114.217 123.624 101.796 129.336C89.3749 135.047 76.996 138.901 66.9359 140.185C64.552 140.491 62.3602 140.641 60.3768 140.641H60.3801L60.3768 140.645ZM76.7908 106.206C67.6296 111.38 59.8427 117.101 54.8046 122.366C49.6687 127.738 47.6137 132.387 49.0238 135.461C50.6848 139.083 57.1689 140.452 66.8089 139.22C76.7713 137.945 89.0525 134.121 101.386 128.452C113.719 122.78 124.616 115.944 132.074 109.205C139.288 102.685 142.47 96.8661 140.809 93.2475C139.398 90.1733 134.536 88.7063 127.117 89.1073C119.845 89.505 110.436 91.6924 100.546 95.2784C103.584 97.9875 105.313 101.821 105.313 105.932C105.313 113.802 98.9139 120.208 91.0521 120.208C83.1903 120.208 76.9406 113.952 76.7941 106.206H76.7908Z" fill="#D9D9D9"/>
<path d="M60.3768 140.726C53.7689 140.726 49.509 139.057 48.063 135.901C46.4379 132.354 48.5027 127.419 54.0424 121.629C59.2825 116.149 67.4407 110.196 77.0122 104.863L77.9046 104.367L77.8557 105.391C77.8492 105.567 77.8427 105.75 77.8427 105.929C77.8427 113.215 83.7667 119.145 91.0455 119.145C98.3244 119.145 104.248 113.218 104.248 105.929C104.248 101.86 102.418 98.0788 99.2265 95.5555L98.4286 94.9231L99.3828 94.571C109.661 90.7764 119.487 88.4585 127.055 88.0445C135.054 87.6076 140.138 89.2507 141.766 92.7976C143.661 96.928 140.47 103.031 132.781 109.984C125.248 116.794 114.253 123.689 101.825 129.407C89.3976 135.122 77.009 138.979 66.9424 140.263C64.5747 140.566 62.3667 140.72 60.3768 140.72V140.726ZM77.7287 104.654L77.0904 105.01C67.5319 110.336 59.3867 116.276 54.1597 121.746C48.6721 127.481 46.6171 132.354 48.2129 135.836C49.6328 138.93 53.8405 140.566 60.38 140.566C62.3634 140.566 64.565 140.413 66.9261 140.11C76.9764 138.826 89.3488 134.975 101.763 129.267C114.175 123.559 125.157 116.667 132.676 109.87C140.31 102.969 143.489 96.9312 141.626 92.8725C140.03 89.3909 134.999 87.7837 127.075 88.214C119.523 88.628 109.71 90.9394 99.4479 94.7307L98.7673 94.9818L99.3372 95.4316C102.568 97.9875 104.421 101.811 104.421 105.932C104.421 113.309 98.4253 119.311 91.0553 119.311C83.6853 119.311 77.6896 113.309 77.6896 105.932C77.6896 105.75 77.6962 105.567 77.7027 105.384L77.7352 104.654H77.7287ZM60.4354 139.742C54.2997 139.742 50.2255 138.275 48.9521 135.494C47.5257 132.387 49.5839 127.702 54.7491 122.31C59.7776 117.055 67.5937 111.308 76.7517 106.137L76.8689 106.072V106.209C77.0155 113.887 83.3759 120.129 91.0488 120.129C98.7217 120.129 105.229 113.763 105.229 105.935C105.229 101.89 103.499 98.0266 100.49 95.3436L100.389 95.2523L100.516 95.2067C110.404 91.6207 119.848 89.4267 127.111 89.029C134.565 88.6215 139.457 90.1113 140.88 93.2148C142.557 96.8693 139.366 102.721 132.126 109.267C124.665 116.012 113.758 122.851 101.418 128.527C89.0785 134.203 76.7908 138.03 66.8186 139.305C64.5031 139.601 62.3634 139.745 60.4354 139.745V139.742ZM76.7126 106.34C67.6165 111.487 59.8622 117.195 54.8631 122.418C49.75 127.764 47.7015 132.38 49.0987 135.422C50.7433 139.008 57.195 140.361 66.7991 139.135C76.755 137.864 89.0264 134.043 101.353 128.374C113.68 122.705 124.57 115.875 132.019 109.14C139.203 102.646 142.382 96.8628 140.734 93.2768C139.34 90.2385 134.504 88.7845 127.12 89.1855C119.907 89.5767 110.527 91.7511 100.702 95.3045C103.685 98.0136 105.395 101.877 105.395 105.926C105.395 113.844 98.9594 120.283 91.0521 120.283C87.2775 120.283 83.7081 118.819 81.0083 116.162C78.341 113.541 76.8201 110.056 76.7159 106.336L76.7126 106.34Z" fill="#D9D9D9"/>
<g opacity="0.75">
<path d="M104.821 105.932C104.821 113.547 98.6564 119.719 91.0486 119.719C83.4409 119.719 77.2759 113.547 77.2759 105.932C77.2759 105.74 77.2824 105.554 77.2889 105.365C80.7313 103.445 84.3984 101.58 88.2413 99.8131C92.0843 98.0429 95.8849 96.4748 99.5846 95.1089C102.776 97.6321 104.821 101.541 104.821 105.932Z" fill="#D9D9D9"/>
<path d="M91.0488 119.8C83.4117 119.8 77.1946 113.577 77.1946 105.932C77.1946 105.74 77.2011 105.551 77.2076 105.365V105.319L77.2499 105.296C80.7379 103.35 84.4245 101.482 88.2056 99.7413C91.99 98.0005 95.8101 96.4161 99.5554 95.0339L99.5977 95.0176L99.6335 95.0469C102.981 97.694 104.903 101.661 104.903 105.932C104.903 113.577 98.6891 119.8 91.0488 119.8ZM77.3704 105.414C77.3639 105.583 77.3574 105.756 77.3574 105.932C77.3574 113.489 83.4996 119.637 91.0488 119.637C98.5979 119.637 104.74 113.489 104.74 105.932C104.74 101.727 102.858 97.8179 99.5684 95.2034C95.8427 96.5791 92.0421 98.157 88.274 99.888C84.5092 101.619 80.8421 103.477 77.3672 105.414H77.3704Z" fill="#D9D9D9"/>
</g>
<path d="M91.0489 120.208C83.1838 120.208 76.7876 113.802 76.7876 105.932C76.7876 105.733 76.7941 105.538 76.8006 105.342L76.8137 105.068L77.0514 104.938C80.5491 102.985 84.2423 101.114 88.0364 99.3664C91.8305 97.6223 95.6604 96.0347 99.4155 94.6492L99.6727 94.5547L99.8877 94.7242C103.337 97.4496 105.313 101.534 105.313 105.929C105.313 113.798 98.9139 120.204 91.0521 120.204L91.0489 120.208ZM77.7679 105.658C77.7679 105.75 77.7646 105.841 77.7646 105.932C77.7646 113.264 83.7245 119.23 91.0489 119.23C98.3733 119.23 104.333 113.264 104.333 105.932C104.333 101.929 102.571 98.2026 99.4936 95.6663C95.8461 97.0225 92.1301 98.5645 88.4467 100.26C84.7634 101.955 81.1744 103.771 77.7679 105.661V105.658Z" fill="#D9D9D9"/>
<path d="M91.0488 120.289C83.1414 120.289 76.7061 113.847 76.7061 105.932C76.7061 105.733 76.7126 105.534 76.7191 105.339L76.7354 105.023L77.0122 104.866C80.5099 102.917 84.2063 101.042 88.0037 99.2947C91.8011 97.5506 95.6277 95.963 99.386 94.5742L99.6856 94.4634L99.9364 94.6622C103.402 97.4039 105.391 101.511 105.391 105.932C105.391 113.847 98.9561 120.289 91.0488 120.289ZM76.8917 105.117L76.8819 105.345C76.8754 105.538 76.8689 105.733 76.8689 105.929C76.8689 113.756 83.2293 120.123 91.0488 120.123C98.8682 120.123 105.229 113.756 105.229 105.929C105.229 101.56 103.265 97.4984 99.8354 94.7861L99.6563 94.6427L99.4414 94.7209C95.6864 96.1064 91.8629 97.6908 88.0688 99.4381C84.278 101.182 80.5848 103.053 77.0871 105.003L76.8884 105.114L76.8917 105.117ZM91.0488 119.311C83.6787 119.311 77.6831 113.309 77.6831 105.932C77.6831 105.841 77.6831 105.749 77.6863 105.658V105.609L77.7287 105.586C81.132 103.696 84.7274 101.877 88.4108 100.185C92.0942 98.4927 95.8166 96.9442 99.4674 95.5881L99.5098 95.5718L99.5456 95.6011C102.643 98.1504 104.414 101.916 104.414 105.932C104.414 113.309 98.4188 119.311 91.0488 119.311ZM77.8459 105.704C77.8459 105.779 77.8459 105.854 77.8459 105.929C77.8459 113.218 83.7699 119.145 91.0488 119.145C98.3276 119.145 104.252 113.218 104.252 105.929C104.252 101.978 102.512 98.2711 99.4772 95.7576C95.8427 97.1072 92.143 98.646 88.4759 100.331C84.8121 102.017 81.2362 103.826 77.8459 105.707V105.704Z" fill="#D9D9D9"/>
<path d="M48.0988 111.999C48.0337 111.999 47.9685 111.986 47.9034 111.96C47.6559 111.852 47.5419 111.565 47.6494 111.318C47.7015 111.194 49.0107 108.25 53.8404 103.846C58.2566 99.8228 66.6069 93.7494 81.3176 87.6891C81.5651 87.5848 81.8517 87.7054 81.9559 87.9532C82.0569 88.2042 81.9396 88.4911 81.6888 88.5921C53.8469 100.067 48.6003 111.591 48.5482 111.702C48.4701 111.888 48.2877 111.999 48.0988 111.999Z" fill="#D9D9D9"/>
<path d="M48.0988 112.08C48.0206 112.08 47.9425 112.064 47.8708 112.035C47.581 111.908 47.4474 111.572 47.5744 111.285C47.6265 111.161 48.9423 108.201 53.785 103.787C58.2044 99.7576 66.5645 93.681 81.285 87.6141C81.5748 87.4967 81.907 87.6337 82.0308 87.9238C82.1513 88.2172 82.0112 88.5497 81.7214 88.6703C53.9088 100.136 48.672 111.624 48.6264 111.741C48.5352 111.95 48.33 112.084 48.102 112.084L48.0988 112.08ZM81.4999 87.7315C81.4478 87.7315 81.3957 87.7412 81.3436 87.7608C66.6459 93.8211 58.3054 99.8847 53.8925 103.904C49.0725 108.296 47.7764 111.223 47.7242 111.347C47.6363 111.556 47.7308 111.794 47.9359 111.885C48.1379 111.973 48.3854 111.875 48.4733 111.673C48.5221 111.559 53.785 100.009 81.6563 88.5171C81.7572 88.478 81.8354 88.3965 81.8777 88.2954C81.9201 88.1944 81.9201 88.0835 81.8777 87.9857C81.8126 87.8293 81.6628 87.7315 81.4999 87.7315Z" fill="#D9D9D9"/>
<path d="M85.6783 87.3925C85.4797 87.3925 85.294 87.2751 85.2224 87.0795C85.1247 86.8252 85.2517 86.5449 85.5057 86.4471C85.6165 86.4047 96.9141 82.1145 106.486 81.1528C106.753 81.1268 106.994 81.3224 107.023 81.5929C107.052 81.8635 106.854 82.1015 106.583 82.1276C97.1421 83.0762 85.9649 87.3208 85.8542 87.3632C85.7988 87.3827 85.7402 87.3957 85.6816 87.3957L85.6783 87.3925Z" fill="#D9D9D9"/>
<path d="M85.6783 87.4739C85.4438 87.4739 85.2289 87.3272 85.1442 87.1088C85.0302 86.8154 85.18 86.4862 85.4731 86.3721C85.5871 86.3264 96.9304 82.0297 106.476 81.0713C106.789 81.0387 107.069 81.2702 107.098 81.5799C107.13 81.8928 106.903 82.1732 106.59 82.2025C97.1355 83.1512 85.991 87.3892 85.8802 87.4348C85.8151 87.4576 85.7467 87.4707 85.6783 87.4707V87.4739ZM106.531 81.231C106.531 81.231 106.505 81.231 106.492 81.231C96.9662 82.1895 85.6458 86.4796 85.5318 86.522C85.3201 86.6003 85.2159 86.8382 85.2973 87.0469C85.3754 87.249 85.6132 87.3631 85.8216 87.2816C85.9323 87.2392 97.0965 82.9947 106.574 82.0395C106.795 82.0167 106.961 81.8178 106.938 81.5929C106.919 81.3843 106.74 81.2278 106.534 81.2278L106.531 81.231Z" fill="#D9D9D9"/>
<path d="M43.458 73.5929C43.2496 73.5929 43.0542 73.4559 42.9923 73.244C39.7388 62.3556 41.1881 53.3646 42.976 47.7411C44.9203 41.6351 47.5973 38.1534 47.7113 38.0067C47.8774 37.7948 48.1836 37.7557 48.3953 37.9219C48.6069 38.0882 48.646 38.3946 48.4799 38.6098C48.4539 38.6424 45.7768 42.1273 43.8912 48.0801C42.1521 53.5634 40.7484 62.3361 43.927 72.9637C44.0052 73.2245 43.8553 73.4951 43.5981 73.57C43.5492 73.5863 43.5036 73.5896 43.458 73.5896V73.5929Z" fill="#D9D9D9"/>
<path d="M43.4579 73.6744C43.2104 73.6744 42.9857 73.5081 42.914 73.2669C39.654 62.3622 41.1065 53.3515 42.8978 47.715C44.842 41.596 47.5321 38.1012 47.6461 37.9578C47.8382 37.71 48.1965 37.6644 48.444 37.8567C48.6915 38.0523 48.7371 38.4077 48.5417 38.6554C48.5156 38.6913 45.8451 42.1697 43.9692 48.1029C42.2334 53.5797 40.833 62.3296 44.0018 72.9376C44.0474 73.0843 44.0311 73.2375 43.9562 73.3744C43.8813 73.5114 43.764 73.6059 43.6175 73.6515C43.5654 73.6678 43.5068 73.6744 43.4547 73.6744H43.4579ZM48.0988 37.8991C47.9783 37.8991 47.8578 37.9513 47.7764 38.0556C47.6624 38.199 44.9918 41.6709 43.0541 47.7639C41.2694 53.3776 39.8201 62.3491 43.0704 73.218C43.1322 73.4266 43.3667 73.5537 43.5784 73.4918C43.6826 73.4592 43.7706 73.3907 43.8194 73.2929C43.8715 73.1951 43.8813 73.0876 43.852 72.9832C40.6669 62.3361 42.0771 53.5471 43.8162 48.0508C45.7051 42.0947 48.3919 38.5902 48.4179 38.5544C48.558 38.3751 48.5222 38.1208 48.3463 37.9806C48.2714 37.9219 48.1835 37.8926 48.0988 37.8926V37.8991Z" fill="#D9D9D9"/>
<path d="M48.0988 91.8098C47.8806 91.8098 47.6787 91.6631 47.6233 91.4381L44.3405 78.3101C44.2754 78.0461 44.4349 77.782 44.6955 77.7168C44.956 77.6516 45.2231 77.8081 45.2882 78.0721L48.571 91.2002C48.6361 91.4642 48.4766 91.7283 48.216 91.7935C48.1769 91.8033 48.1379 91.8098 48.0988 91.8098Z" fill="#D9D9D9"/>
<path d="M48.0988 91.8912C47.835 91.8912 47.6103 91.7119 47.5452 91.4609L44.2624 78.3329C44.2266 78.1829 44.2461 78.0297 44.3243 77.8993C44.4024 77.7689 44.5262 77.6776 44.676 77.6385C44.8258 77.5994 44.9756 77.6222 45.1059 77.7004C45.2362 77.7787 45.3273 77.9026 45.3664 78.0493L48.6492 91.1773C48.6851 91.3272 48.6655 91.4805 48.5841 91.6109C48.5027 91.7413 48.3822 91.8325 48.2356 91.8717C48.19 91.8847 48.1444 91.8912 48.0956 91.8912H48.0988ZM44.816 77.7852C44.7835 77.7852 44.7509 77.7917 44.7183 77.7982C44.6109 77.8243 44.5229 77.8895 44.4676 77.9841C44.4122 78.0753 44.3959 78.1862 44.422 78.2938L47.7048 91.4218C47.7569 91.6337 47.9849 91.7706 48.1965 91.7184C48.3008 91.6924 48.3919 91.6272 48.4473 91.5326C48.5027 91.4413 48.519 91.3305 48.4929 91.2229L45.2101 78.0949C45.1841 77.9906 45.1189 77.8993 45.0245 77.8439C44.9626 77.8048 44.8909 77.7852 44.816 77.7852Z" fill="#D9D9D9"/>
<g opacity="0.75">
<path d="M64.1544 24.7352C59.9304 25.648 55.8367 27.3302 52.1403 29.71C49.105 25.5111 43.409 16.8363 44.539 12.2462C46.0697 6.04567 55.4687 4.29505 59.3344 10.4206C61.8161 14.3554 63.3663 20.7059 64.1544 24.7352Z" fill="#D9D9D9"/>
<path d="M52.1176 29.8209L52.072 29.7589C48.7469 25.1623 43.3374 16.7711 44.4577 12.2266C45.1645 9.35784 47.7015 7.17038 50.9224 6.64878C54.3517 6.09458 57.5987 7.52246 59.3997 10.3782C61.8227 14.225 63.3664 20.3017 64.2294 24.7222L64.2457 24.8005L64.1676 24.8168C59.898 25.7393 55.8629 27.4085 52.1795 29.7785L52.1143 29.8209H52.1176ZM52.3781 6.69116C51.9092 6.69116 51.4337 6.72702 50.9517 6.80526C47.7959 7.31708 45.311 9.4589 44.6206 12.2625C43.4807 16.8852 49.4764 25.8763 52.1599 29.5992C55.8205 27.2552 59.8231 25.5992 64.0568 24.6733C63.1905 20.2756 61.6599 14.2674 59.2629 10.463C57.7485 8.06362 55.192 6.69116 52.3749 6.69116H52.3781Z" fill="#D9D9D9"/>
</g>
<path d="M52.0166 30.3685L51.7463 29.9936C48.3788 25.3416 42.9075 16.8265 44.0702 12.1256C44.816 9.10027 47.4832 6.78893 50.8637 6.24451C54.4559 5.66423 57.8592 7.16383 59.7481 10.1598C62.207 14.062 63.7604 20.1908 64.6365 24.644L64.7277 25.1134L64.2587 25.2145C60.0347 26.1273 56.0452 27.7768 52.4042 30.1208L52.0166 30.3685ZM52.3325 7.10515C51.8766 7.10515 51.4369 7.14101 51.0168 7.20947C47.975 7.70173 45.6757 9.67403 45.0146 12.3603C43.9464 16.6961 49.522 25.2079 52.2674 29.0482C55.7651 26.8575 59.569 25.2829 63.5813 24.3603C62.842 20.6961 61.3179 14.4825 58.9209 10.6781C57.2502 8.03099 54.6155 7.10189 52.3325 7.10189V7.10515Z" fill="#D9D9D9"/>
<path d="M51.9938 30.4794L51.6779 30.0426C48.3039 25.3775 42.8196 16.8428 43.9855 12.106C44.741 9.04816 47.4344 6.71726 50.8474 6.16306C54.4722 5.57626 57.908 7.09216 59.8132 10.1142C62.2786 14.0262 63.8353 20.1648 64.7114 24.6244L64.8189 25.1754L64.2717 25.2927C60.0575 26.2023 56.081 27.8518 52.4465 30.1893L51.9905 30.4794H51.9938ZM52.3814 6.20218C51.8831 6.20218 51.3815 6.2413 50.8735 6.32606C47.5256 6.86722 44.8811 9.15248 44.1451 12.1452C42.9922 16.82 48.4537 25.3025 51.8082 29.948L52.0329 30.261L52.3586 30.0523C56.0094 27.7051 60.0054 26.0491 64.2392 25.133L64.63 25.0482L64.5551 24.657C63.6823 20.2104 62.132 14.0946 59.6797 10.2022C58.0741 7.6594 55.3678 6.20218 52.3846 6.20218H52.3814ZM52.2446 29.1591L52.199 29.0972C49.6522 25.5307 43.8454 16.7613 44.9332 12.3408C45.6041 9.62192 47.9294 7.6268 51.0005 7.12802C51.4336 7.0563 51.8798 7.0237 52.3292 7.0237C55.1138 7.0237 57.54 8.34074 58.986 10.639C61.4221 14.5054 62.9593 20.8885 63.6595 24.3473L63.6757 24.4256L63.5976 24.4451C59.595 25.3645 55.7977 26.9358 52.3064 29.1232L52.2413 29.1624L52.2446 29.1591ZM52.3325 7.1867C51.8928 7.1867 51.4564 7.22256 51.0298 7.29102C48.0238 7.77676 45.7474 9.72624 45.0928 12.3799C44.0246 16.7059 49.7304 25.3547 52.2902 28.9407C55.7521 26.7826 59.5201 25.221 63.4901 24.3017C62.7834 20.8331 61.2592 14.5413 58.8558 10.7271C57.4391 8.47766 55.0617 7.18996 52.3358 7.18996L52.3325 7.1867Z" fill="#D9D9D9"/>
<g opacity="0.75">
<path d="M137.878 62.7828L111.644 17.2993C109.371 13.3612 103.692 13.3612 101.422 17.2993L92.9247 32.0312L75.1885 62.7828C72.9153 66.7209 75.7552 71.6467 80.3016 71.6467H132.768C137.311 71.6467 140.151 66.7209 137.878 62.7828ZM133.543 66.1862C133.334 66.5448 132.846 67.1447 131.882 67.1447H81.1874C80.2201 67.1447 79.7316 66.5416 79.5265 66.1862C79.3213 65.8276 79.0445 65.1006 79.5265 64.2661L104.874 20.318C105.356 19.4835 106.121 19.3596 106.538 19.3596C106.955 19.3596 107.717 19.4835 108.199 20.318L133.546 64.2661C134.028 65.1006 133.755 65.8276 133.546 66.1862H133.543Z" fill="#D9D9D9"/>
<path d="M132.768 71.7282H80.2983C78.1326 71.7282 76.1948 70.6067 75.1168 68.7322C74.0356 66.8577 74.0356 64.6181 75.1168 62.7436L92.8563 31.992L101.353 17.2601C102.434 15.3856 104.369 14.2642 106.531 14.2642C108.694 14.2642 110.632 15.3856 111.716 17.2601L137.949 62.7436C139.03 64.6181 139.03 66.8577 137.949 68.7355C136.868 70.6133 134.93 71.7314 132.768 71.7314V71.7282ZM106.531 14.4272C104.428 14.4272 102.542 15.516 101.49 17.3416L92.9931 32.0735L75.2536 62.8251C74.2017 64.6507 74.2017 66.8284 75.2536 68.6507C76.3056 70.4763 78.1912 71.5652 80.2983 71.5652H132.764C134.868 71.5652 136.754 70.4763 137.806 68.6507C138.858 66.8251 138.858 64.6475 137.806 62.8219L111.573 17.3383C110.521 15.5127 108.635 14.4239 106.531 14.4239V14.4272ZM131.879 67.2261H81.1842C80.1811 67.2261 79.6665 66.5969 79.4516 66.2253C79.2366 65.8504 78.95 65.0908 79.4516 64.2237L104.799 20.2756C105.3 19.4052 106.098 19.2748 106.531 19.2748C106.965 19.2748 107.759 19.4052 108.264 20.2756L133.611 64.2237C134.116 65.0973 133.826 65.8504 133.611 66.2253C133.396 66.6002 132.882 67.2261 131.879 67.2261ZM106.531 19.4378C106.134 19.4378 105.398 19.5584 104.939 20.3571L79.5916 64.3052C79.1291 65.1039 79.3929 65.8015 79.5916 66.1438C79.7903 66.4861 80.2625 67.0631 81.1842 67.0631H131.879C132.8 67.0631 133.269 66.4861 133.471 66.1438C133.67 65.8015 133.934 65.1071 133.471 64.3052L108.124 20.3571C107.661 19.5584 106.929 19.4378 106.531 19.4378Z" fill="#D9D9D9"/>
</g>
<path d="M132.768 72.1356H80.2983C77.986 72.1356 75.9179 70.9392 74.7651 68.9343C73.6122 66.9294 73.6089 64.5398 74.7651 62.5381L92.5045 31.7866L100.998 17.0546C102.154 15.053 104.222 13.8566 106.531 13.8566C108.84 13.8566 110.912 15.0497 112.068 17.0546L138.304 62.5381C139.46 64.543 139.46 66.9359 138.304 68.9375C137.148 70.9424 135.08 72.1356 132.771 72.1356H132.768ZM106.531 14.8346C104.574 14.8346 102.822 15.8484 101.845 17.5436L93.3513 32.2756L75.6118 63.0271C74.6315 64.7223 74.6315 66.7501 75.6118 68.4453C76.5921 70.1405 78.3442 71.1576 80.3015 71.1576H132.768C134.725 71.1576 136.477 70.1437 137.454 68.4485C138.431 66.7533 138.434 64.7223 137.454 63.0271L111.221 17.5436C110.244 15.8484 108.489 14.8346 106.531 14.8346Z" fill="#D9D9D9"/>
<path d="M132.768 72.2171H80.2982C77.9566 72.2171 75.8625 71.0044 74.6901 68.9767C73.5177 66.949 73.5209 64.5268 74.6901 62.4958L92.4263 31.7442L100.923 17.0123C102.092 14.9846 104.186 13.7719 106.525 13.7719C108.863 13.7719 110.96 14.9846 112.133 17.0123L138.369 62.4958C139.538 64.5268 139.538 66.949 138.369 68.9767C137.2 71.0044 135.106 72.2171 132.768 72.2171ZM106.531 13.9381C104.248 13.9381 102.206 15.1182 101.066 17.097L92.5729 31.829L74.8334 62.5806C73.6903 64.5594 73.6903 66.9196 74.8334 68.8985C75.9733 70.8773 78.0185 72.0574 80.2982 72.0574H132.764C135.044 72.0574 137.086 70.8773 138.226 68.8985C139.369 66.9196 139.369 64.5594 138.226 62.5806L111.99 17.097C110.85 15.1182 108.808 13.9381 106.525 13.9381H106.531ZM132.768 71.2391H80.2982C78.3116 71.2391 76.5302 70.209 75.5369 68.4877C74.5436 66.7664 74.5436 64.7093 75.5369 62.9848L93.2763 32.2332L101.773 17.5013C102.766 15.78 104.545 14.7499 106.528 14.7499C108.511 14.7499 110.296 15.7767 111.286 17.5013L137.519 62.9848C138.513 64.7061 138.513 66.7664 137.519 68.4877C136.526 70.209 134.748 71.2391 132.761 71.2391H132.764H132.768ZM106.528 14.9161C104.6 14.9161 102.874 15.9137 101.913 17.586L93.4164 32.318L75.6802 63.0696C74.7162 64.7387 74.7162 66.7371 75.6802 68.4095C76.6442 70.0818 78.3702 71.0794 80.2982 71.0794H132.768C134.692 71.0794 136.418 70.0818 137.382 68.4095C138.346 66.7371 138.35 64.742 137.382 63.0696L111.149 17.586C110.185 15.9169 108.456 14.9161 106.528 14.9161Z" fill="#D9D9D9"/>
<g opacity="0.25">
<path d="M133.543 66.1861C133.334 66.5447 132.843 67.1446 131.882 67.1446H81.1874C80.2201 67.1446 79.7316 66.5415 79.5265 66.1861C79.3213 65.8275 79.0445 65.1006 79.5265 64.266L104.874 20.3179C105.356 19.4834 106.121 19.3595 106.535 19.3595C106.948 19.3595 107.714 19.4834 108.196 20.3179L133.543 64.266C134.025 65.1006 133.751 65.8275 133.543 66.1861Z" fill="#D9D9D9"/>
<path d="M131.879 67.2261H81.1841C80.1811 67.2261 79.6665 66.5969 79.4515 66.2253C79.2366 65.8504 78.95 65.0908 79.4515 64.2237L104.799 20.2756C105.3 19.4052 106.098 19.2748 106.531 19.2748C106.965 19.2748 107.759 19.4052 108.264 20.2756L133.611 64.2237C134.116 65.0973 133.826 65.8504 133.611 66.2253C133.396 66.6002 132.882 67.2261 131.879 67.2261ZM106.531 19.4378C106.134 19.4378 105.398 19.5551 104.939 20.3571L79.5916 64.3052C79.1291 65.1039 79.3929 65.8015 79.5916 66.1438C79.7902 66.4861 80.2625 67.0631 81.1841 67.0631H131.879C132.8 67.0631 133.269 66.4861 133.471 66.1438C133.67 65.8015 133.934 65.1071 133.471 64.3052L108.124 20.3571C107.661 19.5584 106.929 19.4378 106.531 19.4378Z" fill="#D9D9D9"/>
</g>
<path d="M131.879 67.6369H81.1841C79.9791 67.6369 79.3603 66.8838 79.0998 66.4339C78.6568 65.6678 78.6568 64.7876 79.0998 64.0248L104.447 20.0767C104.89 19.3106 105.649 18.8738 106.535 18.8738C107.42 18.8738 108.179 19.3139 108.619 20.0767L133.966 64.0248C134.595 65.1169 134.175 66.0721 133.966 66.4339C133.706 66.8838 133.09 67.6369 131.885 67.6369H131.879ZM106.531 19.8453C106.154 19.8453 105.632 19.9691 105.29 20.5592L79.9433 64.5073C79.6013 65.0973 79.7544 65.6124 79.9433 65.9384C80.1322 66.2611 80.5034 66.6523 81.1808 66.6523H131.875C132.556 66.6523 132.924 66.2644 133.116 65.9351C133.305 65.6124 133.458 65.0973 133.116 64.504L107.769 20.5559C107.427 19.9626 106.906 19.8387 106.531 19.8387V19.8453Z" fill="#D9D9D9"/>
<path d="M131.879 67.7151H81.1842C79.9336 67.7151 79.2953 66.936 79.0282 66.4698C78.5723 65.6776 78.5723 64.7681 79.0282 63.9791L104.375 20.0311C104.831 19.2422 105.616 18.7858 106.531 18.7858C107.447 18.7858 108.228 19.2389 108.684 20.0311L134.031 63.9791C134.679 65.1071 134.246 66.0981 134.031 66.4698C133.761 66.936 133.123 67.7151 131.879 67.7151ZM106.531 18.9488C105.678 18.9488 104.942 19.3726 104.516 20.1126L79.1683 64.0606C78.7416 64.8007 78.7416 65.6483 79.1683 66.3883C79.419 66.8219 80.015 67.5521 81.1842 67.5521H131.879C133.045 67.5521 133.641 66.8251 133.891 66.3883C134.093 66.0395 134.5 65.1136 133.891 64.0606L108.544 20.1126C108.117 19.3726 107.381 18.9488 106.531 18.9488ZM131.879 66.7371H81.1842C80.4612 66.7371 80.0736 66.3263 79.875 65.9808C79.6763 65.6352 79.5135 65.0908 79.875 64.4681L105.222 20.5201C105.58 19.8974 106.134 19.7638 106.531 19.7638C106.929 19.7638 107.479 19.8942 107.841 20.5201L133.188 64.4681C133.549 65.0973 133.387 65.6385 133.188 65.9808C132.989 66.3263 132.595 66.7371 131.879 66.7371ZM106.531 19.9268C106.176 19.9268 105.685 20.0441 105.362 20.6016L80.015 64.5496C79.6959 65.1071 79.8359 65.5896 80.015 65.8993C80.1942 66.2057 80.5426 66.5708 81.1842 66.5708H131.879C132.52 66.5708 132.869 66.2025 133.048 65.896C133.227 65.5896 133.37 65.1071 133.048 64.5464L107.701 20.5983C107.378 20.0409 106.886 19.9235 106.531 19.9235V19.9268Z" fill="#D9D9D9"/>
<path d="M115.36 54.5903C116.051 55.2814 116.051 56.3963 115.36 57.0809L114.207 58.2349C113.52 58.9228 112.406 58.9228 111.716 58.2349L106.528 53.0418L101.34 58.2349C100.653 58.9228 99.539 58.9228 98.8519 58.2349L97.699 57.0809C97.0085 56.393 97.0085 55.2781 97.699 54.5903L102.887 49.3971L97.699 44.2039C97.0151 43.5193 97.0151 42.4011 97.699 41.7133L98.8519 40.5592C99.5358 39.8714 100.653 39.8714 101.34 40.5592L106.528 45.7524L111.716 40.5592C112.403 39.8714 113.517 39.8714 114.207 40.5592L115.36 41.7133C116.047 42.4011 116.047 43.516 115.36 44.2039L110.176 49.3971L115.36 54.5903Z" fill="#D9D9D9"/>
<path d="M112.963 58.8316C112.472 58.8316 112.009 58.6392 111.661 58.2904L106.528 53.1527L101.399 58.2904C101.05 58.6392 100.588 58.8316 100.096 58.8316C99.6042 58.8316 99.1417 58.6392 98.7965 58.2904L97.6436 57.1364C97.2952 56.7876 97.103 56.3246 97.103 55.8324C97.103 55.3401 97.2952 54.8772 97.6404 54.5316L102.773 49.3939L97.6404 44.2561C97.2952 43.9106 97.103 43.4476 97.103 42.9554C97.103 42.4631 97.2952 42.0002 97.6436 41.6514L98.7965 40.4973C99.1417 40.1485 99.6042 39.9594 100.096 39.9562C100.588 39.9562 101.05 40.1485 101.399 40.4973L106.528 45.6351L111.661 40.4973C112.009 40.1485 112.472 39.9562 112.963 39.9562C113.455 39.9562 113.918 40.1485 114.266 40.4973L115.419 41.6514C115.767 41.9969 115.96 42.4599 115.96 42.9521C115.96 43.4444 115.767 43.9106 115.416 44.2594L110.286 49.3971L115.416 54.5349C115.767 54.8837 115.96 55.3466 115.96 55.8422C115.96 56.3377 115.767 56.7941 115.419 57.1429L114.266 58.2969C113.918 58.6458 113.455 58.8381 112.963 58.8381V58.8316ZM106.528 52.9245L111.775 58.1763C112.094 58.4958 112.514 58.6686 112.963 58.6686C113.413 58.6686 113.833 58.4958 114.149 58.1763L115.302 57.0223C115.621 56.7061 115.793 56.2855 115.793 55.8356C115.793 55.3858 115.618 54.9652 115.298 54.6457L110.055 49.3939L115.298 44.142C115.618 43.8258 115.793 43.402 115.793 42.9521C115.793 42.5022 115.621 42.085 115.302 41.7655L114.149 40.6114C113.833 40.2952 113.41 40.1192 112.963 40.1192C112.517 40.1192 112.094 40.2952 111.775 40.6114L106.528 45.8633L101.285 40.6114C100.969 40.2952 100.545 40.1192 100.099 40.1192C99.6531 40.1192 99.2297 40.2952 98.9138 40.6114L97.7609 41.7655C97.4417 42.085 97.2691 42.5055 97.2691 42.9554C97.2691 43.4053 97.4417 43.8258 97.7576 44.142L103.004 49.3939L97.7576 54.6457C97.4417 54.962 97.2691 55.3858 97.2691 55.8324C97.2691 56.279 97.445 56.7028 97.7609 57.019L98.9138 58.1731C99.2297 58.4925 99.6498 58.6653 100.099 58.6653C100.549 58.6653 100.969 58.4925 101.285 58.1731L106.528 52.9212V52.9245Z" fill="#D9D9D9"/>
<g opacity="0.5">
<path d="M31.6879 111.386C31.3004 109.945 31.4209 108.644 32.0462 107.484C32.6715 106.323 33.642 105.567 34.9479 105.215C36.2539 104.863 37.4719 105.029 38.5955 105.72C39.7191 106.411 40.4746 107.474 40.8622 108.915C41.2497 110.356 41.1292 111.657 40.5039 112.817C39.8786 113.978 38.9081 114.734 37.6022 115.086C36.2962 115.438 35.075 115.272 33.9546 114.581C32.8311 113.893 32.0755 112.827 31.6879 111.386ZM34.2933 102.457C31.9094 103.099 29.444 101.75 28.7048 99.3925L22.0838 78.4144C21.1296 75.3957 22.885 72.1878 25.9398 71.3663C28.9946 70.5448 32.1178 72.4356 32.805 75.5261L37.5924 96.9997C38.1298 99.4121 36.674 101.818 34.2901 102.457H34.2933Z" fill="#D9D9D9"/>
<path d="M36.3092 115.344C35.4657 115.344 34.6646 115.112 33.9123 114.649C32.7757 113.952 32.0006 112.86 31.6098 111.406C31.2189 109.952 31.3427 108.618 31.9745 107.445C32.6096 106.271 33.6029 105.492 34.9284 105.133C36.2506 104.778 37.5012 104.951 38.6411 105.645C39.7777 106.343 40.5528 107.435 40.9436 108.889C41.3344 110.343 41.2106 111.676 40.5788 112.85C39.9438 114.023 38.9505 114.803 37.625 115.161C37.1788 115.282 36.7424 115.34 36.3125 115.34L36.3092 115.344ZM36.2376 105.117C35.824 105.117 35.4006 105.176 34.9675 105.293C33.6876 105.639 32.7268 106.389 32.1146 107.523C31.499 108.661 31.3818 109.952 31.7628 111.363C32.1406 112.778 32.8929 113.838 33.9937 114.509C35.0945 115.181 36.2995 115.35 37.5794 115.005C38.8593 114.659 39.82 113.909 40.4323 112.775C41.0478 111.64 41.165 110.346 40.784 108.935C40.4062 107.523 39.6539 106.464 38.5531 105.789C37.8269 105.342 37.0518 105.117 36.2376 105.117ZM33.0851 102.701C31.0854 102.701 29.2519 101.417 28.6233 99.4186L22.0024 78.4405C21.5334 76.9572 21.6865 75.3924 22.4323 74.0298C23.178 72.6671 24.4156 71.6956 25.9137 71.2914C27.4118 70.8871 28.9718 71.1088 30.2973 71.9108C31.626 72.716 32.5444 73.9939 32.8831 75.5098L37.6706 96.9834C38.2209 99.4415 36.7424 101.883 34.3129 102.538C33.9025 102.649 33.4922 102.701 33.0851 102.701ZM27.389 71.2522C26.9103 71.2522 26.4315 71.3142 25.9561 71.4446C24.5003 71.8358 23.3018 72.7812 22.5756 74.1047C21.8493 75.4283 21.7027 76.9475 22.1587 78.3884L28.7796 99.3697C29.5124 101.688 31.9257 103.014 34.2705 102.379C36.6154 101.743 38.0418 99.3926 37.511 97.016L32.7236 75.5424C32.3946 74.0689 31.5055 72.8301 30.2159 72.0444C29.3496 71.5196 28.3791 71.249 27.3955 71.249L27.389 71.2522Z" fill="#D9D9D9"/>
<path d="M22.872 114.333C22.39 113.518 22.2434 112.703 22.4291 111.885C22.6147 111.067 23.0772 110.444 23.8197 110.004C24.5622 109.564 25.3308 109.463 26.1353 109.694C26.9397 109.922 27.5812 110.447 28.0632 111.262C28.5452 112.077 28.6918 112.892 28.5062 113.707C28.3205 114.522 27.8581 115.151 27.1188 115.588C26.3763 116.025 25.6044 116.129 24.8 115.898C23.9956 115.67 23.354 115.145 22.872 114.33V114.333ZM22.9502 108.429C21.6019 109.225 19.866 108.82 19.0095 107.507L11.3952 95.8066C10.301 94.1244 10.8286 91.862 12.5579 90.8416C14.284 89.8179 16.5181 90.4439 17.4625 92.214L24.0379 104.53C24.7772 105.913 24.2952 107.634 22.9469 108.429H22.9502Z" fill="#D9D9D9"/>
<path d="M25.6175 116.1C25.3406 116.1 25.0605 116.061 24.7805 115.979C23.9598 115.745 23.2954 115.204 22.8036 114.376C22.3119 113.548 22.1588 112.703 22.3509 111.869C22.5431 111.034 23.0218 110.382 23.7774 109.935C24.533 109.486 25.3341 109.381 26.1581 109.616C26.9788 109.851 27.6464 110.392 28.1349 111.22C28.6234 112.048 28.7765 112.892 28.5876 113.727C28.3955 114.561 27.9167 115.213 27.1611 115.66C26.6629 115.953 26.1483 116.1 25.6207 116.1H25.6175ZM25.3178 109.655C24.8196 109.655 24.331 109.795 23.8588 110.072C23.1423 110.496 22.6864 111.112 22.5073 111.901C22.3281 112.69 22.4747 113.495 22.9404 114.288C23.4094 115.08 24.0412 115.595 24.8228 115.816C25.6012 116.041 26.36 115.937 27.0732 115.513C27.7864 115.089 28.2424 114.473 28.4248 113.684C28.6071 112.892 28.4606 112.09 27.9916 111.295C27.5226 110.503 26.8908 109.988 26.1125 109.766C25.8454 109.688 25.5816 109.652 25.3178 109.652V109.655ZM21.4586 108.922C20.4751 108.922 19.5176 108.439 18.9411 107.552L11.3269 95.849C10.7862 95.0144 10.6104 94.0234 10.8351 93.0551C11.0598 92.0869 11.6591 91.2752 12.5123 90.7699C13.3656 90.2646 14.3654 90.1342 15.3196 90.4015C16.2739 90.6688 17.0587 91.3013 17.5277 92.1749L24.1031 104.491C24.8651 105.916 24.3701 107.676 22.9827 108.498C22.5008 108.785 21.9732 108.918 21.4521 108.918L21.4586 108.922ZM14.3459 90.4308C13.7401 90.4308 13.1409 90.5938 12.6003 90.9133C11.7861 91.3958 11.2161 92.1717 11.0012 93.0975C10.7862 94.0234 10.9523 94.9688 11.4702 95.7642L19.0844 107.468C19.9182 108.749 21.5986 109.143 22.9144 108.364C24.2301 107.585 24.6958 105.922 23.9761 104.576L17.4007 92.2597C16.9513 91.4219 16.2022 90.822 15.2903 90.5645C14.9809 90.4765 14.6683 90.4341 14.3524 90.4341L14.3459 90.4308Z" fill="#D9D9D9"/>
</g>
<path d="M36.3062 115.751C35.3943 115.751 34.5215 115.5 33.6976 114.995C32.4698 114.242 31.6328 113.068 31.2159 111.51C30.7991 109.952 30.9326 108.517 31.6165 107.249C32.307 105.971 33.3849 105.127 34.8244 104.742C36.2606 104.357 37.6154 104.543 38.8563 105.303C40.0841 106.056 40.921 107.229 41.3379 108.788C41.7548 110.346 41.6212 111.78 40.9373 113.049C40.2469 114.327 39.1689 115.171 37.7327 115.559C37.2474 115.689 36.7752 115.754 36.3095 115.754L36.3062 115.751ZM36.2509 105.521C35.8731 105.521 35.479 105.573 35.0752 105.684C33.8897 106.004 33.0397 106.666 32.4763 107.715C31.9064 108.771 31.8022 109.929 32.1571 111.256C32.5121 112.582 33.1863 113.534 34.2089 114.16C35.2217 114.783 36.2932 114.93 37.4754 114.61C38.6576 114.291 39.5109 113.629 40.0775 112.582C40.6475 111.526 40.7517 110.366 40.3934 109.039C40.0352 107.712 39.3676 106.763 38.3417 106.134C37.6741 105.723 36.9836 105.521 36.2509 105.521ZM33.0853 103.106C30.9163 103.106 28.9232 101.71 28.236 99.5392L21.6151 78.5611C21.1135 76.9702 21.2796 75.2913 22.0775 73.8308C22.8754 72.3703 24.2042 71.3239 25.8098 70.8935C27.4153 70.4632 29.086 70.6979 30.5125 71.5618C31.9357 72.4257 32.9192 73.7949 33.284 75.4217L38.0714 96.8953C38.6674 99.5685 37.0618 102.222 34.4238 102.933C33.9777 103.053 33.5315 103.112 33.0886 103.112L33.0853 103.106ZM27.3893 71.6596C26.9464 71.6596 26.5034 71.7183 26.0605 71.8389C24.7122 72.2008 23.6017 73.0777 22.9308 74.3002C22.2599 75.5227 22.1231 76.9343 22.5432 78.2644L29.1642 99.2458C29.8318 101.358 32.0236 102.561 34.16 101.984C36.2965 101.407 37.5926 99.2653 37.1106 97.1039L32.3232 75.6303C32.0171 74.2676 31.1931 73.1201 30.0012 72.3964C29.1968 71.9074 28.2979 71.6596 27.386 71.6596H27.3893Z" fill="#D9D9D9"/>
<path d="M36.3063 115.833C35.3781 115.833 34.4858 115.575 33.6553 115.067C32.408 114.304 31.5612 113.114 31.1346 111.533C30.7079 109.952 30.848 108.498 31.5449 107.213C32.2451 105.916 33.3426 105.058 34.8017 104.664C36.2607 104.273 37.6383 104.462 38.8954 105.231C40.1427 105.997 40.9895 107.187 41.4129 108.765C41.8362 110.343 41.6995 111.8 41.0025 113.088C40.3023 114.385 39.2048 115.243 37.7458 115.637C37.2573 115.767 36.772 115.833 36.303 115.833H36.3063ZM36.2412 104.628C35.7852 104.628 35.3162 104.69 34.8408 104.82C33.4273 105.202 32.3656 106.03 31.685 107.288C31.0108 108.537 30.8773 109.952 31.2909 111.49C31.7045 113.029 32.5285 114.186 33.74 114.926C34.9515 115.67 36.2965 115.856 37.7067 115.477C39.1201 115.096 40.1818 114.268 40.8625 113.01C41.5366 111.758 41.6701 110.346 41.2565 108.807C40.8429 107.269 40.019 106.111 38.8075 105.371C37.9998 104.876 37.14 104.628 36.2412 104.628ZM36.2998 114.858C35.5507 114.858 34.8473 114.649 34.1633 114.232C33.1244 113.593 32.4405 112.628 32.079 111.278C31.7175 109.929 31.8217 108.752 32.4015 107.676C32.9779 106.61 33.8442 105.932 35.0524 105.606C35.4628 105.495 35.8634 105.44 36.2477 105.44C36.9967 105.44 37.6969 105.642 38.3808 106.062C39.423 106.701 40.1036 107.666 40.4684 109.016C40.8332 110.366 40.7224 111.543 40.146 112.618C39.5695 113.684 38.7 114.362 37.495 114.688C37.0814 114.799 36.6873 114.855 36.2998 114.855V114.858ZM36.2509 105.603C35.8797 105.603 35.4921 105.655 35.098 105.763C33.9354 106.076 33.1049 106.724 32.548 107.751C31.9878 108.788 31.8869 109.929 32.2386 111.233C32.5903 112.54 33.2482 113.476 34.2545 114.089C35.2478 114.698 36.2965 114.842 37.4592 114.529C38.6186 114.216 39.4523 113.567 40.0092 112.54C40.5694 111.503 40.6703 110.366 40.3186 109.058C39.9669 107.751 39.309 106.816 38.3059 106.203C37.6448 105.798 36.9739 105.6 36.2542 105.6L36.2509 105.603ZM33.0854 103.187C30.8219 103.187 28.8451 101.73 28.1612 99.562L21.5402 78.5839C21.0322 76.9735 21.1983 75.2718 22.0092 73.7917C22.8201 72.3117 24.1651 71.2554 25.7935 70.8153C27.4219 70.3752 29.1121 70.6165 30.5581 71.4902C32.0009 72.3638 33.0007 73.7559 33.3654 75.4022L38.1529 96.8758C38.7586 99.5914 37.1302 102.287 34.4434 103.011C34.0005 103.128 33.5413 103.194 33.0886 103.194L33.0854 103.187ZM27.3926 70.7632C26.8715 70.7632 26.3472 70.8316 25.8293 70.9718C24.2433 71.3989 22.9341 72.429 22.146 73.87C21.3578 75.3109 21.195 76.9702 21.69 78.5383L28.311 99.5164C28.9721 101.616 30.8903 103.027 33.0821 103.027C33.5218 103.027 33.9647 102.969 34.3946 102.855C36.9967 102.154 38.573 99.5425 37.9868 96.9116L33.1994 75.438C32.8411 73.8341 31.8706 72.4812 30.4669 71.6303C29.5192 71.0566 28.464 70.7664 27.3926 70.7664V70.7632ZM33.0854 102.209C31.2974 102.209 29.656 101.058 29.0893 99.2686L22.4684 78.2905C22.0418 76.9376 22.1818 75.5065 22.8624 74.2612C23.5431 73.0158 24.6732 72.1259 26.0443 71.7607C27.3991 71.3956 28.8483 71.601 30.0501 72.328C31.2616 73.0647 32.1018 74.2318 32.408 75.6173L37.1954 97.0909C37.6871 99.2947 36.3649 101.482 34.1861 102.066C33.8181 102.167 33.4469 102.212 33.0854 102.212V102.209ZM27.3893 71.7412C26.9529 71.7412 26.5133 71.7999 26.0834 71.914C24.7579 72.2726 23.6636 73.1299 23.0057 74.3394C22.3479 75.5489 22.2111 76.9311 22.6247 78.2416L29.2457 99.223C29.9003 101.293 32.0497 102.473 34.1438 101.906C36.2379 101.339 37.508 99.2393 37.0358 97.1203L32.2484 75.6467C31.9488 74.3068 31.1378 73.1723 29.9622 72.4649C29.1805 71.9889 28.2914 71.7412 27.3926 71.7412H27.3893Z" fill="#D9D9D9"/>
<path d="M25.6209 116.511C25.305 116.511 24.9891 116.465 24.6666 116.374C23.7417 116.11 22.9992 115.507 22.4521 114.584C21.9082 113.662 21.7388 112.716 21.9538 111.781C22.1687 110.832 22.7159 110.092 23.5724 109.587C24.4289 109.081 25.3375 108.957 26.2722 109.225C27.1971 109.489 27.9397 110.092 28.4868 111.011C29.0339 111.934 29.2 112.879 28.9851 113.818C28.7701 114.767 28.223 115.503 27.3665 116.012C26.8063 116.345 26.2201 116.511 25.6241 116.511H25.6209ZM25.3147 110.063C24.8881 110.063 24.4778 110.183 24.0674 110.424C23.4421 110.796 23.0611 111.308 22.908 111.996C22.7517 112.69 22.8754 113.375 23.2956 114.085C23.7157 114.796 24.253 115.236 24.937 115.432C25.6144 115.624 26.2462 115.539 26.8715 115.168C27.4968 114.796 27.8778 114.284 28.0309 113.6C28.1904 112.902 28.0634 112.221 27.6433 111.51C27.2264 110.803 26.6858 110.359 25.9987 110.164C25.7642 110.098 25.5395 110.063 25.3147 110.063ZM21.4588 109.329C20.3417 109.329 19.2539 108.781 18.5993 107.774L10.9851 96.0738C10.3826 95.148 10.1904 94.0429 10.4379 92.9671C10.692 91.8913 11.3531 90.9883 12.304 90.4243C13.255 89.8603 14.3656 89.7136 15.4305 90.0135C16.4955 90.3134 17.3683 91.0111 17.8894 91.9891L24.4647 104.305C25.3278 105.926 24.7676 107.924 23.1913 108.856C22.6442 109.179 22.045 109.336 21.4522 109.336L21.4588 109.329ZM14.346 90.8383C13.8087 90.8383 13.2811 90.9817 12.8056 91.2621C12.0858 91.6892 11.5843 92.3738 11.3922 93.1888C11.2 94.0038 11.3498 94.8383 11.8058 95.5425L19.42 107.246C20.1333 108.341 21.5727 108.68 22.6996 108.012C23.8231 107.344 24.2237 105.919 23.6082 104.765L17.0328 92.4487C16.6388 91.712 15.9777 91.1806 15.17 90.9524C14.8964 90.8774 14.6196 90.8383 14.346 90.8383Z" fill="#D9D9D9"/>
<path d="M25.6209 116.592C25.3018 116.592 24.9728 116.543 24.6439 116.452C23.6994 116.182 22.9374 115.565 22.3837 114.627C21.8301 113.688 21.6575 112.723 21.8757 111.764C22.0971 110.793 22.654 110.036 23.5301 109.518C24.4062 109 25.3376 108.876 26.2918 109.15C27.246 109.424 27.9983 110.036 28.5552 110.975C29.1121 111.914 29.2815 112.879 29.0633 113.838C28.8418 114.809 28.2849 115.565 27.4089 116.084C26.8357 116.423 26.2364 116.596 25.6242 116.596L25.6209 116.592ZM25.3148 109.166C24.7318 109.166 24.1586 109.329 23.6115 109.652C22.7745 110.147 22.2437 110.868 22.032 111.794C21.8236 112.713 21.9864 113.635 22.5205 114.539C23.0546 115.442 23.7841 116.032 24.6895 116.292C25.6014 116.553 26.4905 116.433 27.3242 115.94C28.1612 115.445 28.692 114.724 28.9037 113.798C29.1121 112.879 28.9493 111.957 28.4119 111.054C27.8746 110.151 27.1483 109.56 26.2462 109.3C25.9303 109.212 25.6242 109.166 25.3148 109.166ZM25.6209 115.614C25.3897 115.614 25.1519 115.582 24.9109 115.51C24.2042 115.308 23.6538 114.855 23.2207 114.124C22.7908 113.398 22.6605 112.693 22.8234 111.976C22.983 111.269 23.377 110.737 24.0251 110.356C24.6732 109.975 25.3213 109.883 26.0215 110.085C26.7282 110.287 27.2819 110.741 27.7117 111.471C28.1416 112.201 28.2719 112.902 28.1091 113.619C27.9495 114.327 27.5554 114.858 26.9106 115.243C26.4872 115.49 26.0606 115.618 25.6242 115.618L25.6209 115.614ZM25.3148 110.144C24.9044 110.144 24.5071 110.258 24.1098 110.496C23.504 110.855 23.1393 111.35 22.9862 112.012C22.8331 112.687 22.9536 113.352 23.364 114.043C23.7743 114.734 24.2954 115.164 24.9598 115.354C25.6144 115.539 26.2267 115.458 26.8292 115.099C27.4317 114.741 27.7997 114.245 27.9527 113.58C28.1058 112.905 27.9821 112.243 27.575 111.549C27.1646 110.858 26.6468 110.431 25.9824 110.242C25.7577 110.18 25.533 110.144 25.318 110.144H25.3148ZM21.4588 109.411C20.2733 109.411 19.1823 108.817 18.531 107.816L10.9167 96.1163C10.3012 95.1709 10.1058 94.0462 10.3598 92.9443C10.6171 91.8457 11.2945 90.9231 12.265 90.3461C13.2355 89.769 14.3689 89.6223 15.4566 89.9288C16.5444 90.2352 17.4335 90.9492 17.9643 91.9435L24.5397 104.26C25.4255 105.916 24.8523 107.963 23.237 108.918C22.6964 109.238 22.0808 109.407 21.4588 109.407V109.411ZM14.3461 89.9418C13.6524 89.9418 12.9685 90.1276 12.3529 90.4928C11.4215 91.0437 10.7702 91.9304 10.5259 92.9867C10.2784 94.0429 10.4673 95.122 11.06 96.0315L18.6743 107.735C19.2931 108.687 20.3352 109.254 21.4653 109.254C22.058 109.254 22.6443 109.091 23.1621 108.785C24.7025 107.872 25.2464 105.922 24.4029 104.344L17.8275 92.0282C17.3162 91.073 16.4597 90.3852 15.4175 90.0918C15.0626 89.9907 14.7043 89.9451 14.3493 89.9451L14.3461 89.9418ZM21.4588 108.433C20.6348 108.433 19.8337 108.028 19.3484 107.285L11.7342 95.5849C11.2652 94.8644 11.1154 94.007 11.3108 93.1692C11.5062 92.3314 12.0208 91.6305 12.76 91.1937C13.4928 90.7601 14.3721 90.6427 15.1896 90.8742C16.0168 91.1056 16.6942 91.6533 17.1013 92.4096L23.6766 104.726C24.3117 105.919 23.9014 107.396 22.7387 108.08C22.3349 108.318 21.8919 108.433 21.4588 108.433ZM14.3461 90.9198C13.8217 90.9198 13.3039 91.0633 12.848 91.3338C12.1478 91.7479 11.6593 92.4162 11.4736 93.2083C11.288 94.0005 11.4313 94.8155 11.8742 95.4969L19.4885 107.2C20.1789 108.26 21.5695 108.586 22.6573 107.94C23.745 107.295 24.1326 105.919 23.5366 104.801L16.9612 92.4846C16.5769 91.7674 15.9354 91.2491 15.1505 91.0307C14.8867 90.9557 14.6164 90.9198 14.3461 90.9198Z" fill="#D9D9D9"/>
</svg>
