<svg width="25" height="25" viewBox="0 0 21 22" fill="none" xmlns="http://www.w3.org/2000/svg">
<path d="M17.1659 8.59349C16.7347 8.59349 16.3847 8.24349 16.3847 7.81224C16.3847 4.61459 13.8944 1.88099 10.7147 1.5888C7.52764 1.29544 4.57021 3.52591 3.98896 6.66732C3.91943 7.04154 3.88428 7.42669 3.88428 7.81224C3.88428 8.24349 3.53428 8.59349 3.10303 8.59349C2.67178 8.59349 2.32178 8.24349 2.32178 7.81224C2.32178 7.33138 2.36553 6.85052 2.45225 6.38294C3.17881 2.45599 6.86865 -0.335415 10.8581 0.032554C14.8335 0.398179 17.9472 3.81537 17.9472 7.81224C17.9472 8.24388 17.5976 8.59349 17.1659 8.59349Z" fill="#848282"/>
<path d="M17.166 17.9684C16.7347 17.9684 16.3847 17.6184 16.3847 17.1872C16.3847 16.7559 16.7347 16.4059 17.166 16.4059C17.9347 16.4059 18.4097 15.8798 18.5976 15.3872C18.7847 14.8973 18.7808 14.1911 18.2078 13.6786C17.8863 13.3911 17.8581 12.8969 18.1464 12.5755C18.4335 12.254 18.9281 12.2262 19.2492 12.5141C20.2085 13.3719 20.5257 14.7188 20.057 15.9446C19.5874 17.1739 18.4527 17.9684 17.166 17.9684Z" fill="#848282"/>
<path d="M17.166 10.3841C16.7347 10.3841 16.3847 10.0341 16.3847 9.60286V7.81262C16.3847 7.38137 16.7347 7.03137 17.166 7.03137C17.5972 7.03137 17.9472 7.38137 17.9472 7.81262V9.60286C17.9472 10.0341 17.5976 10.3841 17.166 10.3841Z" fill="#848282"/>
<path d="M18.7281 13.8779C18.5425 13.8779 18.3566 13.8123 18.2078 13.6791C17.0492 12.6427 16.3847 11.1572 16.3847 9.60291C16.3847 9.17166 16.7347 8.82166 17.166 8.82166C17.5972 8.82166 17.9472 9.17166 17.9472 9.60291C17.9472 10.7131 18.4218 11.7744 19.2492 12.5146C19.5706 12.8021 19.5988 13.2963 19.3105 13.6177C19.1566 13.79 18.9429 13.8779 18.7281 13.8779Z" fill="#848282"/>
<path d="M3.10345 10.3841C2.6722 10.3841 2.3222 10.0341 2.3222 9.60286V7.81262C2.3222 7.38137 2.6722 7.03137 3.10345 7.03137C3.5347 7.03137 3.8847 7.38137 3.8847 7.81262V9.60286C3.8847 10.0341 3.5351 10.3841 3.10345 10.3841Z" fill="#848282"/>
<path d="M1.54132 13.8778C1.32648 13.8778 1.1128 13.7899 0.958898 13.6173C0.671007 13.2958 0.698741 12.8016 1.02023 12.5141C1.84757 11.7739 2.32218 10.713 2.32218 9.60242C2.32218 9.17117 2.67218 8.82117 3.10343 8.82117C3.53468 8.82117 3.88468 9.17117 3.88468 9.60242C3.88468 11.1567 3.22023 12.6423 2.06163 13.6786C1.9128 13.8122 1.72687 13.8778 1.54132 13.8778Z" fill="#848282"/>
<path d="M10.1347 21.8748C7.59369 21.8748 5.4472 19.7283 5.4472 17.1873C5.4472 16.756 5.7972 16.406 6.22845 16.406C6.6597 16.406 7.0097 16.756 7.0097 17.1873C7.0097 18.881 8.44056 20.3123 10.1347 20.3123C11.8288 20.3123 13.2597 18.881 13.2597 17.1873C13.2597 16.756 13.6097 16.406 14.041 16.406C14.4722 16.406 14.8222 16.756 14.8222 17.1873C14.8222 19.7283 12.6757 21.8748 10.1347 21.8748Z" fill="#848282"/>
<path d="M3.10343 17.9685C1.81671 17.9685 0.682724 17.1759 0.214365 15.9493C-0.255166 14.7204 0.06124 13.372 1.02022 12.5145C1.3421 12.227 1.83585 12.2544 2.12335 12.5763C2.41085 12.8981 2.38312 13.3915 2.06163 13.6794C1.48897 14.1915 1.48585 14.9001 1.67374 15.3923C1.86085 15.8825 2.33507 16.4067 3.10343 16.4067C3.53468 16.4067 3.88468 16.7567 3.88468 17.188C3.88468 17.6192 3.53507 17.9685 3.10343 17.9685Z" fill="#848282"/>
<path d="M17.166 17.9685H3.10345C2.6722 17.9685 2.3222 17.6185 2.3222 17.1873C2.3222 16.756 2.6722 16.406 3.10345 16.406H17.166C17.5972 16.406 17.9472 16.756 17.9472 17.1873C17.9472 17.6185 17.5976 17.9685 17.166 17.9685Z" fill="#848282"/>
</svg>
