<svg width="25" height="25" viewBox="0 0 25 25" fill="none" xmlns="http://www.w3.org/2000/svg">
<path d="M22.7144 14.2024H14.2025V22.7143C14.2025 23.1658 14.0232 23.5988 13.7039 23.9181C13.3847 24.2374 12.9517 24.4167 12.5002 24.4167C12.0487 24.4167 11.6157 24.2374 11.2964 23.9181C10.9771 23.5988 10.7978 23.1658 10.7978 22.7143V14.2024H2.28588C1.83438 14.2024 1.40137 14.0231 1.08211 13.7038C0.762854 13.3845 0.583496 12.9515 0.583496 12.5C0.583496 12.0485 0.762854 11.6155 1.08211 11.2963C1.40137 10.977 1.83438 10.7977 2.28588 10.7977H10.7978V2.28576C10.7978 1.83426 10.9771 1.40125 11.2964 1.08199C11.6157 0.762731 12.0487 0.583374 12.5002 0.583374C12.9517 0.583374 13.3847 0.762731 13.7039 1.08199C14.0232 1.40125 14.2025 1.83426 14.2025 2.28576V10.7977H22.7144C23.1659 10.7977 23.599 10.977 23.9182 11.2963C24.2375 11.6155 24.4168 12.0485 24.4168 12.5C24.4168 12.9515 24.2375 13.3845 23.9182 13.7038C23.599 14.0231 23.1659 14.2024 22.7144 14.2024Z" fill="white"/>
</svg>
