<svg width="20" height="20" viewBox="0 0 20 20" fill="none" xmlns="http://www.w3.org/2000/svg">
<path d="M15.0703 7.72266H15.2266C15.2266 5.8125 16.7812 4.25781 18.6914 4.25781V4.10156C16.7812 4.10156 15.2266 2.54688 15.2266 0.636719H15.0703C15.0703 2.54688 13.5156 4.10156 11.6055 4.10156V4.25781C13.5156 4.25781 15.0703 5.8125 15.0703 7.72266Z" fill="#3870FF"/>
<path d="M15.2266 12.2773H15.0703C15.0703 14.1875 13.5156 15.7422 11.6055 15.7422V15.8984C13.5156 15.8984 15.0703 17.4531 15.0703 19.3633H15.2266C15.2266 17.4531 16.7812 15.8984 18.6914 15.8984V15.7422C16.7812 15.7422 15.2266 14.1875 15.2266 12.2773Z" fill="#3870FF"/>
<path d="M16.0078 10.1211V9.96484H15.9727C11.9805 9.96484 8.73438 6.71875 8.73438 2.72656V2.69141H8.57813V2.72656C8.57813 6.71875 5.33203 9.96484 1.33984 9.96484H1.30469V10.1211H1.33984C5.33203 10.1211 8.57813 13.3672 8.57813 17.3594V17.3945H8.73438V17.3594C8.73438 13.3672 11.9805 10.1211 15.9727 10.1211H16.0078Z" fill="#3870FF"/>
</svg>
