<svg width="45" height="44" viewBox="0 0 45 44" fill="none" xmlns="http://www.w3.org/2000/svg">
<path d="M24.9995 6.76726L25.0002 6.76867L28.2241 13.2165C28.2246 13.2175 28.2251 13.2185 28.2256 13.2196C28.5131 13.8049 29.0097 14.3306 29.5478 14.7276C30.0873 15.1256 30.7364 15.4445 31.3777 15.5514L31.3781 15.5514L37.226 16.5231C38.9667 16.8132 39.784 17.5433 40.0109 18.2494C40.2374 18.9539 39.9995 20.0193 38.7458 21.2644L38.744 21.2663L34.1973 25.8129C33.7 26.3103 33.3489 26.9977 33.1518 27.686C32.9547 28.3747 32.8894 29.1424 33.0425 29.8256L33.0425 29.8256L33.0436 29.8306L34.3452 35.4583C34.8439 37.6226 34.4244 38.7392 33.8573 39.1526C33.2889 39.567 32.0928 39.6256 30.1775 38.4942L24.6967 35.2497C24.0578 34.8711 23.2614 34.7049 22.5062 34.7049C21.7504 34.7049 20.9523 34.8713 20.3072 35.2467L20.3072 35.2466L20.3023 35.2495L14.8206 38.4945L14.8199 38.4949C12.9174 39.624 11.7203 39.5632 11.1485 39.1459C10.5773 38.7291 10.1556 37.61 10.6534 35.459L10.6534 35.4589L11.9551 29.8306L11.9551 29.8306L11.9562 29.8256C12.1093 29.1424 12.044 28.3747 11.8468 27.686C11.6498 26.9977 11.2987 26.3103 10.8013 25.8129L6.25467 21.2663C5.00935 20.0209 4.76954 18.9543 4.99505 18.2481C5.22034 17.5426 6.03275 16.813 7.77264 16.5231L13.6206 15.5515L13.6232 15.551C14.2562 15.4435 14.9004 15.1238 15.4363 14.7265C15.9711 14.33 16.4674 13.8046 16.7548 13.2194L19.9795 6.77007C19.9796 6.76986 19.9797 6.76965 19.9798 6.76944C20.8055 5.12692 21.7605 4.55701 22.4971 4.55701C23.2323 4.55701 24.1829 5.12541 24.9995 6.76726Z" fill="#E8E8E8" stroke="#E8E8E8" stroke-width="1.5" stroke-linecap="round" stroke-linejoin="round"/>
<path d="M18.171 21.1174C18.8586 21.1174 19.4161 20.5599 19.4161 19.8722C19.4161 19.1844 18.8586 18.627 18.171 18.627C17.4833 18.627 16.9258 19.1844 16.9258 19.8722C16.9258 20.5599 17.4833 21.1174 18.171 21.1174Z" fill="#C6C6C6"/>
<path d="M26.8878 21.1174C27.5754 21.1174 28.1329 20.5599 28.1329 19.8722C28.1329 19.1844 27.5754 18.627 26.8878 18.627C26.2001 18.627 25.6426 19.1844 25.6426 19.8722C25.6426 20.5599 26.2001 21.1174 26.8878 21.1174Z" fill="#C6C6C6"/>
<path d="M17.5233 28.8107C17.5286 28.7875 17.53 28.7787 17.5321 28.7671L17.5381 28.7351L17.549 28.677C17.5564 28.6392 17.5645 28.6042 17.5722 28.5685C17.5886 28.499 17.6083 28.431 17.6283 28.364C17.6696 28.2324 17.7184 28.1031 17.7743 27.977C17.8868 27.7254 18.0251 27.4862 18.1869 27.263C18.517 26.8131 18.9293 26.4296 19.4019 26.1328C19.6363 25.9865 19.882 25.8591 20.1367 25.7518C20.3872 25.6478 20.6452 25.5626 20.9083 25.4968C21.4173 25.3706 21.9397 25.3065 22.4641 25.3058C22.9816 25.3002 23.498 25.3541 24.0032 25.4667L24.1965 25.513C24.2607 25.5283 24.3249 25.5494 24.3891 25.5675C24.5173 25.6027 24.6441 25.6493 24.7711 25.6948C25.0264 25.7902 25.2738 25.9059 25.5107 26.0406C25.7508 26.1768 25.9787 26.3335 26.1917 26.509C26.405 26.6862 26.6009 26.8833 26.7768 27.0976C26.9521 27.3116 27.1042 27.5437 27.2304 27.7899C27.2941 27.9138 27.3502 28.0414 27.3984 28.1721C27.4216 28.2384 27.4448 28.3059 27.4652 28.3759C27.4751 28.4118 27.4849 28.4454 27.4944 28.4846L27.5081 28.5432L27.5155 28.5757C27.5185 28.5882 27.5199 28.5958 27.5268 28.6204C27.5603 28.7079 27.5759 28.8012 27.5726 28.8948C27.5693 28.9884 27.5473 29.0804 27.5079 29.1653C27.4684 29.2503 27.4123 29.3264 27.3429 29.3893C27.2735 29.4522 27.1922 29.5005 27.1037 29.5313C27.0153 29.5622 26.9216 29.575 26.8281 29.569C26.7347 29.563 26.6434 29.5383 26.5596 29.4964C26.4759 29.4545 26.4014 29.3961 26.3406 29.3249C26.2798 29.2537 26.2339 29.171 26.2056 29.0817C26.2077 29.0933 26.2042 29.0882 26.2022 29.0879C26.2001 29.0877 26.1971 29.0845 26.194 29.0821C26.191 29.0798 26.1825 29.0717 26.1755 29.0647L26.1354 29.024C26.1069 28.995 26.0784 28.9651 26.048 28.9356C25.9891 28.8761 25.9247 28.8179 25.861 28.7613C25.7333 28.6494 25.598 28.5463 25.4563 28.4528C25.3171 28.3605 25.1721 28.2773 25.0221 28.2039C24.8721 28.1316 24.7182 28.0676 24.5611 28.0122L24.4424 27.9716L24.321 27.9357C24.2816 27.9223 24.2396 27.9125 24.1983 27.9019C24.1571 27.8912 24.1172 27.8787 24.0748 27.8706C23.9907 27.8527 23.9081 27.8321 23.8217 27.8182C23.7788 27.8105 23.7371 27.8013 23.6935 27.795L23.563 27.7758C23.2027 27.7262 22.8392 27.7029 22.4755 27.7062C21.7363 27.7097 21.0497 27.8101 20.4422 28.0539C20.1357 28.1772 19.8465 28.3396 19.5818 28.5372C19.4453 28.6401 19.3157 28.7517 19.1938 28.8714C19.1333 28.9324 19.0721 28.9947 19.0153 29.0587L18.9726 29.1065L18.9319 29.1528L18.8931 29.1973C18.8864 29.2048 18.8806 29.2105 18.8751 29.2163C18.8728 29.219 18.8701 29.2214 18.8672 29.2233C18.8649 29.2233 18.8616 29.2289 18.863 29.2189C18.8089 29.3965 18.6865 29.5454 18.5227 29.6328C18.3589 29.7201 18.167 29.7389 17.9894 29.6848C17.8118 29.6307 17.6629 29.5083 17.5755 29.3445C17.4881 29.1806 17.4694 28.9888 17.5235 28.8112L17.5233 28.8107Z" fill="#C6C6C6"/>
</svg>
