<svg width="45" height="44" viewBox="0 0 45 44" fill="none" xmlns="http://www.w3.org/2000/svg">
<path d="M24.9995 6.76726L25.0002 6.76867L28.2241 13.2165C28.2246 13.2175 28.2251 13.2185 28.2256 13.2196C28.5131 13.8049 29.0097 14.3306 29.5478 14.7276C30.0873 15.1256 30.7364 15.4445 31.3777 15.5514L31.3781 15.5514L37.226 16.5231C38.9667 16.8132 39.784 17.5433 40.0109 18.2494C40.2374 18.9539 39.9995 20.0193 38.7458 21.2644L38.744 21.2663L34.1973 25.8129C33.7 26.3103 33.3489 26.9977 33.1518 27.686C32.9547 28.3747 32.8894 29.1424 33.0425 29.8256L33.0425 29.8256L33.0436 29.8306L34.3452 35.4583C34.8439 37.6226 34.4244 38.7392 33.8573 39.1526C33.2889 39.567 32.0928 39.6256 30.1775 38.4942L24.6967 35.2497C24.0578 34.8711 23.2614 34.7049 22.5062 34.7049C21.7504 34.7049 20.9523 34.8713 20.3072 35.2467L20.3072 35.2466L20.3023 35.2495L14.8206 38.4945L14.8199 38.4949C12.9174 39.624 11.7203 39.5632 11.1485 39.1459C10.5773 38.7291 10.1556 37.61 10.6534 35.459L10.6534 35.4589L11.9551 29.8306L11.9551 29.8306L11.9562 29.8256C12.1093 29.1424 12.044 28.3747 11.8468 27.686C11.6498 26.9977 11.2987 26.3103 10.8013 25.8129L6.25467 21.2663C5.00935 20.0209 4.76954 18.9543 4.99505 18.2481C5.22034 17.5426 6.03275 16.813 7.77264 16.5231L13.6206 15.5515L13.6232 15.551C14.2562 15.4435 14.9004 15.1238 15.4363 14.7265C15.9711 14.33 16.4674 13.8046 16.7548 13.2194L19.9795 6.77007C19.9796 6.76986 19.9797 6.76965 19.9798 6.76944C20.8055 5.12692 21.7605 4.55701 22.4971 4.55701C23.2323 4.55701 24.1829 5.12541 24.9995 6.76726Z" fill="#E8E8E8" stroke="#E8E8E8" stroke-width="1.5" stroke-linecap="round" stroke-linejoin="round"/>
<path d="M18.4968 20.8886C19.1212 20.8886 19.6274 20.3823 19.6274 19.7578C19.6274 19.1332 19.1212 18.627 18.4968 18.627C17.8724 18.627 17.3662 19.1332 17.3662 19.7578C17.3662 20.3823 17.8724 20.8886 18.4968 20.8886Z" fill="#C6C6C6"/>
<path d="M26.4119 20.8886C27.0363 20.8886 27.5425 20.3823 27.5425 19.7578C27.5425 19.1332 27.0363 18.627 26.4119 18.627C25.7874 18.627 25.2812 19.1332 25.2812 19.7578C25.2812 20.3823 25.7874 20.8886 26.4119 20.8886Z" fill="#C6C6C6"/>
<path d="M17.9959 29.7151C17.6655 29.7062 17.4717 29.3887 17.4717 28.5332C17.4717 25.692 21.6387 25.6037 22.4485 25.6133C23.2242 25.6026 27.4388 25.6765 27.4388 28.533C27.4388 29.3622 27.2567 29.686 26.9446 29.7132" fill="#C6C6C6"/>
</svg>
