<svg width="45" height="44" viewBox="0 0 45 44" fill="none" xmlns="http://www.w3.org/2000/svg">
<path d="M24.9995 6.76726L25.0002 6.76867L28.2241 13.2165C28.2246 13.2174 28.2251 13.2184 28.2255 13.2193C28.513 13.8047 29.0097 14.3305 29.5478 14.7276C30.0873 15.1256 30.7364 15.4445 31.3777 15.5514L31.3781 15.5514L37.226 16.523C38.9667 16.8132 39.784 17.5433 40.0109 18.2494C40.2374 18.9539 39.9995 20.0193 38.7458 21.2644L38.744 21.2663L34.1973 25.8129C33.7 26.3103 33.3489 26.9977 33.1518 27.686C32.9547 28.3747 32.8894 29.1424 33.0425 29.8256L33.0425 29.8256L33.0436 29.8306L34.3452 35.4583C34.8439 37.6226 34.4244 38.7392 33.8573 39.1526C33.2889 39.567 32.0928 39.6256 30.1775 38.4942L24.6967 35.2497C24.6966 35.2496 24.6965 35.2496 24.6964 35.2495C24.0575 34.871 23.2613 34.7049 22.5062 34.7049C21.7504 34.7049 20.9523 34.8713 20.3072 35.2467L20.3072 35.2466L20.3023 35.2495L14.8206 38.4945L14.8199 38.4949C12.9174 39.624 11.7203 39.5632 11.1485 39.1459C10.5773 38.7291 10.1556 37.61 10.6534 35.459L10.6534 35.4589L11.9551 29.8306L11.9551 29.8306L11.9562 29.8256C12.1093 29.1424 12.044 28.3747 11.8468 27.686C11.6498 26.9977 11.2987 26.3103 10.8013 25.8129L6.25467 21.2663C5.00935 20.0209 4.76954 18.9543 4.99505 18.2481C5.22034 17.5426 6.03275 16.813 7.77264 16.523L13.6206 15.5515L13.6232 15.551C14.2562 15.4435 14.9004 15.1238 15.4363 14.7265C15.9711 14.33 16.4674 13.8046 16.7548 13.2194L19.9795 6.77007C19.9796 6.76988 19.9797 6.76968 19.9798 6.76949C20.8055 5.12693 21.7605 4.55701 22.4971 4.55701C23.2323 4.55701 24.1829 5.12541 24.9995 6.76726Z" fill="#3870FF" stroke="#3870FF" stroke-width="1.5" stroke-linecap="round" stroke-linejoin="round"/>
<path d="M18.3194 21.1174C19.0071 21.1174 19.5646 20.5599 19.5646 19.8722C19.5646 19.1844 19.0071 18.627 18.3194 18.627C17.6317 18.627 17.0742 19.1844 17.0742 19.8722C17.0742 20.5599 17.6317 21.1174 18.3194 21.1174Z" fill="white"/>
<path d="M26.7745 21.1174C27.4622 21.1174 28.0197 20.5599 28.0197 19.8722C28.0197 19.1844 27.4622 18.627 26.7745 18.627C26.0868 18.627 25.5293 19.1844 25.5293 19.8722C25.5293 20.5599 26.0868 21.1174 26.7745 21.1174Z" fill="white"/>
<path d="M27.3643 26.3556C27.3589 26.3781 27.3576 26.3866 27.3554 26.3981L27.3495 26.4293L27.3387 26.4858C27.3311 26.5224 27.323 26.5561 27.3149 26.5908C27.2987 26.6582 27.2791 26.7239 27.2596 26.7888C27.2185 26.9161 27.1702 27.041 27.115 27.1627C27.0044 27.4055 26.8687 27.6361 26.7103 27.8507C26.3871 28.2822 25.9856 28.6492 25.5268 28.9324C25.2995 29.0713 25.0617 29.1923 24.8157 29.2944C24.5736 29.393 24.3247 29.4738 24.0708 29.536C23.5799 29.6555 23.0766 29.7159 22.5714 29.7159C22.0726 29.7211 21.5748 29.6698 21.0875 29.563L20.9011 29.5194C20.8391 29.5052 20.777 29.4848 20.7154 29.4677C20.6538 29.4506 20.5918 29.4335 20.5304 29.411L20.3465 29.3467C20.0999 29.2559 19.8607 29.1458 19.6313 29.0176C19.3987 28.8878 19.1778 28.7384 18.9708 28.5709C18.7636 28.4011 18.5727 28.2123 18.4006 28.007C18.3577 27.9557 18.3174 27.9018 18.2765 27.8496C18.2356 27.7974 18.1973 27.7417 18.1603 27.6861C18.0859 27.5748 18.0177 27.4595 17.9559 27.3408C17.8931 27.2214 17.8379 27.0981 17.7904 26.9719C17.7679 26.9078 17.7443 26.8426 17.7243 26.7749C17.7144 26.7398 17.7047 26.7075 17.6953 26.6695L17.6816 26.6126L17.6742 26.5811C17.6712 26.5687 17.6699 26.5615 17.6629 26.5373C17.6028 26.3675 17.6127 26.1808 17.6902 26.0183C17.7678 25.8558 17.9067 25.7307 18.0765 25.6707C18.2463 25.6106 18.4329 25.6204 18.5955 25.698C18.758 25.7755 18.883 25.9145 18.9431 26.0842C18.9409 26.0725 18.9445 26.0775 18.9463 26.0777C18.9481 26.0779 18.9512 26.0809 18.9539 26.0831C18.9566 26.0854 18.9654 26.0928 18.9721 26.0993L19.0108 26.138C19.0384 26.1654 19.0661 26.1939 19.0955 26.2218C19.1529 26.2787 19.2151 26.3342 19.2772 26.3877C19.4013 26.4941 19.5325 26.5917 19.67 26.68C19.8054 26.7675 19.9461 26.8464 20.0913 26.9163C20.2372 26.9848 20.3867 27.0454 20.5392 27.0978C20.6941 27.1509 20.8517 27.1959 21.0113 27.2327C21.0929 27.25 21.1732 27.2691 21.2571 27.2823C21.2986 27.2895 21.3389 27.2985 21.3814 27.3048L21.508 27.3233C21.8572 27.3701 22.2092 27.3922 22.5615 27.3891C22.9078 27.3898 23.2536 27.3634 23.5957 27.31C23.7582 27.2845 23.9193 27.2509 24.0785 27.2093C24.2347 27.1677 24.386 27.1171 24.5351 27.0613C24.832 26.9449 25.1128 26.7908 25.3705 26.6029C25.5028 26.5053 25.6286 26.3991 25.7471 26.2852C25.806 26.227 25.8654 26.1676 25.9207 26.1067L25.9621 26.0617L26.0016 26.0168L26.039 25.9745C26.0457 25.9673 26.0511 25.9619 26.0565 25.9565C26.0586 25.9539 26.0612 25.9517 26.0641 25.95C26.0664 25.95 26.0695 25.9448 26.068 25.955C26.0943 25.8697 26.1371 25.7905 26.194 25.7219C26.2509 25.6532 26.3208 25.5965 26.3997 25.5548C26.4785 25.5132 26.5648 25.4875 26.6536 25.4791C26.7424 25.4708 26.8319 25.4801 26.9172 25.5064C27.0024 25.5327 27.0816 25.5756 27.1502 25.6325C27.2189 25.6894 27.2756 25.7593 27.3173 25.8381C27.3589 25.917 27.3847 26.0033 27.393 26.092C27.4013 26.1808 27.392 26.2704 27.3657 26.3556H27.3643Z" fill="white"/>
</svg>
