<svg width="45" height="44" viewBox="0 0 45 44" fill="none" xmlns="http://www.w3.org/2000/svg">
<path d="M24.9995 6.76726L25.0002 6.76867L28.2241 13.2165C28.2246 13.2175 28.2251 13.2185 28.2256 13.2196C28.5131 13.8049 29.0097 14.3306 29.5478 14.7276C30.0873 15.1256 30.7364 15.4445 31.3777 15.5514L31.3781 15.5514L37.226 16.5231C38.9667 16.8132 39.784 17.5433 40.0109 18.2494C40.2374 18.9539 39.9995 20.0193 38.7458 21.2644L38.744 21.2663L34.1973 25.8129C33.7 26.3103 33.3489 26.9977 33.1518 27.686C32.9547 28.3747 32.8894 29.1424 33.0425 29.8256L33.0425 29.8256L33.0436 29.8306L34.3452 35.4583C34.8439 37.6226 34.4244 38.7392 33.8573 39.1526C33.2889 39.567 32.0928 39.6256 30.1775 38.4942L24.6967 35.2497C24.0578 34.8711 23.2614 34.7049 22.5062 34.7049C21.7504 34.7049 20.9523 34.8713 20.3072 35.2467L20.3072 35.2466L20.3023 35.2495L14.8206 38.4945L14.8199 38.4949C12.9174 39.624 11.7203 39.5632 11.1485 39.1459C10.5773 38.7291 10.1556 37.61 10.6534 35.459L10.6534 35.4589L11.9551 29.8306L11.9551 29.8306L11.9562 29.8256C12.1093 29.1424 12.044 28.3747 11.8468 27.686C11.6498 26.9977 11.2987 26.3103 10.8013 25.8129L6.25467 21.2663C5.00935 20.0209 4.76954 18.9543 4.99505 18.2481C5.22034 17.5426 6.03275 16.813 7.77264 16.5231L13.6206 15.5515L13.6232 15.551C14.2562 15.4435 14.9004 15.1238 15.4363 14.7265C15.9711 14.33 16.4674 13.8046 16.7548 13.2194L19.9795 6.77007C19.9796 6.76986 19.9797 6.76965 19.9798 6.76944C20.8055 5.12692 21.7605 4.55701 22.4971 4.55701C23.2323 4.55701 24.1829 5.12541 24.9995 6.76726Z" fill="#E8E8E8" stroke="#E8E8E8" stroke-width="1.5" stroke-linecap="round" stroke-linejoin="round"/>
<path d="M17.7315 21.1174C18.4192 21.1174 18.9767 20.5599 18.9767 19.8722C18.9767 19.1844 18.4192 18.627 17.7315 18.627C17.0438 18.627 16.4863 19.1844 16.4863 19.8722C16.4863 20.5599 17.0438 21.1174 17.7315 21.1174Z" fill="#C6C6C6"/>
<path d="M27.1964 21.1174C27.8841 21.1174 28.4416 20.5599 28.4416 19.8722C28.4416 19.1844 27.8841 18.627 27.1964 18.627C26.5087 18.627 25.9512 19.1844 25.9512 19.8722C25.9512 20.5599 26.5087 21.1174 27.1964 21.1174Z" fill="#C6C6C6"/>
<path d="M17.2451 27.9177C17.4661 27.8608 17.6868 27.817 17.9077 27.7747C18.1287 27.7324 18.3494 27.698 18.5704 27.6647C19.012 27.5993 19.4537 27.5505 19.8953 27.5087C20.7789 27.4284 21.6623 27.3912 22.5458 27.3849C23.4294 27.3786 24.3127 27.4068 25.1961 27.4767C25.417 27.4941 25.6377 27.514 25.8587 27.5384C26.0796 27.5628 26.3003 27.5887 26.5213 27.6182C26.7423 27.6476 26.963 27.6821 27.1839 27.7216C27.4049 27.7611 27.6256 27.8034 27.8465 27.8585C28.0006 27.897 28.1374 27.986 28.2352 28.1112C28.3329 28.2363 28.386 28.3906 28.386 28.5494C28.386 28.7083 28.3329 28.8625 28.2352 28.9877C28.1374 29.1129 28.0006 29.2019 27.8465 29.2404C27.6256 29.2955 27.4046 29.3385 27.1839 29.3773C26.9632 29.416 26.7423 29.4495 26.5213 29.4807C26.3003 29.5119 26.0796 29.5376 25.8587 29.5605C25.6377 29.5834 25.417 29.6048 25.1961 29.6224C24.3127 29.6921 23.4292 29.7195 22.5458 29.714C21.6625 29.7085 20.7789 29.6707 19.8953 29.5904C19.4537 29.5487 19.012 29.4996 18.5704 29.4344C18.3494 29.4009 18.1284 29.366 17.9077 29.3242C17.687 29.2824 17.4661 29.2384 17.2451 29.1812C17.1051 29.145 16.981 29.0633 16.8925 28.949C16.8039 28.8346 16.7559 28.6941 16.7559 28.5494C16.7559 28.4048 16.8039 28.2643 16.8925 28.1499C16.981 28.0355 17.1051 27.9538 17.2451 27.9177Z" fill="#C6C6C6"/>
</svg>
