<svg viewBox="0 0 18 21" fill="none" xmlns="http://www.w3.org/2000/svg">
<path d="M6.18519 10.8334C6.18519 11.521 5.91204 12.1805 5.42583 12.6667C4.93963 13.1529 4.28019 13.426 3.59259 13.426C2.90499 13.426 2.24556 13.1529 1.75935 12.6667C1.27315 12.1805 1 11.521 1 10.8334C1 10.1458 1.27315 9.4864 1.75935 9.0002C2.24556 8.51399 2.90499 8.24084 3.59259 8.24084C4.28019 8.24084 4.93963 8.51399 5.42583 9.0002C5.91204 9.4864 6.18519 10.1458 6.18519 10.8334Z" stroke="#848282" stroke-width="1.5"/>
<path d="M11.3702 5.12964L6.18506 8.75927M11.3702 16.537L6.18506 12.9074" stroke="#848282" stroke-width="1.5" stroke-linecap="round"/>
<path d="M16.5553 17.5741C16.5553 18.2617 16.2822 18.9211 15.7959 19.4073C15.3097 19.8935 14.6503 20.1667 13.9627 20.1667C13.2751 20.1667 12.6157 19.8935 12.1295 19.4073C11.6433 18.9211 11.3701 18.2617 11.3701 17.5741C11.3701 16.8865 11.6433 16.227 12.1295 15.7408C12.6157 15.2546 13.2751 14.9815 13.9627 14.9815C14.6503 14.9815 15.3097 15.2546 15.7959 15.7408C16.2822 16.227 16.5553 16.8865 16.5553 17.5741ZM16.5553 4.09259C16.5553 4.78019 16.2822 5.43963 15.7959 5.92583C15.3097 6.41204 14.6503 6.68519 13.9627 6.68519C13.2751 6.68519 12.6157 6.41204 12.1295 5.92583C11.6433 5.43963 11.3701 4.78019 11.3701 4.09259C11.3701 3.40499 11.6433 2.74556 12.1295 2.25935C12.6157 1.77315 13.2751 1.5 13.9627 1.5C14.6503 1.5 15.3097 1.77315 15.7959 2.25935C16.2822 2.74556 16.5553 3.40499 16.5553 4.09259Z" stroke="#848282" stroke-width="1.5"/>
</svg>
