<svg width="19" height="19" viewBox="0 0 19 19" fill="none" xmlns="http://www.w3.org/2000/svg">
<path d="M9 2.5H3.16667C2.72464 2.5 2.30072 2.67559 1.98816 2.98816C1.67559 3.30072 1.5 3.72464 1.5 4.16667V15.8333C1.5 16.2754 1.67559 16.6993 1.98816 17.0118C2.30072 17.3244 2.72464 17.5 3.16667 17.5H14.8333C15.2754 17.5 15.6993 17.3244 16.0118 17.0118C16.3244 16.6993 16.5 16.2754 16.5 15.8333V10" stroke="#3870FF" stroke-width="1.5" stroke-linecap="round" stroke-linejoin="round"/>
<path d="M14.3123 2.18744C14.6438 1.85592 15.0934 1.66968 15.5623 1.66968C16.0311 1.66968 16.4807 1.85592 16.8123 2.18744C17.1438 2.51897 17.33 2.9686 17.33 3.43744C17.33 3.90629 17.1438 4.35592 16.8123 4.68744L9.30142 12.1991C9.10354 12.3968 8.85909 12.5415 8.59059 12.6199L6.19642 13.3199C6.12471 13.3409 6.0487 13.3421 5.97634 13.3236C5.90399 13.305 5.83794 13.2674 5.78512 13.2146C5.73231 13.1618 5.69466 13.0957 5.67612 13.0234C5.65758 12.951 5.65884 12.875 5.67975 12.8033L6.37975 10.4091C6.45852 10.1408 6.60353 9.89666 6.80142 9.69911L14.3123 2.18744Z" stroke="#3870FF" stroke-width="1.5" stroke-linecap="round" stroke-linejoin="round"/>
</svg>
